CSLSans-Bold.ufo
<glyph name="exclam" format="2">
  <advance width="313"/>
  <unicode hex="0021"/>
  <outline>
    <contour>
      <point x="187" y="213" type="line"/>
      <point x="128" y="213" type="line"/>
      <point x="85" y="502" type="line"/>
      <point x="85" y="698" type="line"/>
      <point x="228" y="698" type="line"/>
      <point x="228" y="502" type="line"/>
    </contour>
    <contour>
      <point x="156" y="-12" type="qcurve"/>
      <point x="73" y="-12"/>
      <point x="73" y="61" type="qcurve"/>
      <point x="73" y="82" type="line"/>
      <point x="73" y="155"/>
      <point x="156" y="155" type="qcurve"/>
      <point x="202" y="155"/>
      <point x="240" y="112"/>
      <point x="240" y="82" type="qcurve"/>
      <point x="240" y="61" type="line"/>
      <point x="240" y="-12"/>
    </contour>
  </outline>
</glyph>
<glyph name="quotedbl" format="2">
  <advance width="479"/>
  <unicode hex="0022"/>
  <outline>
    <contour>
      <point x="192" y="423" type="line"/>
      <point x="71" y="423" type="line"/>
      <point x="71" y="740" type="line"/>
      <point x="192" y="740" type="line"/>
    </contour>
    <contour>
      <point x="408" y="423" type="line"/>
      <point x="287" y="423" type="line"/>
      <point x="287" y="740" type="line"/>
      <point x="408" y="740" type="line"/>
    </contour>
  </outline>
</glyph>
<glyph name="numbersign" format="2">
  <advance width="647"/>
  <unicode hex="0023"/>
  <outline>
    <contour>
      <point x="431" y="0" type="line"/>
      <point x="343" y="0" type="line"/>
      <point x="374" y="179" type="line"/>
      <point x="215" y="179" type="line"/>
      <point x="184" y="0" type="line"/>
      <point x="96" y="0" type="line"/>
      <point x="127" y="179" type="line"/>
      <point x="21" y="179" type="line"/>
      <point x="21" y="263" type="line"/>
      <point x="142" y="263" type="line"/>
      <point x="171" y="435" type="line"/>
      <point x="65" y="435" type="line"/>
      <point x="65" y="519" type="line"/>
      <point x="186" y="519" type="line"/>
      <point x="217" y="698" type="line"/>
      <point x="304" y="698" type="line"/>
      <point x="273" y="519" type="line"/>
      <point x="432" y="519" type="line"/>
      <point x="463" y="698" type="line"/>
      <point x="552" y="698" type="line"/>
      <point x="521" y="519" type="line"/>
      <point x="627" y="519" type="line"/>
      <point x="627" y="435" type="line"/>
      <point x="506" y="435" type="line"/>
      <point x="477" y="263" type="line"/>
      <point x="583" y="263" type="line"/>
      <point x="583" y="179" type="line"/>
      <point x="462" y="179" type="line"/>
    </contour>
    <contour>
      <point x="388" y="263" type="line"/>
      <point x="418" y="435" type="line"/>
      <point x="259" y="435" type="line"/>
      <point x="229" y="263" type="line"/>
    </contour>
  </outline>
</glyph>
<glyph name="dollar" format="2">
  <advance width="600"/>
  <unicode hex="0024"/>
  <outline>
    <contour>
      <point x="358" y="-82" type="line"/>
      <point x="254" y="-82" type="line"/>
      <point x="254" y="8" type="line"/>
      <point x="116" y="22"/>
      <point x="36" y="116" type="qcurve"/>
      <point x="120" y="192" type="line"/>
      <point x="179" y="125"/>
      <point x="265" y="112" type="qcurve"/>
      <point x="265" y="307" type="line"/>
      <point x="157" y="330"/>
      <point x="56" y="426"/>
      <point x="56" y="500" type="qcurve"/>
      <point x="56" y="662"/>
      <point x="254" y="688" type="qcurve"/>
      <point x="254" y="780" type="line"/>
      <point x="358" y="780" type="line"/>
      <point x="358" y="688" type="line"/>
      <point x="478" y="676"/>
      <point x="545" y="594" type="qcurve"/>
      <point x="459" y="519" type="line"/>
      <point x="423" y="568"/>
      <point x="348" y="584" type="qcurve"/>
      <point x="348" y="405" type="line"/>
      <point x="453" y="383"/>
      <point x="555" y="293"/>
      <point x="555" y="214" type="qcurve"/>
      <point x="555" y="140"/>
      <point x="461" y="30"/>
      <point x="358" y="11" type="qcurve"/>
    </contour>
    <contour>
      <point x="348" y="114" type="line"/>
      <point x="428" y="134"/>
      <point x="428" y="204" type="qcurve"/>
      <point x="428" y="264"/>
      <point x="348" y="289" type="qcurve"/>
    </contour>
    <contour>
      <point x="265" y="424" type="qcurve"/>
      <point x="265" y="586" type="line"/>
      <point x="183" y="570"/>
      <point x="183" y="505" type="qcurve"/>
      <point x="183" y="442"/>
    </contour>
  </outline>
</glyph>
<glyph name="ampersand" format="2">
  <advance width="716"/>
  <unicode hex="0026"/>
  <outline>
    <contour>
      <point x="287" y="-12" type="qcurve"/>
      <point x="173" y="-12"/>
      <point x="54" y="99"/>
      <point x="54" y="183" type="qcurve"/>
      <point x="54" y="251"/>
      <point x="133" y="343"/>
      <point x="195" y="377" type="qcurve"/>
      <point x="117" y="456"/>
      <point x="117" y="543" type="qcurve"/>
      <point x="117" y="610"/>
      <point x="224" y="710"/>
      <point x="320" y="710" type="qcurve"/>
      <point x="368" y="710"/>
      <point x="458" y="678"/>
      <point x="515" y="608"/>
      <point x="515" y="552" type="qcurve"/>
      <point x="515" y="488"/>
      <point x="435" y="400"/>
      <point x="372" y="364" type="qcurve"/>
      <point x="489" y="237" type="line"/>
      <point x="516" y="307"/>
      <point x="519" y="382" type="qcurve"/>
      <point x="680" y="382" type="line"/>
      <point x="680" y="269" type="line"/>
      <point x="616" y="269" type="line"/>
      <point x="600" y="200"/>
      <point x="570" y="150" type="qcurve"/>
      <point x="709" y="0" type="line"/>
      <point x="544" y="0" type="line"/>
      <point x="488" y="62" type="line"/>
      <point x="406" y="-12"/>
    </contour>
    <contour>
      <point x="305" y="436" type="qcurve"/>
      <point x="312" y="441" type="line"/>
      <point x="352" y="463"/>
      <point x="386" y="509"/>
      <point x="386" y="542" type="qcurve"/>
      <point x="386" y="578"/>
      <point x="344" y="606"/>
      <point x="317" y="606" type="qcurve"/>
      <point x="288" y="606"/>
      <point x="246" y="571"/>
      <point x="246" y="539" type="qcurve"/>
      <point x="246" y="515"/>
      <point x="272" y="470"/>
    </contour>
    <contour>
      <point x="306" y="101" type="qcurve"/>
      <point x="369" y="101"/>
      <point x="417" y="137" type="qcurve"/>
      <point x="262" y="304" type="line"/>
      <point x="192" y="267"/>
      <point x="192" y="206" type="qcurve"/>
      <point x="192" y="101"/>
    </contour>
  </outline>
</glyph>
<glyph name="parenleft" format="2">
  <advance width="337"/>
  <unicode hex="0028"/>
  <outline>
    <contour>
      <point x="349" y="-138" type="qcurve"/>
      <point x="221" y="-138" type="line"/>
      <point x="144" y="-70"/>
      <point x="46" y="164"/>
      <point x="46" y="312" type="qcurve" smooth="yes"/>
      <point x="46" y="462"/>
      <point x="146" y="691"/>
      <point x="222" y="760" type="qcurve"/>
      <point x="349" y="760" type="line"/>
      <point x="173" y="590"/>
      <point x="173" y="348" type="qcurve" smooth="yes"/>
      <point x="173" y="274" type="line" smooth="yes"/>
      <point x="173" y="137"/>
      <point x="271" y="-69"/>
    </contour>
  </outline>
</glyph>
<glyph name="parenright" format="2">
  <advance width="337"/>
  <unicode hex="0029"/>
  <outline>
    <contour>
      <point x="116" y="-138" type="qcurve"/>
      <point x="-11" y="-138" type="line"/>
      <point x="67" y="-68"/>
      <point x="164" y="139"/>
      <point x="164" y="274" type="qcurve"/>
      <point x="164" y="348" type="line"/>
      <point x="164" y="480"/>
      <point x="69" y="687"/>
      <point x="-11" y="760" type="qcurve"/>
      <point x="116" y="760" type="line"/>
      <point x="192" y="690"/>
      <point x="292" y="460"/>
      <point x="292" y="312" type="qcurve"/>
      <point x="292" y="165"/>
      <point x="191" y="-71"/>
    </contour>
  </outline>
</glyph>
<glyph name="asterisk" format="2">
  <advance width="572"/>
  <unicode hex="002A"/>
  <outline>
    <contour>
      <point x="389" y="267" type="line"/>
      <point x="285" y="422" type="line"/>
      <point x="182" y="267" type="line"/>
      <point x="88" y="331" type="line"/>
      <point x="208" y="477" type="line"/>
      <point x="33" y="529" type="line"/>
      <point x="68" y="634" type="line"/>
      <point x="235" y="565" type="line"/>
      <point x="227" y="747" type="line"/>
      <point x="345" y="747" type="line"/>
      <point x="336" y="565" type="line"/>
      <point x="503" y="634" type="line"/>
      <point x="539" y="529" type="line"/>
      <point x="364" y="477" type="line"/>
      <point x="483" y="331" type="line"/>
    </contour>
  </outline>
</glyph>
<glyph name="plus" format="2">
  <advance width="600"/>
  <unicode hex="002B"/>
  <outline>
    <contour>
      <point x="359" y="63" type="line"/>
      <point x="241" y="63" type="line"/>
      <point x="241" y="252" type="line"/>
      <point x="67" y="252" type="line"/>
      <point x="67" y="360" type="line"/>
      <point x="241" y="360" type="line"/>
      <point x="241" y="549" type="line"/>
      <point x="359" y="549" type="line"/>
      <point x="359" y="360" type="line"/>
      <point x="533" y="360" type="line"/>
      <point x="533" y="252" type="line"/>
      <point x="359" y="252" type="line"/>
    </contour>
  </outline>
</glyph>
<glyph name="comma" format="2">
  <advance width="303"/>
  <unicode hex="002C"/>
  <outline>
    <contour>
      <point x="132" y="-144" type="qcurve"/>
      <point x="38" y="-144" type="line"/>
      <point x="108" y="-81"/>
      <point x="132" y="-9" type="qcurve"/>
      <point x="70" y="3"/>
      <point x="70" y="64" type="qcurve" smooth="yes"/>
      <point x="70" y="83" type="line" smooth="yes"/>
      <point x="70" y="114"/>
      <point x="107" y="159"/>
      <point x="153" y="159" type="qcurve" smooth="yes"/>
      <point x="199" y="159"/>
      <point x="236" y="114"/>
      <point x="236" y="83" type="qcurve" smooth="yes"/>
      <point x="236" y="64" type="line" smooth="yes"/>
      <point x="236" y="-51"/>
    </contour>
  </outline>
</glyph>
<glyph name="period" format="2">
  <advance width="303"/>
  <unicode hex="002E"/>
  <outline>
    <contour>
      <point x="152" y="-11" type="qcurve" smooth="yes"/>
      <point x="106" y="-11"/>
      <point x="69" y="34"/>
      <point x="69" y="65" type="qcurve" smooth="yes"/>
      <point x="69" y="83" type="line" smooth="yes"/>
      <point x="69" y="113"/>
      <point x="106" y="159"/>
      <point x="152" y="159" type="qcurve" smooth="yes"/>
      <point x="197" y="159"/>
      <point x="235" y="114"/>
      <point x="235" y="83" type="qcurve" smooth="yes"/>
      <point x="235" y="65" type="line" smooth="yes"/>
      <point x="235" y="34"/>
      <point x="198" y="-11"/>
    </contour>
  </outline>
</glyph>
<glyph name="slash" format="2">
  <advance width="446"/>
  <unicode hex="002F"/>
  <outline>
    <contour>
      <point x="117" y="-151" type="line"/>
      <point x="4" y="-151" type="line"/>
      <point x="295" y="740" type="line"/>
      <point x="408" y="740" type="line"/>
    </contour>
  </outline>
</glyph>
<glyph name="one" format="2">
  <advance width="600"/>
  <unicode hex="0031"/>
  <outline>
    <contour>
      <point x="416" y="0" type="line"/>
      <point x="280" y="0" type="line"/>
      <point x="280" y="573" type="line"/>
      <point x="130" y="489" type="line"/>
      <point x="130" y="618" type="line"/>
      <point x="272" y="698" type="line"/>
      <point x="416" y="698" type="line"/>
    </contour>
  </outline>
</glyph>
<glyph name="two" format="2">
  <advance width="600"/>
  <unicode hex="0032"/>
  <outline>
    <contour>
      <point x="548" y="0" type="line"/>
      <point x="60" y="0" type="line"/>
      <point x="60" y="127" type="line"/>
      <point x="278" y="316" type="line"/>
      <point x="385" y="398"/>
      <point x="385" y="492" type="qcurve" smooth="yes"/>
      <point x="385" y="545"/>
      <point x="327" y="591"/>
      <point x="286" y="591" type="qcurve" smooth="yes"/>
      <point x="190" y="591"/>
      <point x="167" y="489" type="qcurve"/>
      <point x="47" y="535" type="line"/>
      <point x="78" y="626"/>
      <point x="211" y="710"/>
      <point x="298" y="710" type="qcurve" smooth="yes"/>
      <point x="376" y="710"/>
      <point x="480" y="651"/>
      <point x="531" y="556"/>
      <point x="531" y="501" type="qcurve" smooth="yes"/>
      <point x="531" y="439"/>
      <point x="504" y="391" type="qcurve" smooth="yes"/>
      <point x="451" y="299"/>
      <point x="245" y="144" type="qcurve"/>
      <point x="210" y="116" type="line"/>
      <point x="548" y="116" type="line"/>
    </contour>
  </outline>
</glyph>
<glyph name="three" format="2">
  <advance width="600"/>
  <unicode hex="0033"/>
  <outline>
    <contour>
      <point x="273" y="-12" type="qcurve" smooth="yes"/>
      <point x="179" y="-12"/>
      <point x="54" y="60"/>
      <point x="21" y="119" type="qcurve"/>
      <point x="123" y="198" type="line"/>
      <point x="169" y="101"/>
      <point x="273" y="101" type="qcurve" smooth="yes"/>
      <point x="386" y="101"/>
      <point x="389" y="209" type="qcurve"/>
      <point x="389" y="303"/>
      <point x="262" y="303" type="qcurve" smooth="yes"/>
      <point x="195" y="303" type="line"/>
      <point x="195" y="418" type="line"/>
      <point x="262" y="418" type="line" smooth="yes"/>
      <point x="376" y="418"/>
      <point x="376" y="501" type="qcurve" smooth="yes"/>
      <point x="376" y="544"/>
      <point x="329" y="597"/>
      <point x="276" y="597" type="qcurve" smooth="yes"/>
      <point x="190" y="597"/>
      <point x="133" y="513" type="qcurve"/>
      <point x="46" y="594" type="line"/>
      <point x="82" y="646"/>
      <point x="190" y="710"/>
      <point x="280" y="710" type="qcurve" smooth="yes"/>
      <point x="389" y="710"/>
      <point x="521" y="610"/>
      <point x="521" y="527" type="qcurve" smooth="yes"/>
      <point x="521" y="458"/>
      <point x="443" y="379"/>
      <point x="387" y="369" type="qcurve"/>
      <point x="387" y="363" type="line"/>
      <point x="450" y="351"/>
      <point x="533" y="267"/>
      <point x="533" y="193" type="qcurve" smooth="yes"/>
      <point x="533" y="127"/>
      <point x="464" y="35"/>
      <point x="347" y="-12"/>
    </contour>
  </outline>
</glyph>
<glyph name="four" format="2">
  <advance width="600"/>
  <unicode hex="0034"/>
  <outline>
    <contour>
      <point x="475" y="0" type="line"/>
      <point x="344" y="0" type="line"/>
      <point x="344" y="135" type="line"/>
      <point x="32" y="135" type="line"/>
      <point x="32" y="252" type="line"/>
      <point x="307" y="698" type="line"/>
      <point x="475" y="698" type="line"/>
      <point x="475" y="242" type="line"/>
      <point x="566" y="242" type="line"/>
      <point x="566" y="135" type="line"/>
      <point x="475" y="135" type="line"/>
    </contour>
    <contour>
      <point x="344" y="242" type="line"/>
      <point x="344" y="560" type="line"/>
      <point x="335" y="560" type="line"/>
      <point x="144" y="242" type="line"/>
    </contour>
  </outline>
</glyph>
<glyph name="five" format="2">
  <advance width="600"/>
  <unicode hex="0035"/>
  <outline>
    <contour>
      <point x="295" y="-12" type="qcurve"/>
      <point x="126" y="-12"/>
      <point x="52" y="119" type="qcurve"/>
      <point x="152" y="198" type="line"/>
      <point x="175" y="152"/>
      <point x="244" y="101"/>
      <point x="296" y="101" type="qcurve"/>
      <point x="359" y="101"/>
      <point x="412" y="170"/>
      <point x="412" y="219" type="qcurve"/>
      <point x="412" y="340"/>
      <point x="299" y="340" type="qcurve"/>
      <point x="226" y="340"/>
      <point x="188" y="289" type="qcurve"/>
      <point x="75" y="305" type="line"/>
      <point x="101" y="698" type="line"/>
      <point x="517" y="698" type="line"/>
      <point x="517" y="578" type="line"/>
      <point x="203" y="578" type="line"/>
      <point x="187" y="348" type="line"/>
      <point x="194" y="348" type="line"/>
      <point x="215" y="401"/>
      <point x="286" y="453"/>
      <point x="343" y="453" type="qcurve"/>
      <point x="442" y="453"/>
      <point x="557" y="323"/>
      <point x="557" y="232" type="qcurve"/>
      <point x="557" y="151"/>
      <point x="488" y="43"/>
      <point x="369" y="-12"/>
    </contour>
  </outline>
</glyph>
<glyph name="six" format="2">
  <advance width="600"/>
  <unicode hex="0036"/>
  <outline>
    <contour>
      <point x="303" y="-12" type="qcurve" smooth="yes"/>
      <point x="178" y="-12"/>
      <point x="47" y="143"/>
      <point x="47" y="263" type="qcurve" smooth="yes"/>
      <point x="47" y="357"/>
      <point x="120" y="524"/>
      <point x="234" y="657"/>
      <point x="297" y="698" type="qcurve"/>
      <point x="485" y="698" type="line"/>
      <point x="223" y="523"/>
      <point x="190" y="346" type="qcurve"/>
      <point x="199" y="343" type="line"/>
      <point x="245" y="447"/>
      <point x="355" y="447" type="qcurve" smooth="yes"/>
      <point x="440" y="447"/>
      <point x="560" y="330"/>
      <point x="560" y="230" type="qcurve" smooth="yes"/>
      <point x="560" y="153"/>
      <point x="490" y="45"/>
      <point x="373" y="-12"/>
    </contour>
    <contour>
      <point x="303" y="97" type="qcurve"/>
      <point x="417" y="101"/>
      <point x="417" y="210" type="qcurve" smooth="yes"/>
      <point x="417" y="286"/>
      <point x="357" y="340"/>
      <point x="303" y="340" type="qcurve"/>
      <point x="190" y="337"/>
      <point x="190" y="227" type="qcurve" smooth="yes"/>
      <point x="190" y="189"/>
      <point x="202" y="142"/>
      <point x="220" y="126" type="qcurve"/>
      <point x="249" y="97"/>
    </contour>
  </outline>
</glyph>
<glyph name="seven" format="2">
  <advance width="600"/>
  <unicode hex="0037"/>
  <outline>
    <contour>
      <point x="313" y="0" type="line"/>
      <point x="168" y="0" type="line"/>
      <point x="408" y="586" type="line"/>
      <point x="58" y="586" type="line"/>
      <point x="58" y="698" type="line"/>
      <point x="545" y="698" type="line"/>
      <point x="545" y="579" type="line"/>
    </contour>
  </outline>
</glyph>
<glyph name="eight" format="2">
  <advance width="600"/>
  <unicode hex="0038"/>
  <outline>
    <contour>
      <point x="300" y="-12" type="qcurve"/>
      <point x="178" y="-12"/>
      <point x="42" y="101"/>
      <point x="42" y="191" type="qcurve"/>
      <point x="42" y="325"/>
      <point x="180" y="360" type="qcurve"/>
      <point x="180" y="368" type="line"/>
      <point x="128" y="386"/>
      <point x="63" y="464"/>
      <point x="63" y="527" type="qcurve"/>
      <point x="63" y="611"/>
      <point x="192" y="710"/>
      <point x="300" y="710" type="qcurve"/>
      <point x="414" y="710"/>
      <point x="536" y="605"/>
      <point x="536" y="527" type="qcurve"/>
      <point x="536" y="463"/>
      <point x="470" y="385"/>
      <point x="420" y="368" type="qcurve"/>
      <point x="420" y="360" type="line"/>
      <point x="482" y="344"/>
      <point x="557" y="261"/>
      <point x="557" y="191" type="qcurve"/>
      <point x="557" y="103"/>
      <point x="423" y="-12"/>
    </contour>
    <contour>
      <point x="300" y="97" type="qcurve"/>
      <point x="410" y="101"/>
      <point x="410" y="191" type="qcurve"/>
      <point x="410" y="211" type="line"/>
      <point x="408" y="305"/>
      <point x="300" y="305" type="qcurve"/>
      <point x="189" y="303"/>
      <point x="189" y="211" type="qcurve"/>
      <point x="189" y="177"/>
      <point x="199" y="136"/>
      <point x="218" y="121" type="qcurve"/>
      <point x="246" y="97"/>
    </contour>
    <contour>
      <point x="300" y="409" type="qcurve"/>
      <point x="403" y="412"/>
      <point x="403" y="497" type="qcurve"/>
      <point x="403" y="527"/>
      <point x="394" y="565"/>
      <point x="376" y="579" type="qcurve"/>
      <point x="349" y="601"/>
      <point x="300" y="601" type="qcurve"/>
      <point x="246" y="601"/>
      <point x="196" y="551"/>
      <point x="196" y="513" type="qcurve"/>
      <point x="196" y="501" type="line"/>
      <point x="196" y="409"/>
    </contour>
  </outline>
</glyph>
<glyph name="nine" format="2">
  <advance width="600"/>
  <unicode hex="0039"/>
  <outline>
    <contour>
      <point x="303" y="0" type="qcurve"/>
      <point x="115" y="0" type="line"/>
      <point x="376" y="175"/>
      <point x="410" y="352" type="qcurve"/>
      <point x="401" y="355" type="line"/>
      <point x="359" y="251"/>
      <point x="245" y="251" type="qcurve"/>
      <point x="189" y="251"/>
      <point x="96" y="301"/>
      <point x="40" y="398"/>
      <point x="40" y="468" type="qcurve"/>
      <point x="40" y="580"/>
      <point x="185" y="710"/>
      <point x="297" y="710" type="qcurve"/>
      <point x="382" y="710"/>
      <point x="495" y="639"/>
      <point x="553" y="514"/>
      <point x="553" y="435" type="qcurve"/>
      <point x="553" y="338"/>
      <point x="476" y="168"/>
      <point x="363" y="38"/>
    </contour>
    <contour>
      <point x="297" y="358" type="qcurve"/>
      <point x="410" y="362"/>
      <point x="410" y="471" type="qcurve"/>
      <point x="410" y="547"/>
      <point x="350" y="601"/>
      <point x="297" y="601" type="qcurve"/>
      <point x="183" y="598"/>
      <point x="183" y="488" type="qcurve"/>
      <point x="183" y="450"/>
      <point x="195" y="403"/>
      <point x="213" y="387" type="qcurve"/>
      <point x="243" y="358"/>
    </contour>
  </outline>
</glyph>
<glyph name="colon" format="2">
  <advance width="323"/>
  <unicode hex="003A"/>
  <outline>
    <contour>
      <point x="162" y="362" type="qcurve" smooth="yes"/>
      <point x="116" y="362"/>
      <point x="79" y="407"/>
      <point x="79" y="438" type="qcurve" smooth="yes"/>
      <point x="79" y="456" type="line" smooth="yes"/>
      <point x="79" y="486"/>
      <point x="116" y="532"/>
      <point x="162" y="532" type="qcurve" smooth="yes"/>
      <point x="207" y="532"/>
      <point x="245" y="488"/>
      <point x="245" y="456" type="qcurve" smooth="yes"/>
      <point x="245" y="438" type="line" smooth="yes"/>
      <point x="245" y="407"/>
      <point x="208" y="362"/>
    </contour>
    <contour>
      <point x="162" y="-11" type="qcurve" smooth="yes"/>
      <point x="116" y="-11"/>
      <point x="79" y="34"/>
      <point x="79" y="65" type="qcurve" smooth="yes"/>
      <point x="79" y="83" type="line" smooth="yes"/>
      <point x="79" y="113"/>
      <point x="116" y="159"/>
      <point x="162" y="159" type="qcurve" smooth="yes"/>
      <point x="207" y="159"/>
      <point x="245" y="114"/>
      <point x="245" y="83" type="qcurve" smooth="yes"/>
      <point x="245" y="65" type="line" smooth="yes"/>
      <point x="245" y="34"/>
      <point x="208" y="-11"/>
    </contour>
  </outline>
</glyph>
<glyph name="semicolon" format="2">
  <advance width="323"/>
  <unicode hex="003B"/>
  <outline>
    <contour>
      <point x="140" y="-144" type="qcurve"/>
      <point x="47" y="-144" type="line"/>
      <point x="116" y="-83"/>
      <point x="140" y="-9" type="qcurve"/>
      <point x="78" y="6"/>
      <point x="78" y="64" type="qcurve"/>
      <point x="78" y="83" type="line"/>
      <point x="78" y="114"/>
      <point x="115" y="159"/>
      <point x="161" y="159" type="qcurve"/>
      <point x="207" y="159"/>
      <point x="244" y="114"/>
      <point x="244" y="83" type="qcurve"/>
      <point x="244" y="64" type="line"/>
      <point x="244" y="-51"/>
    </contour>
    <contour>
      <point x="161" y="362" type="qcurve"/>
      <point x="115" y="362"/>
      <point x="78" y="407"/>
      <point x="78" y="438" type="qcurve"/>
      <point x="78" y="456" type="line"/>
      <point x="78" y="486"/>
      <point x="115" y="532"/>
      <point x="161" y="532" type="qcurve"/>
      <point x="206" y="532"/>
      <point x="244" y="488"/>
      <point x="244" y="456" type="qcurve"/>
      <point x="244" y="438" type="line"/>
      <point x="244" y="407"/>
      <point x="207" y="362"/>
    </contour>
  </outline>
</glyph>
<glyph name="less" format="2">
  <advance width="600"/>
  <unicode hex="003C"/>
  <outline>
    <contour>
      <point x="499" y="-4" type="line"/>
      <point x="101" y="254" type="line"/>
      <point x="101" y="339" type="line"/>
      <point x="499" y="597" type="line"/>
      <point x="499" y="460" type="line"/>
      <point x="241" y="300" type="line"/>
      <point x="241" y="293" type="line"/>
      <point x="499" y="133" type="line"/>
    </contour>
  </outline>
</glyph>
<glyph name="greater" format="2">
  <advance width="600"/>
  <unicode hex="003E"/>
  <outline>
    <contour>
      <point x="101" y="-4" type="line"/>
      <point x="101" y="133" type="line"/>
      <point x="359" y="293" type="line"/>
      <point x="359" y="300" type="line"/>
      <point x="101" y="460" type="line"/>
      <point x="101" y="597" type="line"/>
      <point x="499" y="340" type="line"/>
      <point x="499" y="255" type="line"/>
    </contour>
  </outline>
</glyph>
<glyph name="at" format="2">
  <advance width="901"/>
  <unicode hex="0040"/>
  <outline>
    <contour>
      <point x="673" y="-121" type="line"/>
      <point x="459" y="-121" type="line" smooth="yes"/>
      <point x="326" y="-121"/>
      <point x="150" y="-9"/>
      <point x="62" y="178"/>
      <point x="62" y="290" type="qcurve" smooth="yes"/>
      <point x="62" y="421"/>
      <point x="165" y="609"/>
      <point x="345" y="709"/>
      <point x="461" y="709" type="qcurve" smooth="yes"/>
      <point x="584" y="709"/>
      <point x="754" y="611"/>
      <point x="842" y="441"/>
      <point x="842" y="333" type="qcurve" smooth="yes"/>
      <point x="842" y="220"/>
      <point x="750" y="79"/>
      <point x="658" y="79" type="qcurve" smooth="yes"/>
      <point x="598" y="79"/>
      <point x="540" y="132"/>
      <point x="537" y="172" type="qcurve"/>
      <point x="532" y="172" type="line"/>
      <point x="508" y="81"/>
      <point x="416" y="81" type="qcurve" smooth="yes"/>
      <point x="350" y="81"/>
      <point x="258" y="182"/>
      <point x="258" y="290" type="qcurve" smooth="yes"/>
      <point x="258" y="394"/>
      <point x="349" y="500"/>
      <point x="416" y="500" type="qcurve" smooth="yes"/>
      <point x="498" y="500"/>
      <point x="521" y="422" type="qcurve"/>
      <point x="526" y="422" type="line"/>
      <point x="526" y="491" type="line"/>
      <point x="629" y="491" type="line"/>
      <point x="629" y="215" type="line" smooth="yes"/>
      <point x="629" y="162"/>
      <point x="675" y="162" type="qcurve" smooth="yes"/>
      <point x="711" y="162"/>
      <point x="754" y="237"/>
      <point x="754" y="318" type="qcurve" smooth="yes"/>
      <point x="754" y="368"/>
      <point x="745" y="438"/>
      <point x="729" y="473" type="qcurve"/>
      <point x="686" y="555"/>
      <point x="541" y="627"/>
      <point x="461" y="627" type="qcurve" smooth="yes"/>
      <point x="365" y="627"/>
      <point x="226" y="544"/>
      <point x="150" y="402"/>
      <point x="150" y="312" type="qcurve" smooth="yes"/>
      <point x="150" y="270" type="line" smooth="yes"/>
      <point x="150" y="133"/>
      <point x="320" y="-38"/>
      <point x="459" y="-38" type="qcurve" smooth="yes"/>
      <point x="673" y="-38" type="line"/>
    </contour>
    <contour>
      <point x="452" y="167" type="qcurve" smooth="yes"/>
      <point x="483" y="167"/>
      <point x="515" y="196"/>
      <point x="526" y="237"/>
      <point x="526" y="255" type="qcurve" smooth="yes"/>
      <point x="526" y="353" type="line" smooth="yes"/>
      <point x="526" y="382"/>
      <point x="480" y="414"/>
      <point x="452" y="414" type="qcurve" smooth="yes"/>
      <point x="368" y="414"/>
      <point x="368" y="317" type="qcurve" smooth="yes"/>
      <point x="368" y="255" type="line" smooth="yes"/>
      <point x="368" y="219"/>
      <point x="408" y="167"/>
    </contour>
  </outline>
</glyph>
<glyph name="B" format="2">
  <advance width="664"/>
  <unicode hex="0042"/>
  <outline>
    <contour>
      <point x="440" y="0" type="qcurve"/>
      <point x="80" y="0" type="line"/>
      <point x="80" y="698" type="line"/>
      <point x="409" y="698" type="line"/>
      <point x="472" y="698"/>
      <point x="554" y="650"/>
      <point x="594" y="568"/>
      <point x="594" y="519" type="qcurve"/>
      <point x="594" y="468"/>
      <point x="557" y="401"/>
      <point x="499" y="369"/>
      <point x="467" y="369" type="qcurve"/>
      <point x="467" y="363" type="line"/>
      <point x="540" y="363"/>
      <point x="620" y="265"/>
      <point x="620" y="200" type="qcurve"/>
      <point x="620" y="117"/>
      <point x="520" y="0"/>
    </contour>
    <contour>
      <point x="400" y="118" type="line"/>
      <point x="475" y="121"/>
      <point x="475" y="189" type="qcurve"/>
      <point x="475" y="223" type="line"/>
      <point x="472" y="268"/>
      <point x="416" y="295"/>
      <point x="377" y="295" type="qcurve"/>
      <point x="219" y="295" type="line"/>
      <point x="219" y="118" type="line"/>
    </contour>
    <contour>
      <point x="378" y="409" type="line"/>
      <point x="450" y="413"/>
      <point x="450" y="479" type="qcurve"/>
      <point x="450" y="510" type="line"/>
      <point x="446" y="552"/>
      <point x="398" y="580"/>
      <point x="353" y="580" type="qcurve"/>
      <point x="219" y="580" type="line"/>
      <point x="219" y="409" type="line"/>
    </contour>
  </outline>
</glyph>
<glyph name="D" format="2">
  <advance width="692"/>
  <unicode hex="0044"/>
  <outline>
    <contour>
      <point x="338" y="0" type="qcurve"/>
      <point x="80" y="0" type="line"/>
      <point x="80" y="698" type="line"/>
      <point x="338" y="698" type="line"/>
      <point x="441" y="698"/>
      <point x="576" y="608"/>
      <point x="641" y="451"/>
      <point x="641" y="349" type="qcurve"/>
      <point x="641" y="230"/>
      <point x="561" y="75"/>
      <point x="424" y="0"/>
    </contour>
    <contour>
      <point x="338" y="123" type="line"/>
      <point x="493" y="123"/>
      <point x="493" y="294" type="qcurve"/>
      <point x="493" y="404" type="line"/>
      <point x="493" y="494"/>
      <point x="407" y="575"/>
      <point x="338" y="575" type="qcurve"/>
      <point x="219" y="575" type="line"/>
      <point x="219" y="123" type="line"/>
    </contour>
  </outline>
</glyph>
<glyph name="F" format="2">
  <advance width="580"/>
  <unicode hex="0046"/>
  <outline>
    <contour>
      <point x="219" y="0" type="line"/>
      <point x="80" y="0" type="line"/>
      <point x="80" y="698" type="line"/>
      <point x="534" y="698" type="line"/>
      <point x="534" y="575" type="line"/>
      <point x="219" y="575" type="line"/>
      <point x="219" y="415" type="line"/>
      <point x="491" y="415" type="line"/>
      <point x="491" y="292" type="line"/>
      <point x="219" y="292" type="line"/>
    </contour>
  </outline>
</glyph>
<glyph name="G" format="2">
  <advance width="668"/>
  <unicode hex="0047"/>
  <outline>
    <contour>
      <point x="35" y="349" type="qcurve"/>
      <point x="35" y="438"/>
      <point x="81" y="573"/>
      <point x="164" y="664"/>
      <point x="279" y="710"/>
      <point x="348" y="710" type="qcurve"/>
      <point x="407" y="710"/>
      <point x="494" y="681"/>
      <point x="557" y="635"/>
      <point x="600" y="577"/>
      <point x="617" y="548" type="qcurve"/>
      <point x="498" y="493" type="line"/>
      <point x="492" y="511"/>
      <point x="468" y="547"/>
      <point x="432" y="576"/>
      <point x="383" y="593"/>
      <point x="352" y="593" type="qcurve"/>
      <point x="314" y="593"/>
      <point x="254" y="566"/>
      <point x="212" y="518"/>
      <point x="189" y="450"/>
      <point x="189" y="410" type="qcurve"/>
      <point x="189" y="311" type="line"/>
      <point x="189" y="265"/>
      <point x="205" y="189"/>
      <point x="242" y="135"/>
      <point x="302" y="105"/>
      <point x="346" y="105" type="qcurve"/>
      <point x="376" y="105"/>
      <point x="428" y="121"/>
      <point x="468" y="154"/>
      <point x="491" y="205"/>
      <point x="491" y="239" type="qcurve"/>
      <point x="491" y="268" type="line"/>
      <point x="320" y="268" type="line"/>
      <point x="320" y="386" type="line"/>
      <point x="630" y="386" type="line"/>
      <point x="630" y="271" type="line"/>
      <point x="630" y="209"/>
      <point x="594" y="106"/>
      <point x="521" y="30"/>
      <point x="409" y="-12"/>
      <point x="333" y="-12" type="qcurve"/>
      <point x="269" y="-12"/>
      <point x="160" y="36"/>
      <point x="80" y="128"/>
      <point x="35" y="262"/>
    </contour>
  </outline>
</glyph>
<glyph name="K" format="2">
  <advance width="684"/>
  <unicode hex="004B"/>
  <outline>
    <contour>
      <point x="670" y="0" type="line"/>
      <point x="506" y="0" type="line"/>
      <point x="312" y="311" type="line"/>
      <point x="219" y="201" type="line"/>
      <point x="219" y="0" type="line"/>
      <point x="80" y="0" type="line"/>
      <point x="80" y="698" type="line"/>
      <point x="219" y="698" type="line"/>
      <point x="219" y="359" type="line"/>
      <point x="224" y="359" type="line"/>
      <point x="294" y="453" type="line" smooth="yes"/>
      <point x="329" y="499"/>
      <point x="376" y="556" type="qcurve" smooth="yes"/>
      <point x="456" y="653"/>
      <point x="491" y="698" type="qcurve"/>
      <point x="650" y="698" type="line"/>
      <point x="410" y="409" type="line"/>
    </contour>
  </outline>
</glyph>
<glyph name="L" format="2">
  <advance width="524"/>
  <unicode hex="004C"/>
  <outline>
    <contour>
      <point x="491" y="0" type="line"/>
      <point x="80" y="0" type="line"/>
      <point x="80" y="698" type="line"/>
      <point x="219" y="698" type="line"/>
      <point x="219" y="123" type="line"/>
      <point x="491" y="123" type="line"/>
    </contour>
  </outline>
</glyph>
<glyph name="M" format="2">
  <advance width="817"/>
  <unicode hex="004D"/>
  <outline>
    <contour>
      <point x="737" y="0" type="line"/>
      <point x="606" y="0" type="line"/>
      <point x="606" y="483" type="line"/>
      <point x="602" y="483" type="line"/>
      <point x="550" y="378" type="line"/>
      <point x="408" y="120" type="line"/>
      <point x="269" y="377" type="line"/>
      <point x="215" y="488" type="line"/>
      <point x="211" y="488" type="line"/>
      <point x="211" y="0" type="line"/>
      <point x="80" y="0" type="line"/>
      <point x="80" y="698" type="line"/>
      <point x="232" y="698" type="line"/>
      <point x="408" y="362" type="line"/>
      <point x="412" y="362" type="line"/>
      <point x="587" y="698" type="line"/>
      <point x="737" y="698" type="line"/>
    </contour>
  </outline>
</glyph>
<glyph name="N" format="2">
  <advance width="721"/>
  <unicode hex="004E"/>
  <outline>
    <contour>
      <point x="641" y="0" type="line"/>
      <point x="488" y="0" type="line"/>
      <point x="285" y="349" type="line"/>
      <point x="214" y="491" type="line"/>
      <point x="211" y="491" type="line"/>
      <point x="211" y="0" type="line"/>
      <point x="80" y="0" type="line"/>
      <point x="80" y="698" type="line"/>
      <point x="233" y="698" type="line"/>
      <point x="436" y="349" type="line"/>
      <point x="506" y="207" type="line"/>
      <point x="509" y="207" type="line"/>
      <point x="509" y="698" type="line"/>
      <point x="641" y="698" type="line"/>
    </contour>
  </outline>
</glyph>
<glyph name="Q" format="2">
  <advance width="713"/>
  <unicode hex="0051"/>
  <outline>
    <contour>
      <point x="356" y="-12" type="qcurve" smooth="yes"/>
      <point x="287" y="-12"/>
      <point x="175" y="35"/>
      <point x="96" y="127"/>
      <point x="52" y="262"/>
      <point x="52" y="349" type="qcurve" smooth="yes"/>
      <point x="52" y="433"/>
      <point x="93" y="566"/>
      <point x="171" y="660"/>
      <point x="284" y="710"/>
      <point x="356" y="710" type="qcurve" smooth="yes"/>
      <point x="425" y="710"/>
      <point x="538" y="662"/>
      <point x="617" y="571"/>
      <point x="661" y="436"/>
      <point x="661" y="349" type="qcurve" smooth="yes"/>
      <point x="661" y="262"/>
      <point x="618" y="128"/>
      <point x="579" y="82" type="qcurve"/>
      <point x="574" y="77" type="line"/>
      <point x="574" y="77"/>
      <point x="574" y="77" type="qcurve"/>
      <point x="571" y="74" type="line"/>
      <point x="601" y="30"/>
      <point x="678" y="30" type="qcurve"/>
      <point x="678" y="-90" type="line"/>
      <point x="614" y="-90"/>
      <point x="524" y="-63"/>
      <point x="495" y="-38" type="qcurve" smooth="yes"/>
      <point x="473" y="-20"/>
      <point x="459" y="3" type="qcurve"/>
      <point x="412" y="-12"/>
    </contour>
    <contour>
      <point x="356" y="109" type="qcurve"/>
      <point x="434" y="112"/>
      <point x="516" y="207"/>
      <point x="516" y="296" type="qcurve" smooth="yes"/>
      <point x="516" y="382" type="line" smooth="yes"/>
      <point x="516" y="479"/>
      <point x="440" y="588"/>
      <point x="356" y="588" type="qcurve"/>
      <point x="278" y="586"/>
      <point x="197" y="491"/>
      <point x="197" y="402" type="qcurve" smooth="yes"/>
      <point x="197" y="316" type="line" smooth="yes"/>
      <point x="197" y="220"/>
      <point x="273" y="109"/>
    </contour>
  </outline>
</glyph>
<glyph name="R" format="2">
  <advance width="668"/>
  <unicode hex="0052"/>
  <outline>
    <contour>
      <point x="621" y="0" type="line"/>
      <point x="466" y="0" type="line"/>
      <point x="338" y="265" type="line"/>
      <point x="219" y="265" type="line"/>
      <point x="219" y="0" type="line"/>
      <point x="80" y="0" type="line"/>
      <point x="80" y="698" type="line"/>
      <point x="401" y="698" type="line" smooth="yes"/>
      <point x="500" y="698"/>
      <point x="609" y="574"/>
      <point x="609" y="479" type="qcurve" smooth="yes"/>
      <point x="609" y="329"/>
      <point x="479" y="281" type="qcurve"/>
    </contour>
    <contour>
      <point x="386" y="382" type="line" smooth="yes"/>
      <point x="465" y="382"/>
      <point x="465" y="457" type="qcurve" smooth="yes"/>
      <point x="465" y="502" type="line" smooth="yes"/>
      <point x="465" y="534"/>
      <point x="435" y="566"/>
      <point x="386" y="577"/>
      <point x="359" y="577" type="qcurve" smooth="yes"/>
      <point x="219" y="577" type="line"/>
      <point x="219" y="382" type="line"/>
    </contour>
  </outline>
</glyph>
<glyph name="V" format="2">
  <advance width="643"/>
  <unicode hex="0056"/>
  <outline>
    <contour>
      <point x="399" y="0" type="line"/>
      <point x="242" y="0" type="line"/>
      <point x="15" y="698" type="line"/>
      <point x="157" y="698" type="line"/>
      <point x="263" y="360" type="line"/>
      <point x="322" y="133" type="line"/>
      <point x="326" y="133" type="line"/>
      <point x="384" y="360" type="line"/>
      <point x="490" y="698" type="line"/>
      <point x="627" y="698" type="line"/>
    </contour>
  </outline>
</glyph>
<glyph name="Z" format="2">
  <advance width="602"/>
  <unicode hex="005A"/>
  <outline>
    <contour>
      <point x="563" y="0" type="line"/>
      <point x="38" y="0" type="line"/>
      <point x="38" y="124" type="line"/>
      <point x="395" y="575" type="line"/>
      <point x="56" y="575" type="line"/>
      <point x="56" y="698" type="line"/>
      <point x="554" y="698" type="line"/>
      <point x="554" y="574" type="line"/>
      <point x="197" y="123" type="line"/>
      <point x="563" y="123" type="line"/>
    </contour>
  </outline>
</glyph>
<glyph name="bracketleft" format="2">
  <advance width="331"/>
  <unicode hex="005B"/>
  <outline>
    <contour>
      <point x="279" y="-138" type="line"/>
      <point x="80" y="-138" type="line"/>
      <point x="80" y="760" type="line"/>
      <point x="279" y="760" type="line"/>
      <point x="279" y="664" type="line"/>
      <point x="204" y="664" type="line"/>
      <point x="204" y="-42" type="line"/>
      <point x="279" y="-42" type="line"/>
    </contour>
  </outline>
</glyph>
<glyph name="backslash" format="2">
  <advance width="446"/>
  <unicode hex="005C"/>
  <outline>
    <contour>
      <point x="441" y="-151" type="line"/>
      <point x="328" y="-151" type="line"/>
      <point x="37" y="740" type="line"/>
      <point x="150" y="740" type="line"/>
    </contour>
  </outline>
</glyph>
<glyph name="bracketright" format="2">
  <advance width="331"/>
  <unicode hex="005D"/>
  <outline>
    <contour>
      <point x="251" y="-138" type="line"/>
      <point x="52" y="-138" type="line"/>
      <point x="52" y="-42" type="line"/>
      <point x="127" y="-42" type="line"/>
      <point x="127" y="664" type="line"/>
      <point x="52" y="664" type="line"/>
      <point x="52" y="760" type="line"/>
      <point x="251" y="760" type="line"/>
    </contour>
  </outline>
</glyph>
<glyph name="asciicircum" format="2">
  <advance width="600"/>
  <unicode hex="005E"/>
  <outline>
    <contour>
      <point x="449" y="281" type="line"/>
      <point x="300" y="554" type="line"/>
      <point x="294" y="554" type="line"/>
      <point x="146" y="281" type="line"/>
      <point x="44" y="333" type="line"/>
      <point x="245" y="698" type="line"/>
      <point x="358" y="698" type="line"/>
      <point x="557" y="333" type="line"/>
    </contour>
  </outline>
</glyph>
<glyph name="underscore" format="2">
  <advance width="558"/>
  <unicode hex="005F"/>
  <outline>
    <contour>
      <point x="528" y="-185" type="line"/>
      <point x="30" y="-185" type="line"/>
      <point x="30" y="-72" type="line"/>
      <point x="528" y="-72" type="line"/>
    </contour>
  </outline>
</glyph>
<glyph name="grave" format="2">
  <advance width="600"/>
  <unicode hex="0060"/>
  <outline>
    <contour>
      <point x="286" y="580" type="line"/>
      <point x="157" y="753" type="line"/>
      <point x="271" y="809" type="line"/>
      <point x="367" y="620" type="line"/>
    </contour>
  </outline>
</glyph>
<glyph name="a" format="2">
  <advance width="548"/>
  <unicode hex="0061"/>
  <outline>
    <contour>
      <point x="201" y="-12" type="qcurve"/>
      <point x="117" y="-12"/>
      <point x="36" y="75"/>
      <point x="36" y="142" type="qcurve"/>
      <point x="36" y="227"/>
      <point x="158" y="303"/>
      <point x="260" y="303" type="qcurve"/>
      <point x="347" y="303" type="line"/>
      <point x="347" y="340" type="line"/>
      <point x="347" y="428"/>
      <point x="253" y="428" type="qcurve"/>
      <point x="209" y="428"/>
      <point x="155" y="392"/>
      <point x="136" y="363" type="qcurve"/>
      <point x="56" y="435" type="line"/>
      <point x="117" y="535"/>
      <point x="263" y="535" type="qcurve"/>
      <point x="482" y="535"/>
      <point x="482" y="347" type="qcurve"/>
      <point x="482" y="0" type="line"/>
      <point x="360" y="0" type="line"/>
      <point x="360" y="90" type="line"/>
      <point x="354" y="90" type="line"/>
      <point x="337" y="35"/>
      <point x="255" y="-12"/>
    </contour>
    <contour>
      <point x="248" y="84" type="qcurve"/>
      <point x="285" y="84"/>
      <point x="347" y="115"/>
      <point x="347" y="157" type="qcurve"/>
      <point x="347" y="224" type="line"/>
      <point x="277" y="224" type="line"/>
      <point x="172" y="224"/>
      <point x="172" y="164" type="qcurve"/>
      <point x="172" y="145" type="line"/>
      <point x="172" y="84"/>
    </contour>
  </outline>
</glyph>
<glyph name="f" format="2">
  <advance width="354"/>
  <unicode hex="0066"/>
  <outline>
    <contour>
      <point x="233" y="0" type="line"/>
      <point x="98" y="0" type="line"/>
      <point x="98" y="417" type="line"/>
      <point x="23" y="417" type="line"/>
      <point x="23" y="523" type="line"/>
      <point x="98" y="523" type="line"/>
      <point x="98" y="593" type="line"/>
      <point x="98" y="661"/>
      <point x="169" y="740"/>
      <point x="247" y="740" type="qcurve"/>
      <point x="340" y="740" type="line"/>
      <point x="340" y="634" type="line"/>
      <point x="233" y="634" type="line"/>
      <point x="233" y="523" type="line"/>
      <point x="340" y="523" type="line"/>
      <point x="340" y="417" type="line"/>
      <point x="233" y="417" type="line"/>
    </contour>
  </outline>
</glyph>
<glyph name="k" format="2">
  <advance width="567"/>
  <unicode hex="006B"/>
  <outline>
    <contour>
      <point x="564" y="0" type="line"/>
      <point x="403" y="0" type="line"/>
      <point x="275" y="231" type="line"/>
      <point x="207" y="155" type="line"/>
      <point x="207" y="0" type="line"/>
      <point x="72" y="0" type="line"/>
      <point x="72" y="740" type="line"/>
      <point x="207" y="740" type="line"/>
      <point x="207" y="297" type="line"/>
      <point x="213" y="297" type="line"/>
      <point x="280" y="393" type="line"/>
      <point x="392" y="523" type="line"/>
      <point x="543" y="523" type="line"/>
      <point x="366" y="322" type="line"/>
    </contour>
  </outline>
</glyph>
<glyph name="l" format="2">
  <advance width="297"/>
  <unicode hex="006C"/>
  <outline>
    <contour>
      <point x="275" y="0" type="line"/>
      <point x="207" y="0" type="line"/>
      <point x="72" y="0"/>
      <point x="72" y="132" type="qcurve"/>
      <point x="72" y="740" type="line"/>
      <point x="207" y="740" type="line"/>
      <point x="207" y="106" type="line"/>
      <point x="275" y="106" type="line"/>
    </contour>
  </outline>
</glyph>
<glyph name="m" format="2">
  <advance width="890"/>
  <unicode hex="006D"/>
  <outline>
    <contour>
      <point x="824" y="0" type="line"/>
      <point x="689" y="0" type="line"/>
      <point x="689" y="317" type="line"/>
      <point x="689" y="422"/>
      <point x="609" y="424" type="qcurve"/>
      <point x="574" y="424"/>
      <point x="515" y="388"/>
      <point x="515" y="343" type="qcurve"/>
      <point x="515" y="0" type="line"/>
      <point x="380" y="0" type="line"/>
      <point x="380" y="317" type="line"/>
      <point x="380" y="424"/>
      <point x="301" y="424" type="qcurve"/>
      <point x="265" y="424"/>
      <point x="207" y="384"/>
      <point x="207" y="343" type="qcurve"/>
      <point x="207" y="0" type="line"/>
      <point x="72" y="0" type="line"/>
      <point x="72" y="523" type="line"/>
      <point x="207" y="523" type="line"/>
      <point x="207" y="435" type="line"/>
      <point x="213" y="435" type="line"/>
      <point x="246" y="535"/>
      <point x="353" y="535" type="qcurve"/>
      <point x="461" y="535"/>
      <point x="502" y="429" type="qcurve"/>
      <point x="505" y="429" type="line"/>
      <point x="518" y="473"/>
      <point x="598" y="535"/>
      <point x="664" y="535" type="qcurve"/>
      <point x="748" y="535"/>
      <point x="824" y="420"/>
      <point x="824" y="329" type="qcurve"/>
    </contour>
  </outline>
</glyph>
<glyph name="r" format="2">
  <advance width="397"/>
  <unicode hex="0072"/>
  <outline>
    <contour>
      <point x="207" y="0" type="line"/>
      <point x="72" y="0" type="line"/>
      <point x="72" y="523" type="line"/>
      <point x="207" y="523" type="line"/>
      <point x="207" y="414" type="line"/>
      <point x="212" y="414" type="line"/>
      <point x="219" y="457"/>
      <point x="286" y="523"/>
      <point x="349" y="523" type="qcurve"/>
      <point x="376" y="523" type="line"/>
      <point x="376" y="396" type="line"/>
      <point x="337" y="396" type="line"/>
      <point x="271" y="396"/>
      <point x="207" y="360"/>
      <point x="207" y="315" type="qcurve"/>
    </contour>
  </outline>
</glyph>
<glyph name="t" format="2">
  <advance width="377"/>
  <unicode hex="0074"/>
  <outline>
    <contour>
      <point x="333" y="0" type="line"/>
      <point x="243" y="0" type="line" smooth="yes"/>
      <point x="168" y="0"/>
      <point x="100" y="76"/>
      <point x="100" y="140" type="qcurve" smooth="yes"/>
      <point x="100" y="417" type="line"/>
      <point x="24" y="417" type="line"/>
      <point x="24" y="523" type="line"/>
      <point x="65" y="523" type="line" smooth="yes"/>
      <point x="114" y="523"/>
      <point x="114" y="572" type="qcurve" smooth="yes"/>
      <point x="114" y="665" type="line"/>
      <point x="235" y="665" type="line"/>
      <point x="235" y="523" type="line"/>
      <point x="341" y="523" type="line"/>
      <point x="341" y="417" type="line"/>
      <point x="235" y="417" type="line"/>
      <point x="235" y="106" type="line"/>
      <point x="333" y="106" type="line"/>
    </contour>
  </outline>
</glyph>
<glyph name="u" format="2">
  <advance width="591"/>
  <unicode hex="0075"/>
  <outline>
    <contour>
      <point x="232" y="-12" type="qcurve"/>
      <point x="172" y="-12"/>
      <point x="99" y="40"/>
      <point x="66" y="133"/>
      <point x="66" y="193" type="qcurve"/>
      <point x="66" y="523" type="line"/>
      <point x="201" y="523" type="line"/>
      <point x="201" y="206" type="line"/>
      <point x="201" y="99"/>
      <point x="285" y="99" type="qcurve"/>
      <point x="321" y="99"/>
      <point x="384" y="138"/>
      <point x="384" y="180" type="qcurve"/>
      <point x="384" y="523" type="line"/>
      <point x="519" y="523" type="line"/>
      <point x="519" y="0" type="line"/>
      <point x="384" y="0" type="line"/>
      <point x="384" y="87" type="line"/>
      <point x="379" y="87" type="line"/>
      <point x="349" y="-12"/>
    </contour>
  </outline>
</glyph>
<glyph name="v" format="2">
  <advance width="529"/>
  <unicode hex="0076"/>
  <outline>
    <contour>
      <point x="344" y="0" type="line"/>
      <point x="184" y="0" type="line"/>
      <point x="11" y="523" type="line"/>
      <point x="144" y="523" type="line"/>
      <point x="186" y="389" type="line" smooth="yes"/>
      <point x="208" y="321"/>
      <point x="220" y="279" type="qcurve" smooth="yes"/>
      <point x="264" y="116" type="line"/>
      <point x="271" y="116" type="line"/>
      <point x="292" y="191"/>
      <point x="332" y="341"/>
      <point x="366" y="444" type="qcurve" smooth="yes"/>
      <point x="391" y="523" type="line"/>
      <point x="519" y="523" type="line"/>
    </contour>
  </outline>
</glyph>
<glyph name="bar" format="2">
  <advance width="386"/>
  <unicode hex="007C"/>
  <outline>
    <contour>
      <point x="250" y="-138" type="line"/>
      <point x="135" y="-138" type="line"/>
      <point x="135" y="760" type="line"/>
      <point x="250" y="760" type="line"/>
    </contour>
  </outline>
</glyph>
<glyph name="braceright" format="2">
  <advance width="367"/>
  <unicode hex="007D"/>
  <outline>
    <contour>
      <point x="156" y="-138" type="qcurve"/>
      <point x="52" y="-138" type="line"/>
      <point x="52" y="-42" type="line"/>
      <point x="126" y="-42" type="line"/>
      <point x="126" y="181" type="line"/>
      <point x="126" y="222"/>
      <point x="178" y="295"/>
      <point x="229" y="309" type="qcurve"/>
      <point x="229" y="315" type="line"/>
      <point x="185" y="324"/>
      <point x="126" y="391"/>
      <point x="126" y="443" type="qcurve"/>
      <point x="126" y="664" type="line"/>
      <point x="52" y="664" type="line"/>
      <point x="52" y="760" type="line"/>
      <point x="156" y="760" type="line"/>
      <point x="194" y="760"/>
      <point x="250" y="712"/>
      <point x="250" y="663" type="qcurve"/>
      <point x="250" y="453" type="line"/>
      <point x="250" y="404"/>
      <point x="309" y="365"/>
      <point x="347" y="365" type="qcurve"/>
      <point x="347" y="258" type="line"/>
      <point x="309" y="258"/>
      <point x="250" y="218"/>
      <point x="250" y="169" type="qcurve"/>
      <point x="250" y="-41" type="line"/>
      <point x="250" y="-91"/>
      <point x="193" y="-138"/>
    </contour>
  </outline>
</glyph>
<glyph name="asciitilde" format="2">
  <advance width="600"/>
  <unicode hex="007E"/>
  <outline>
    <contour>
      <point x="417" y="217" type="qcurve"/>
      <point x="378" y="217"/>
      <point x="309" y="242"/>
      <point x="276" y="257" type="qcurve"/>
      <point x="250" y="270"/>
      <point x="223" y="280" type="qcurve"/>
      <point x="202" y="286"/>
      <point x="179" y="286" type="qcurve"/>
      <point x="134" y="286"/>
      <point x="100" y="258" type="qcurve"/>
      <point x="55" y="334" type="line"/>
      <point x="95" y="395"/>
      <point x="183" y="395" type="qcurve"/>
      <point x="220" y="395"/>
      <point x="281" y="373"/>
      <point x="335" y="346"/>
      <point x="390" y="326"/>
      <point x="421" y="326" type="qcurve"/>
      <point x="445" y="326"/>
      <point x="480" y="339"/>
      <point x="500" y="354" type="qcurve"/>
      <point x="545" y="277" type="line"/>
      <point x="504" y="217"/>
    </contour>
  </outline>
</glyph>
<glyph name="exclamdown" format="2">
  <advance width="313"/>
  <unicode hex="00A1"/>
  <outline>
    <contour>
      <point x="228" y="-175" type="line"/>
      <point x="85" y="-175" type="line"/>
      <point x="85" y="21" type="line"/>
      <point x="127" y="310" type="line"/>
      <point x="185" y="310" type="line"/>
      <point x="228" y="21" type="line"/>
    </contour>
    <contour>
      <point x="156" y="368" type="qcurve"/>
      <point x="110" y="368"/>
      <point x="73" y="410"/>
      <point x="73" y="441" type="qcurve"/>
      <point x="73" y="463" type="line"/>
      <point x="73" y="535"/>
      <point x="156" y="535" type="qcurve"/>
      <point x="202" y="535"/>
      <point x="240" y="492"/>
      <point x="240" y="463" type="qcurve"/>
      <point x="240" y="441" type="line"/>
      <point x="240" y="368"/>
    </contour>
  </outline>
</glyph>
<glyph name="sterling" format="2">
  <advance width="584"/>
  <unicode hex="00A3"/>
  <outline>
    <contour>
      <point x="548" y="0" type="line"/>
      <point x="69" y="0" type="line"/>
      <point x="69" y="129" type="line"/>
      <point x="150" y="168"/>
      <point x="150" y="254" type="qcurve"/>
      <point x="150" y="275"/>
      <point x="146" y="290" type="qcurve"/>
      <point x="39" y="290" type="line"/>
      <point x="39" y="400" type="line"/>
      <point x="106" y="400" type="line"/>
      <point x="85" y="447"/>
      <point x="85" y="504" type="qcurve"/>
      <point x="85" y="572"/>
      <point x="151" y="663"/>
      <point x="263" y="710"/>
      <point x="332" y="710" type="qcurve"/>
      <point x="486" y="710"/>
      <point x="563" y="590" type="qcurve"/>
      <point x="462" y="519" type="line"/>
      <point x="413" y="590"/>
      <point x="334" y="590" type="qcurve"/>
      <point x="237" y="590"/>
      <point x="228" y="502" type="qcurve"/>
      <point x="226" y="495"/>
      <point x="226" y="488" type="qcurve"/>
      <point x="226" y="446"/>
      <point x="242" y="400" type="qcurve"/>
      <point x="442" y="400" type="line"/>
      <point x="442" y="290" type="line"/>
      <point x="283" y="290" type="line"/>
      <point x="285" y="276"/>
      <point x="285" y="260" type="qcurve"/>
      <point x="285" y="168"/>
      <point x="209" y="126" type="qcurve"/>
      <point x="209" y="118" type="line"/>
      <point x="548" y="118" type="line"/>
    </contour>
  </outline>
</glyph>
<glyph name="brokenbar" format="2">
  <advance width="386"/>
  <unicode hex="00A6"/>
  <outline>
    <contour>
      <point x="250" y="402" type="line"/>
      <point x="135" y="402" type="line"/>
      <point x="135" y="760" type="line"/>
      <point x="250" y="760" type="line"/>
    </contour>
    <contour>
      <point x="250" y="-138" type="line"/>
      <point x="135" y="-138" type="line"/>
      <point x="135" y="220" type="line"/>
      <point x="250" y="220" type="line"/>
    </contour>
  </outline>
</glyph>
<glyph name="section" format="2">
  <advance width="572"/>
  <unicode hex="00A7"/>
  <outline>
    <contour>
      <point x="272" y="-160" type="qcurve"/>
      <point x="155" y="-160"/>
      <point x="79" y="-91" type="qcurve"/>
      <point x="146" y="-9" type="line"/>
      <point x="196" y="-62"/>
      <point x="274" y="-62" type="qcurve"/>
      <point x="370" y="-59"/>
      <point x="370" y="6" type="qcurve"/>
      <point x="370" y="36"/>
      <point x="328" y="70"/>
      <point x="280" y="82" type="qcurve"/>
      <point x="205" y="103" type="line"/>
      <point x="55" y="146"/>
      <point x="55" y="252" type="qcurve"/>
      <point x="55" y="342"/>
      <point x="162" y="391" type="qcurve"/>
      <point x="162" y="406" type="line"/>
      <point x="86" y="455"/>
      <point x="86" y="543" type="qcurve"/>
      <point x="86" y="600"/>
      <point x="144" y="674"/>
      <point x="240" y="710"/>
      <point x="298" y="710" type="qcurve"/>
      <point x="416" y="710"/>
      <point x="493" y="641" type="qcurve"/>
      <point x="425" y="559" type="line"/>
      <point x="376" y="612"/>
      <point x="295" y="612" type="qcurve"/>
      <point x="201" y="612"/>
      <point x="201" y="547" type="qcurve"/>
      <point x="201" y="491"/>
      <point x="291" y="474" type="qcurve"/>
      <point x="365" y="453" type="line"/>
      <point x="517" y="407"/>
      <point x="517" y="303" type="qcurve"/>
      <point x="517" y="209"/>
      <point x="409" y="164" type="qcurve"/>
      <point x="409" y="150" type="line"/>
      <point x="485" y="100"/>
      <point x="485" y="11" type="qcurve"/>
      <point x="485" y="-74"/>
      <point x="362" y="-160"/>
    </contour>
    <contour>
      <point x="361" y="174" type="line"/>
      <point x="402" y="210"/>
      <point x="402" y="262" type="qcurve"/>
      <point x="402" y="298"/>
      <point x="353" y="340"/>
      <point x="296" y="356" type="qcurve"/>
      <point x="210" y="381" type="line"/>
      <point x="168" y="342"/>
      <point x="168" y="292" type="qcurve"/>
      <point x="168" y="231"/>
      <point x="255" y="205" type="qcurve"/>
      <point x="326" y="186"/>
      <point x="354" y="176" type="qcurve"/>
    </contour>
  </outline>
</glyph>
<glyph name="dieresis" format="2">
  <advance width="600"/>
  <unicode hex="00A8"/>
  <outline>
    <contour>
      <point x="193" y="603" type="qcurve"/>
      <point x="119" y="603"/>
      <point x="119" y="663" type="qcurve"/>
      <point x="119" y="686" type="line"/>
      <point x="119" y="745"/>
      <point x="193" y="745" type="qcurve"/>
      <point x="267" y="745"/>
      <point x="267" y="686" type="qcurve"/>
      <point x="267" y="663" type="line"/>
      <point x="267" y="603"/>
    </contour>
    <contour>
      <point x="407" y="603" type="qcurve"/>
      <point x="333" y="603"/>
      <point x="333" y="663" type="qcurve"/>
      <point x="333" y="686" type="line"/>
      <point x="333" y="745"/>
      <point x="407" y="745" type="qcurve"/>
      <point x="481" y="745"/>
      <point x="481" y="686" type="qcurve"/>
      <point x="481" y="663" type="line"/>
      <point x="481" y="603"/>
    </contour>
  </outline>
</glyph>
<glyph name="copyright" format="2">
  <advance width="789"/>
  <unicode hex="00A9"/>
  <outline>
    <contour>
      <point x="394" y="-12" type="qcurve" smooth="yes"/>
      <point x="280" y="-12"/>
      <point x="127" y="88"/>
      <point x="49" y="253"/>
      <point x="49" y="349" type="qcurve" smooth="yes"/>
      <point x="49" y="467"/>
      <point x="144" y="628"/>
      <point x="301" y="710"/>
      <point x="394" y="710" type="qcurve" smooth="yes"/>
      <point x="505" y="710"/>
      <point x="660" y="612"/>
      <point x="740" y="448"/>
      <point x="740" y="349" type="qcurve" smooth="yes"/>
      <point x="740" y="227"/>
      <point x="642" y="69"/>
      <point x="485" y="-12"/>
    </contour>
    <contour>
      <point x="394" y="51" type="qcurve" smooth="yes"/>
      <point x="515" y="51"/>
      <point x="667" y="203"/>
      <point x="667" y="316" type="qcurve" smooth="yes"/>
      <point x="667" y="382" type="line" smooth="yes"/>
      <point x="667" y="467"/>
      <point x="588" y="586"/>
      <point x="463" y="647"/>
      <point x="394" y="647" type="qcurve" smooth="yes"/>
      <point x="311" y="647"/>
      <point x="189" y="573"/>
      <point x="122" y="452"/>
      <point x="122" y="382" type="qcurve" smooth="yes"/>
      <point x="122" y="316" type="line" smooth="yes"/>
      <point x="122" y="203"/>
      <point x="276" y="51"/>
    </contour>
    <contour>
      <point x="402" y="138" type="qcurve" smooth="yes"/>
      <point x="302" y="138"/>
      <point x="202" y="257"/>
      <point x="202" y="349" type="qcurve" smooth="yes"/>
      <point x="202" y="440"/>
      <point x="303" y="560"/>
      <point x="402" y="560" type="qcurve" smooth="yes"/>
      <point x="530" y="560"/>
      <point x="573" y="452" type="qcurve"/>
      <point x="482" y="407" type="line"/>
      <point x="461" y="465"/>
      <point x="402" y="465" type="qcurve" smooth="yes"/>
      <point x="364" y="465"/>
      <point x="327" y="420"/>
      <point x="327" y="387" type="qcurve" smooth="yes"/>
      <point x="327" y="310" type="line"/>
      <point x="329" y="276"/>
      <point x="365" y="233"/>
      <point x="402" y="233" type="qcurve" smooth="yes"/>
      <point x="461" y="233"/>
      <point x="489" y="291" type="qcurve"/>
      <point x="581" y="247" type="line"/>
      <point x="535" y="138"/>
    </contour>
  </outline>
</glyph>
<glyph name="ordfeminine" format="2">
  <advance width="419"/>
  <unicode hex="00AA"/>
  <outline>
    <contour>
      <point x="158" y="335" type="qcurve"/>
      <point x="109" y="335"/>
      <point x="45" y="386"/>
      <point x="45" y="442" type="qcurve"/>
      <point x="45" y="551"/>
      <point x="199" y="551" type="qcurve"/>
      <point x="262" y="551" type="line"/>
      <point x="262" y="571" type="line"/>
      <point x="262" y="634"/>
      <point x="208" y="634" type="qcurve"/>
      <point x="187" y="634"/>
      <point x="167" y="622" type="qcurve"/>
      <point x="156" y="623" type="line"/>
      <point x="122" y="623"/>
      <point x="101" y="599" type="qcurve"/>
      <point x="55" y="639" type="line"/>
      <point x="96" y="710"/>
      <point x="207" y="710" type="qcurve"/>
      <point x="273" y="710"/>
      <point x="358" y="646"/>
      <point x="358" y="575" type="qcurve"/>
      <point x="358" y="343" type="line"/>
      <point x="270" y="343" type="line"/>
      <point x="270" y="405" type="line"/>
      <point x="266" y="405" type="line"/>
      <point x="243" y="335"/>
    </contour>
    <contour>
      <point x="193" y="400" type="qcurve"/>
      <point x="217" y="400"/>
      <point x="262" y="424"/>
      <point x="262" y="455" type="qcurve"/>
      <point x="262" y="497" type="line"/>
      <point x="212" y="497" type="line"/>
      <point x="165" y="497"/>
      <point x="139" y="470"/>
      <point x="139" y="440" type="qcurve"/>
      <point x="139" y="400"/>
    </contour>
  </outline>
</glyph>
<glyph name="guillemetleft" format="2">
  <advance width="549"/>
  <unicode hex="00AB"/>
  <outline>
    <contour>
      <point x="225" y="55" type="line"/>
      <point x="38" y="216" type="line"/>
      <point x="38" y="333" type="line"/>
      <point x="225" y="494" type="line"/>
      <point x="264" y="409" type="line"/>
      <point x="141" y="274" type="line"/>
      <point x="264" y="140" type="line"/>
    </contour>
    <contour>
      <point x="460" y="55" type="line"/>
      <point x="273" y="216" type="line"/>
      <point x="273" y="333" type="line"/>
      <point x="460" y="494" type="line"/>
      <point x="499" y="409" type="line"/>
      <point x="376" y="274" type="line"/>
      <point x="499" y="140" type="line"/>
    </contour>
  </outline>
</glyph>
<glyph name="logicalnot" format="2">
  <advance width="605"/>
  <unicode hex="00AC"/>
  <outline>
    <contour>
      <point x="538" y="78" type="line"/>
      <point x="427" y="78" type="line"/>
      <point x="427" y="252" type="line"/>
      <point x="55" y="252" type="line"/>
      <point x="55" y="360" type="line"/>
      <point x="538" y="360" type="line"/>
    </contour>
  </outline>
</glyph>
<glyph name="uni00AD" format="2">
  <advance width="402"/>
  <unicode hex="00AD"/>
  <outline>
    <contour>
      <point x="346" y="238" type="line"/>
      <point x="56" y="238" type="line"/>
      <point x="56" y="371" type="line"/>
      <point x="346" y="371" type="line"/>
    </contour>
  </outline>
</glyph>
<glyph name="acute" format="2">
  <advance width="600"/>
  <unicode hex="00B4"/>
  <outline>
    <contour>
      <point x="314" y="580" type="line"/>
      <point x="233" y="620" type="line"/>
      <point x="329" y="809" type="line"/>
      <point x="443" y="753" type="line"/>
    </contour>
  </outline>
</glyph>
<glyph name="paragraph" format="2">
  <advance width="672"/>
  <unicode hex="00B6"/>
  <outline>
    <contour>
      <point x="548" y="-149" type="line"/>
      <point x="445" y="-149" type="line"/>
      <point x="445" y="599" type="line"/>
      <point x="345" y="599" type="line"/>
      <point x="345" y="-149" type="line"/>
      <point x="243" y="-149" type="line"/>
      <point x="243" y="267" type="line"/>
      <point x="153" y="267"/>
      <point x="35" y="398"/>
      <point x="35" y="483" type="qcurve"/>
      <point x="35" y="539"/>
      <point x="88" y="637"/>
      <point x="182" y="698"/>
      <point x="243" y="698" type="qcurve"/>
      <point x="614" y="698" type="line"/>
      <point x="614" y="599" type="line"/>
      <point x="548" y="599" type="line"/>
    </contour>
  </outline>
</glyph>
<glyph name="periodcentered" format="2">
  <advance width="357"/>
  <unicode hex="00B7"/>
  <outline>
    <contour>
      <point x="179" y="217" type="qcurve"/>
      <point x="132" y="217"/>
      <point x="93" y="261"/>
      <point x="93" y="293" type="qcurve"/>
      <point x="93" y="314" type="line"/>
      <point x="93" y="344"/>
      <point x="131" y="390"/>
      <point x="179" y="390" type="qcurve"/>
      <point x="225" y="390"/>
      <point x="264" y="346"/>
      <point x="264" y="314" type="qcurve"/>
      <point x="264" y="293" type="line"/>
      <point x="264" y="262"/>
      <point x="226" y="217"/>
    </contour>
  </outline>
</glyph>
<glyph name="cedilla" format="2">
  <advance width="600"/>
  <unicode hex="00B8"/>
  <outline>
    <contour>
      <point x="314" y="-211" type="qcurve"/>
      <point x="229" y="-211"/>
      <point x="194" y="-168" type="qcurve"/>
      <point x="239" y="-114" type="line"/>
      <point x="262" y="-143"/>
      <point x="304" y="-143" type="qcurve"/>
      <point x="348" y="-143"/>
      <point x="348" y="-117" type="qcurve"/>
      <point x="348" y="-80"/>
      <point x="252" y="-75" type="qcurve"/>
      <point x="273" y="28" type="line"/>
      <point x="337" y="28" type="line"/>
      <point x="319" y="-56" type="line"/>
      <point x="323" y="-60" type="line"/>
      <point x="345" y="-53"/>
      <point x="370" y="-53" type="qcurve"/>
      <point x="398" y="-53"/>
      <point x="442" y="-83"/>
      <point x="442" y="-122" type="qcurve"/>
      <point x="442" y="-170"/>
      <point x="367" y="-211"/>
    </contour>
  </outline>
</glyph>
<glyph name="ordmasculine" format="2">
  <advance width="427"/>
  <unicode hex="00BA"/>
  <outline>
    <contour>
      <point x="214" y="334" type="qcurve"/>
      <point x="152" y="334"/>
      <point x="75" y="383"/>
      <point x="39" y="469"/>
      <point x="39" y="522" type="qcurve"/>
      <point x="39" y="575"/>
      <point x="75" y="660"/>
      <point x="152" y="710"/>
      <point x="214" y="710" type="qcurve"/>
      <point x="275" y="710"/>
      <point x="352" y="661"/>
      <point x="388" y="576"/>
      <point x="388" y="522" type="qcurve"/>
      <point x="388" y="440"/>
      <point x="302" y="334"/>
    </contour>
    <contour>
      <point x="214" y="407" type="qcurve"/>
      <point x="256" y="407"/>
      <point x="289" y="458"/>
      <point x="289" y="502" type="qcurve"/>
      <point x="289" y="551" type="line"/>
      <point x="289" y="629"/>
      <point x="224" y="636" type="qcurve"/>
      <point x="213" y="637" type="line"/>
      <point x="172" y="633"/>
      <point x="139" y="588"/>
      <point x="139" y="542" type="qcurve"/>
      <point x="139" y="493" type="line"/>
      <point x="139" y="407"/>
    </contour>
  </outline>
</glyph>
<glyph name="guillemetright" format="2">
  <advance width="549"/>
  <unicode hex="00BB"/>
  <outline>
    <contour>
      <point x="90" y="55" type="line"/>
      <point x="50" y="140" type="line"/>
      <point x="173" y="274" type="line"/>
      <point x="50" y="409" type="line"/>
      <point x="90" y="494" type="line"/>
      <point x="277" y="333" type="line"/>
      <point x="277" y="216" type="line"/>
    </contour>
    <contour>
      <point x="325" y="55" type="line"/>
      <point x="285" y="140" type="line"/>
      <point x="408" y="274" type="line"/>
      <point x="285" y="409" type="line"/>
      <point x="325" y="494" type="line"/>
      <point x="512" y="333" type="line"/>
      <point x="512" y="216" type="line"/>
    </contour>
  </outline>
</glyph>
<glyph name="onequarter" format="2">
  <advance width="790"/>
  <unicode hex="00BC"/>
  <outline>
    <contour>
      <point x="177" y="0" type="line"/>
      <point x="75" y="0" type="line"/>
      <point x="596" y="698" type="line"/>
      <point x="697" y="698" type="line"/>
    </contour>
    <contour>
      <point x="240" y="329" type="line"/>
      <point x="146" y="329" type="line"/>
      <point x="146" y="613" type="line"/>
      <point x="66" y="576" type="line"/>
      <point x="66" y="661" type="line"/>
      <point x="141" y="698" type="line"/>
      <point x="240" y="698" type="line"/>
    </contour>
    <contour>
      <point x="723" y="0" type="line"/>
      <point x="632" y="0" type="line"/>
      <point x="632" y="70" type="line"/>
      <point x="462" y="70" type="line"/>
      <point x="462" y="149" type="line"/>
      <point x="614" y="369" type="line"/>
      <point x="723" y="369" type="line"/>
      <point x="723" y="141" type="line"/>
      <point x="771" y="141" type="line"/>
      <point x="771" y="70" type="line"/>
      <point x="723" y="70" type="line"/>
    </contour>
    <contour>
      <point x="632" y="141" type="line"/>
      <point x="632" y="269" type="line"/>
      <point x="626" y="269" type="line"/>
      <point x="536" y="141" type="line"/>
    </contour>
  </outline>
</glyph>
<glyph name="onehalf" format="2">
  <advance width="806"/>
  <unicode hex="00BD"/>
  <outline>
    <contour>
      <point x="779" y="0" type="line"/>
      <point x="493" y="0" type="line"/>
      <point x="493" y="82" type="line"/>
      <point x="606" y="169" type="line"/>
      <point x="644" y="196"/>
      <point x="672" y="233"/>
      <point x="672" y="257" type="qcurve"/>
      <point x="672" y="295"/>
      <point x="622" y="295" type="qcurve"/>
      <point x="582" y="295"/>
      <point x="566" y="248" type="qcurve"/>
      <point x="483" y="279" type="line"/>
      <point x="494" y="319"/>
      <point x="567" y="375"/>
      <point x="634" y="375" type="qcurve"/>
      <point x="706" y="375"/>
      <point x="773" y="309"/>
      <point x="773" y="262" type="qcurve"/>
      <point x="773" y="177"/>
      <point x="664" y="118" type="qcurve"/>
      <point x="597" y="77" type="line"/>
      <point x="779" y="77" type="line"/>
    </contour>
    <contour>
      <point x="172" y="0" type="line"/>
      <point x="70" y="0" type="line"/>
      <point x="591" y="698" type="line"/>
      <point x="692" y="698" type="line"/>
    </contour>
    <contour>
      <point x="240" y="329" type="line"/>
      <point x="146" y="329" type="line"/>
      <point x="146" y="613" type="line"/>
      <point x="66" y="576" type="line"/>
      <point x="66" y="661" type="line"/>
      <point x="141" y="698" type="line"/>
      <point x="240" y="698" type="line"/>
    </contour>
  </outline>
</glyph>
<glyph name="questiondown" format="2">
  <advance width="489"/>
  <unicode hex="00BF"/>
  <outline>
    <contour>
      <point x="256" y="-187" type="qcurve"/>
      <point x="147" y="-187"/>
      <point x="29" y="-69"/>
      <point x="29" y="16" type="qcurve"/>
      <point x="29" y="75"/>
      <point x="80" y="159"/>
      <point x="161" y="208"/>
      <point x="206" y="216" type="qcurve"/>
      <point x="206" y="295" type="line"/>
      <point x="334" y="295" type="line"/>
      <point x="334" y="140" type="line"/>
      <point x="172" y="137"/>
      <point x="172" y="28" type="qcurve"/>
      <point x="172" y="1"/>
      <point x="181" y="-34"/>
      <point x="196" y="-48" type="qcurve"/>
      <point x="220" y="-71"/>
      <point x="261" y="-71" type="qcurve"/>
      <point x="307" y="-71"/>
      <point x="358" y="-18"/>
      <point x="367" y="20" type="qcurve"/>
      <point x="480" y="-26" type="line"/>
      <point x="453" y="-111"/>
      <point x="329" y="-187"/>
    </contour>
    <contour>
      <point x="268" y="368" type="qcurve"/>
      <point x="222" y="368"/>
      <point x="184" y="411"/>
      <point x="184" y="441" type="qcurve"/>
      <point x="184" y="463" type="line"/>
      <point x="184" y="535"/>
      <point x="268" y="535" type="qcurve"/>
      <point x="314" y="535"/>
      <point x="352" y="492"/>
      <point x="352" y="463" type="qcurve"/>
      <point x="352" y="441" type="line"/>
      <point x="352" y="368"/>
    </contour>
  </outline>
</glyph>
<glyph name="Acircumflex" format="2">
  <advance width="677"/>
  <unicode hex="00C2"/>
  <outline>
    <contour>
      <point x="456" y="743" type="line"/>
      <point x="336" y="859" type="line"/>
      <point x="216" y="743" type="line"/>
      <point x="148" y="796" type="line"/>
      <point x="276" y="952" type="line"/>
      <point x="396" y="952" type="line"/>
      <point x="524" y="796" type="line"/>
    </contour>
    <contour>
      <point x="657" y="0" type="line"/>
      <point x="512" y="0" type="line"/>
      <point x="458" y="174" type="line"/>
      <point x="215" y="174" type="line"/>
      <point x="162" y="0" type="line"/>
      <point x="21" y="0" type="line"/>
      <point x="253" y="698" type="line"/>
      <point x="426" y="698" type="line"/>
    </contour>
    <contour>
      <point x="424" y="292" type="line"/>
      <point x="338" y="571" type="line"/>
      <point x="333" y="571" type="line"/>
      <point x="248" y="292" type="line"/>
    </contour>
  </outline>
</glyph>
<glyph name="Atilde" format="2">
  <advance width="677"/>
  <unicode hex="00C3"/>
  <outline>
    <contour>
      <point x="657" y="0" type="line"/>
      <point x="512" y="0" type="line"/>
      <point x="458" y="174" type="line"/>
      <point x="215" y="174" type="line"/>
      <point x="162" y="0" type="line"/>
      <point x="21" y="0" type="line"/>
      <point x="253" y="698" type="line"/>
      <point x="426" y="698" type="line"/>
    </contour>
    <contour>
      <point x="424" y="292" type="line"/>
      <point x="338" y="571" type="line"/>
      <point x="333" y="571" type="line"/>
      <point x="248" y="292" type="line"/>
    </contour>
    <contour>
      <point x="411" y="766" type="qcurve"/>
      <point x="388" y="766"/>
      <point x="371" y="771" type="qcurve"/>
      <point x="362" y="774"/>
      <point x="326" y="790" type="qcurve"/>
      <point x="306" y="799"/>
      <point x="276" y="809"/>
      <point x="257" y="809" type="qcurve"/>
      <point x="224" y="809"/>
      <point x="199" y="784" type="qcurve"/>
      <point x="150" y="847" type="line"/>
      <point x="189" y="909"/>
      <point x="261" y="909" type="qcurve"/>
      <point x="291" y="909"/>
      <point x="338" y="885"/>
      <point x="363" y="877" type="qcurve"/>
      <point x="390" y="865"/>
      <point x="415" y="865" type="qcurve"/>
      <point x="448" y="865"/>
      <point x="473" y="890" type="qcurve"/>
      <point x="522" y="828" type="line"/>
      <point x="484" y="766"/>
    </contour>
  </outline>
</glyph>
<glyph name="Ccedilla" format="2">
  <advance width="645"/>
  <unicode hex="00C7"/>
  <outline>
    <contour>
      <point x="348" y="-211" type="qcurve"/>
      <point x="264" y="-211"/>
      <point x="229" y="-168" type="qcurve"/>
      <point x="274" y="-114" type="line"/>
      <point x="295" y="-143"/>
      <point x="339" y="-143" type="qcurve"/>
      <point x="383" y="-143"/>
      <point x="383" y="-117" type="qcurve"/>
      <point x="383" y="-82"/>
      <point x="287" y="-75" type="qcurve"/>
      <point x="300" y="-8" type="line"/>
      <point x="185" y="8"/>
      <point x="52" y="181"/>
      <point x="52" y="346" type="qcurve"/>
      <point x="52" y="525"/>
      <point x="219" y="710"/>
      <point x="355" y="710" type="qcurve"/>
      <point x="450" y="710"/>
      <point x="575" y="629"/>
      <point x="612" y="548" type="qcurve"/>
      <point x="493" y="485" type="line"/>
      <point x="465" y="586"/>
      <point x="355" y="586" type="qcurve"/>
      <point x="289" y="586"/>
      <point x="199" y="501"/>
      <point x="199" y="404" type="qcurve"/>
      <point x="199" y="294" type="line"/>
      <point x="199" y="197"/>
      <point x="289" y="112"/>
      <point x="355" y="112" type="qcurve"/>
      <point x="464" y="112"/>
      <point x="502" y="220" type="qcurve"/>
      <point x="615" y="153" type="line"/>
      <point x="540" y="-8"/>
      <point x="363" y="-12" type="qcurve"/>
      <point x="354" y="-56" type="line"/>
      <point x="358" y="-60" type="line"/>
      <point x="379" y="-53"/>
      <point x="404" y="-53" type="qcurve"/>
      <point x="432" y="-53"/>
      <point x="476" y="-83"/>
      <point x="476" y="-122" type="qcurve"/>
      <point x="476" y="-171"/>
      <point x="400" y="-211"/>
    </contour>
  </outline>
</glyph>
<glyph name="Eacute" format="2">
  <advance width="602"/>
  <unicode hex="00C9"/>
  <outline>
    <contour>
      <point x="546" y="0" type="line"/>
      <point x="80" y="0" type="line"/>
      <point x="80" y="698" type="line"/>
      <point x="546" y="698" type="line"/>
      <point x="546" y="575" type="line"/>
      <point x="219" y="575" type="line"/>
      <point x="219" y="415" type="line"/>
      <point x="505" y="415" type="line"/>
      <point x="505" y="292" type="line"/>
      <point x="219" y="292" type="line"/>
      <point x="219" y="123" type="line"/>
      <point x="546" y="123" type="line"/>
    </contour>
    <contour>
      <point x="327" y="743" type="line"/>
      <point x="246" y="782" type="line"/>
      <point x="342" y="972" type="line"/>
      <point x="456" y="916" type="line"/>
    </contour>
  </outline>
</glyph>
<glyph name="Ecircumflex" format="2">
  <advance width="602"/>
  <unicode hex="00CA"/>
  <outline>
    <contour>
      <point x="546" y="0" type="line"/>
      <point x="80" y="0" type="line"/>
      <point x="80" y="698" type="line"/>
      <point x="546" y="698" type="line"/>
      <point x="546" y="575" type="line"/>
      <point x="219" y="575" type="line"/>
      <point x="219" y="415" type="line"/>
      <point x="505" y="415" type="line"/>
      <point x="505" y="292" type="line"/>
      <point x="219" y="292" type="line"/>
      <point x="219" y="123" type="line"/>
      <point x="546" y="123" type="line"/>
    </contour>
    <contour>
      <point x="433" y="743" type="line"/>
      <point x="313" y="859" type="line"/>
      <point x="193" y="743" type="line"/>
      <point x="125" y="796" type="line"/>
      <point x="253" y="952" type="line"/>
      <point x="373" y="952" type="line"/>
      <point x="501" y="796" type="line"/>
    </contour>
  </outline>
</glyph>
<glyph name="Eth" format="2">
  <advance width="697"/>
  <unicode hex="00D0"/>
  <outline>
    <contour>
      <point x="342" y="0" type="qcurve"/>
      <point x="85" y="0" type="line"/>
      <point x="85" y="305" type="line"/>
      <point x="9" y="305" type="line"/>
      <point x="9" y="409" type="line"/>
      <point x="85" y="409" type="line"/>
      <point x="85" y="698" type="line"/>
      <point x="342" y="698" type="line"/>
      <point x="446" y="698"/>
      <point x="580" y="609"/>
      <point x="645" y="452"/>
      <point x="645" y="349" type="qcurve"/>
      <point x="645" y="231"/>
      <point x="567" y="76"/>
      <point x="430" y="0"/>
    </contour>
    <contour>
      <point x="342" y="123" type="line"/>
      <point x="412" y="123"/>
      <point x="498" y="203"/>
      <point x="498" y="294" type="qcurve"/>
      <point x="498" y="404" type="line"/>
      <point x="498" y="495"/>
      <point x="412" y="575"/>
      <point x="342" y="575" type="qcurve"/>
      <point x="224" y="575" type="line"/>
      <point x="224" y="409" type="line"/>
      <point x="346" y="409" type="line"/>
      <point x="346" y="305" type="line"/>
      <point x="224" y="305" type="line"/>
      <point x="224" y="123" type="line"/>
    </contour>
  </outline>
</glyph>
<glyph name="Ntilde" format="2">
  <advance width="721"/>
  <unicode hex="00D1"/>
  <outline>
    <contour>
      <point x="641" y="0" type="line"/>
      <point x="488" y="0" type="line"/>
      <point x="276" y="362"/>
      <point x="251" y="416" type="qcurve"/>
      <point x="214" y="491" type="line"/>
      <point x="211" y="491" type="line"/>
      <point x="211" y="0" type="line"/>
      <point x="80" y="0" type="line"/>
      <point x="80" y="698" type="line"/>
      <point x="233" y="698" type="line"/>
      <point x="421" y="375" type="line"/>
      <point x="506" y="207" type="line"/>
      <point x="509" y="207" type="line"/>
      <point x="509" y="698" type="line"/>
      <point x="641" y="698" type="line"/>
    </contour>
    <contour>
      <point x="435" y="766" type="qcurve"/>
      <point x="414" y="766"/>
      <point x="384" y="775"/>
      <point x="368" y="782" type="qcurve"/>
      <point x="315" y="804" type="line"/>
      <point x="299" y="809"/>
      <point x="281" y="809" type="qcurve"/>
      <point x="246" y="809"/>
      <point x="222" y="784" type="qcurve"/>
      <point x="174" y="847" type="line"/>
      <point x="213" y="909"/>
      <point x="284" y="909" type="qcurve"/>
      <point x="315" y="909"/>
      <point x="339" y="897" type="qcurve"/>
      <point x="401" y="865"/>
      <point x="438" y="865" type="qcurve"/>
      <point x="471" y="865"/>
      <point x="497" y="890" type="qcurve"/>
      <point x="545" y="828" type="line"/>
      <point x="507" y="766"/>
    </contour>
  </outline>
</glyph>
<glyph name="multiply" format="2">
  <advance width="600"/>
  <unicode hex="00D7"/>
  <outline>
    <contour>
      <point x="443" y="75" type="line"/>
      <point x="300" y="224" type="line"/>
      <point x="157" y="75" type="line"/>
      <point x="81" y="151" type="line"/>
      <point x="224" y="300" type="line"/>
      <point x="81" y="449" type="line"/>
      <point x="157" y="525" type="line"/>
      <point x="300" y="376" type="line"/>
      <point x="443" y="525" type="line"/>
      <point x="519" y="449" type="line"/>
      <point x="376" y="300" type="line"/>
      <point x="519" y="151" type="line"/>
    </contour>
  </outline>
</glyph>
<glyph name="Udieresis" format="2">
  <advance width="691"/>
  <unicode hex="00DC"/>
  <outline>
    <contour>
      <point x="239" y="766" type="qcurve" smooth="yes"/>
      <point x="165" y="766"/>
      <point x="165" y="826" type="qcurve" smooth="yes"/>
      <point x="165" y="849" type="line" smooth="yes"/>
      <point x="165" y="907"/>
      <point x="239" y="909" type="qcurve"/>
      <point x="313" y="909"/>
      <point x="313" y="849" type="qcurve" smooth="yes"/>
      <point x="313" y="826" type="line" smooth="yes"/>
      <point x="313" y="766"/>
    </contour>
    <contour>
      <point x="452" y="766" type="qcurve" smooth="yes"/>
      <point x="378" y="766"/>
      <point x="378" y="826" type="qcurve" smooth="yes"/>
      <point x="378" y="849" type="line" smooth="yes"/>
      <point x="378" y="907"/>
      <point x="452" y="909" type="qcurve"/>
      <point x="524" y="909"/>
      <point x="527" y="849" type="qcurve"/>
      <point x="527" y="826" type="line" smooth="yes"/>
      <point x="527" y="766"/>
    </contour>
    <contour>
      <point x="346" y="-12" type="qcurve" smooth="yes"/>
      <point x="198" y="-12"/>
      <point x="76" y="131"/>
      <point x="76" y="286" type="qcurve" smooth="yes"/>
      <point x="76" y="698" type="line"/>
      <point x="212" y="698" type="line"/>
      <point x="212" y="269" type="line" smooth="yes"/>
      <point x="212" y="185"/>
      <point x="277" y="112"/>
      <point x="346" y="112" type="qcurve" smooth="yes"/>
      <point x="417" y="112"/>
      <point x="480" y="189"/>
      <point x="480" y="269" type="qcurve" smooth="yes"/>
      <point x="480" y="698" type="line"/>
      <point x="615" y="698" type="line"/>
      <point x="615" y="286" type="line" smooth="yes"/>
      <point x="615" y="122"/>
      <point x="485" y="-12"/>
    </contour>
  </outline>
</glyph>
<glyph name="Yacute" format="2">
  <advance width="638"/>
  <unicode hex="00DD"/>
  <outline>
    <contour>
      <point x="334" y="743" type="line"/>
      <point x="253" y="782" type="line"/>
      <point x="349" y="972" type="line"/>
      <point x="463" y="916" type="line"/>
    </contour>
    <contour>
      <point x="389" y="0" type="line"/>
      <point x="249" y="0" type="line"/>
      <point x="249" y="274" type="line"/>
      <point x="10" y="698" type="line"/>
      <point x="166" y="698" type="line"/>
      <point x="323" y="409" type="line"/>
      <point x="325" y="409" type="line"/>
      <point x="477" y="698" type="line"/>
      <point x="629" y="698" type="line"/>
      <point x="389" y="275" type="line"/>
    </contour>
  </outline>
</glyph>
<glyph name="aring" format="2">
  <advance width="548"/>
  <unicode hex="00E5"/>
  <outline>
    <contour>
      <point x="266" y="561" type="qcurve"/>
      <point x="203" y="561"/>
      <point x="124" y="642"/>
      <point x="124" y="699" type="qcurve"/>
      <point x="124" y="761"/>
      <point x="210" y="837"/>
      <point x="266" y="837" type="qcurve"/>
      <point x="322" y="837"/>
      <point x="408" y="761"/>
      <point x="408" y="699" type="qcurve"/>
      <point x="408" y="636"/>
      <point x="321" y="561"/>
    </contour>
    <contour>
      <point x="266" y="631" type="qcurve"/>
      <point x="318" y="634"/>
      <point x="318" y="683" type="qcurve"/>
      <point x="318" y="716" type="line"/>
      <point x="318" y="767"/>
      <point x="266" y="767" type="qcurve"/>
      <point x="214" y="764"/>
      <point x="214" y="715" type="qcurve"/>
      <point x="214" y="683" type="line"/>
      <point x="214" y="631"/>
    </contour>
    <contour>
      <point x="201" y="-12" type="qcurve"/>
      <point x="117" y="-12"/>
      <point x="36" y="75"/>
      <point x="36" y="142" type="qcurve"/>
      <point x="36" y="227"/>
      <point x="158" y="303"/>
      <point x="260" y="303" type="qcurve"/>
      <point x="347" y="303" type="line"/>
      <point x="347" y="340" type="line"/>
      <point x="347" y="428"/>
      <point x="253" y="428" type="qcurve"/>
      <point x="209" y="428"/>
      <point x="155" y="392"/>
      <point x="136" y="363" type="qcurve"/>
      <point x="56" y="435" type="line"/>
      <point x="117" y="535"/>
      <point x="263" y="535" type="qcurve"/>
      <point x="482" y="535"/>
      <point x="482" y="347" type="qcurve"/>
      <point x="482" y="0" type="line"/>
      <point x="360" y="0" type="line"/>
      <point x="360" y="90" type="line"/>
      <point x="354" y="90" type="line"/>
      <point x="337" y="35"/>
      <point x="255" y="-12"/>
    </contour>
    <contour>
      <point x="248" y="84" type="qcurve"/>
      <point x="285" y="84"/>
      <point x="347" y="115"/>
      <point x="347" y="157" type="qcurve"/>
      <point x="347" y="224" type="line"/>
      <point x="277" y="224" type="line"/>
      <point x="172" y="224"/>
      <point x="172" y="164" type="qcurve"/>
      <point x="172" y="145" type="line"/>
      <point x="172" y="84"/>
    </contour>
  </outline>
</glyph>
<glyph name="ccedilla" format="2">
  <advance width="515"/>
  <unicode hex="00E7"/>
  <outline>
    <contour>
      <point x="278" y="-211" type="qcurve" smooth="yes"/>
      <point x="193" y="-211"/>
      <point x="158" y="-168" type="qcurve"/>
      <point x="203" y="-114" type="line"/>
      <point x="226" y="-143"/>
      <point x="268" y="-143" type="qcurve" smooth="yes"/>
      <point x="312" y="-143"/>
      <point x="312" y="-117" type="qcurve" smooth="yes"/>
      <point x="312" y="-82"/>
      <point x="216" y="-75" type="qcurve"/>
      <point x="230" y="-8" type="line"/>
      <point x="128" y="13"/>
      <point x="38" y="160"/>
      <point x="38" y="262" type="qcurve" smooth="yes"/>
      <point x="38" y="341"/>
      <point x="91" y="464"/>
      <point x="199" y="535"/>
      <point x="280" y="535" type="qcurve" smooth="yes"/>
      <point x="438" y="535"/>
      <point x="487" y="401" type="qcurve"/>
      <point x="377" y="353" type="line"/>
      <point x="360" y="427"/>
      <point x="280" y="427" type="qcurve" smooth="yes"/>
      <point x="179" y="427"/>
      <point x="179" y="296" type="qcurve" smooth="yes"/>
      <point x="179" y="213" type="line" smooth="yes"/>
      <point x="179" y="163"/>
      <point x="225" y="95"/>
      <point x="280" y="95" type="qcurve" smooth="yes"/>
      <point x="327" y="95"/>
      <point x="373" y="138"/>
      <point x="386" y="177" type="qcurve"/>
      <point x="491" y="129" type="line"/>
      <point x="437" y="-8"/>
      <point x="293" y="-12" type="qcurve"/>
      <point x="284" y="-56" type="line"/>
      <point x="287" y="-60" type="line"/>
      <point x="309" y="-53"/>
      <point x="334" y="-53" type="qcurve" smooth="yes"/>
      <point x="406" y="-53"/>
      <point x="406" y="-122" type="qcurve" smooth="yes"/>
      <point x="406" y="-170"/>
      <point x="331" y="-211"/>
    </contour>
  </outline>
</glyph>
<glyph name="igrave" format="2">
  <advance width="279"/>
  <unicode hex="00EC"/>
  <outline>
    <contour>
      <point x="126" y="580" type="line"/>
      <point x="-2" y="753" type="line"/>
      <point x="111" y="809" type="line"/>
      <point x="208" y="620" type="line"/>
    </contour>
    <contour>
      <point x="207" y="0" type="line"/>
      <point x="72" y="0" type="line"/>
      <point x="72" y="523" type="line"/>
      <point x="207" y="523" type="line"/>
    </contour>
  </outline>
</glyph>
<glyph name="iacute" format="2">
  <advance width="279"/>
  <unicode hex="00ED"/>
  <outline>
    <contour>
      <point x="207" y="0" type="line"/>
      <point x="72" y="0" type="line"/>
      <point x="72" y="523" type="line"/>
      <point x="207" y="523" type="line"/>
    </contour>
    <contour>
      <point x="155" y="580" type="line"/>
      <point x="74" y="620" type="line"/>
      <point x="170" y="809" type="line"/>
      <point x="284" y="753" type="line"/>
    </contour>
  </outline>
</glyph>
<glyph name="icircumflex" format="2">
  <advance width="279"/>
  <unicode hex="00EE"/>
  <outline>
    <contour>
      <point x="207" y="0" type="line"/>
      <point x="72" y="0" type="line"/>
      <point x="72" y="523" type="line"/>
      <point x="207" y="523" type="line"/>
    </contour>
    <contour>
      <point x="261" y="580" type="line"/>
      <point x="141" y="696" type="line"/>
      <point x="20" y="580" type="line"/>
      <point x="-47" y="633" type="line"/>
      <point x="81" y="789" type="line"/>
      <point x="200" y="789" type="line"/>
      <point x="328" y="633" type="line"/>
    </contour>
  </outline>
</glyph>
<glyph name="eth" format="2">
  <advance width="593"/>
  <unicode hex="00F0"/>
  <outline>
    <contour>
      <point x="296" y="-12" type="qcurve"/>
      <point x="212" y="-12"/>
      <point x="99" y="57"/>
      <point x="42" y="176"/>
      <point x="42" y="252" type="qcurve"/>
      <point x="42" y="322"/>
      <point x="88" y="435"/>
      <point x="179" y="501"/>
      <point x="246" y="501" type="qcurve"/>
      <point x="350" y="501"/>
      <point x="397" y="403" type="qcurve"/>
      <point x="403" y="406" type="line"/>
      <point x="376" y="504"/>
      <point x="288" y="587" type="qcurve"/>
      <point x="201" y="534" type="line"/>
      <point x="154" y="590" type="line"/>
      <point x="232" y="638" type="line"/>
      <point x="159" y="696"/>
      <point x="78" y="740" type="qcurve"/>
      <point x="285" y="740" type="line"/>
      <point x="301" y="730"/>
      <point x="337" y="702" type="qcurve"/>
      <point x="420" y="753" type="line"/>
      <point x="467" y="697" type="line"/>
      <point x="393" y="650" type="line"/>
      <point x="545" y="495"/>
      <point x="545" y="277" type="qcurve"/>
      <point x="545" y="176"/>
      <point x="481" y="48"/>
      <point x="368" y="-12"/>
    </contour>
    <contour>
      <point x="294" y="90" type="qcurve"/>
      <point x="351" y="90"/>
      <point x="405" y="160"/>
      <point x="405" y="215" type="qcurve"/>
      <point x="405" y="272" type="line"/>
      <point x="405" y="336"/>
      <point x="343" y="397"/>
      <point x="294" y="397" type="qcurve"/>
      <point x="234" y="397"/>
      <point x="182" y="326"/>
      <point x="182" y="272" type="qcurve"/>
      <point x="182" y="215" type="line"/>
      <point x="182" y="161"/>
      <point x="234" y="90"/>
    </contour>
  </outline>
</glyph>
<glyph name="oslash" format="2">
  <advance width="571"/>
  <unicode hex="00F8"/>
  <outline>
    <contour>
      <point x="91" y="-48" type="line"/>
      <point x="18" y="7" type="line"/>
      <point x="85" y="90" type="line"/>
      <point x="42" y="157"/>
      <point x="42" y="262" type="qcurve"/>
      <point x="42" y="392"/>
      <point x="177" y="535"/>
      <point x="286" y="535" type="qcurve"/>
      <point x="361" y="535"/>
      <point x="420" y="499" type="qcurve"/>
      <point x="480" y="571" type="line"/>
      <point x="553" y="516" type="line"/>
      <point x="485" y="432" type="line"/>
      <point x="529" y="367"/>
      <point x="529" y="261" type="qcurve"/>
      <point x="529" y="182"/>
      <point x="474" y="59"/>
      <point x="366" y="-12"/>
      <point x="286" y="-12" type="qcurve"/>
      <point x="207" y="-12"/>
      <point x="152" y="24" type="qcurve"/>
    </contour>
    <contour>
      <point x="286" y="89" type="qcurve"/>
      <point x="333" y="89"/>
      <point x="392" y="153"/>
      <point x="392" y="215" type="qcurve"/>
      <point x="392" y="304" type="line"/>
      <point x="392" y="314"/>
      <point x="390" y="325" type="qcurve"/>
      <point x="215" y="114" type="line"/>
      <point x="241" y="89"/>
    </contour>
    <contour>
      <point x="181" y="199" type="qcurve"/>
      <point x="355" y="409" type="line"/>
      <point x="329" y="434"/>
      <point x="286" y="434" type="qcurve"/>
      <point x="231" y="434"/>
      <point x="179" y="361"/>
      <point x="179" y="308" type="qcurve"/>
      <point x="179" y="216"/>
    </contour>
  </outline>
</glyph>
<glyph name="udieresis" format="2">
  <advance width="591"/>
  <unicode hex="00FC"/>
  <outline>
    <contour>
      <point x="232" y="-12" type="qcurve"/>
      <point x="172" y="-12"/>
      <point x="99" y="40"/>
      <point x="66" y="133"/>
      <point x="66" y="193" type="qcurve"/>
      <point x="66" y="523" type="line"/>
      <point x="201" y="523" type="line"/>
      <point x="201" y="206" type="line"/>
      <point x="201" y="99"/>
      <point x="285" y="99" type="qcurve"/>
      <point x="321" y="99"/>
      <point x="384" y="138"/>
      <point x="384" y="180" type="qcurve"/>
      <point x="384" y="523" type="line"/>
      <point x="519" y="523" type="line"/>
      <point x="519" y="0" type="line"/>
      <point x="384" y="0" type="line"/>
      <point x="384" y="87" type="line"/>
      <point x="379" y="87" type="line"/>
      <point x="349" y="-12"/>
    </contour>
    <contour>
      <point x="187" y="603" type="qcurve"/>
      <point x="113" y="603"/>
      <point x="113" y="663" type="qcurve"/>
      <point x="113" y="686" type="line"/>
      <point x="113" y="745"/>
      <point x="187" y="745" type="qcurve"/>
      <point x="261" y="745"/>
      <point x="261" y="686" type="qcurve"/>
      <point x="261" y="663" type="line"/>
      <point x="261" y="603"/>
    </contour>
    <contour>
      <point x="400" y="603" type="qcurve"/>
      <point x="326" y="603"/>
      <point x="326" y="663" type="qcurve"/>
      <point x="326" y="686" type="line"/>
      <point x="326" y="745"/>
      <point x="400" y="745" type="qcurve"/>
      <point x="474" y="745"/>
      <point x="474" y="686" type="qcurve"/>
      <point x="474" y="663" type="line"/>
      <point x="474" y="603"/>
    </contour>
  </outline>
</glyph>
<glyph name="Abreve" format="2">
  <advance width="677"/>
  <unicode hex="0102"/>
  <outline>
    <contour>
      <point x="657" y="0" type="line"/>
      <point x="512" y="0" type="line"/>
      <point x="458" y="174" type="line"/>
      <point x="215" y="174" type="line"/>
      <point x="162" y="0" type="line"/>
      <point x="21" y="0" type="line"/>
      <point x="253" y="698" type="line"/>
      <point x="426" y="698" type="line"/>
    </contour>
    <contour>
      <point x="424" y="292" type="line"/>
      <point x="338" y="571" type="line"/>
      <point x="333" y="571" type="line"/>
      <point x="248" y="292" type="line"/>
    </contour>
    <contour>
      <point x="336" y="745" type="qcurve"/>
      <point x="262" y="745"/>
      <point x="171" y="838"/>
      <point x="153" y="906" type="qcurve"/>
      <point x="227" y="945" type="line"/>
      <point x="238" y="925" type="line"/>
      <point x="250" y="904"/>
      <point x="260" y="890" type="qcurve"/>
      <point x="290" y="840"/>
      <point x="336" y="840" type="qcurve"/>
      <point x="373" y="840"/>
      <point x="414" y="888"/>
      <point x="439" y="935" type="qcurve"/>
      <point x="445" y="945" type="line"/>
      <point x="518" y="906" type="line"/>
      <point x="499" y="836"/>
      <point x="408" y="745"/>
    </contour>
  </outline>
</glyph>
<glyph name="aogonek" format="2">
  <advance width="548"/>
  <unicode hex="0105"/>
  <outline>
    <contour>
      <point x="248" y="84" type="qcurve"/>
      <point x="285" y="84"/>
      <point x="347" y="115"/>
      <point x="347" y="157" type="qcurve"/>
      <point x="347" y="224" type="line"/>
      <point x="277" y="224" type="line"/>
      <point x="172" y="224"/>
      <point x="172" y="164" type="qcurve"/>
      <point x="172" y="145" type="line"/>
      <point x="172" y="84"/>
    </contour>
    <contour>
      <point x="396" y="-211" type="qcurve"/>
      <point x="349" y="-211"/>
      <point x="278" y="-175"/>
      <point x="278" y="-128" type="qcurve"/>
      <point x="278" y="-87"/>
      <point x="338" y="-30"/>
      <point x="393" y="-4" type="qcurve"/>
      <point x="392" y="0" type="line"/>
      <point x="360" y="0" type="line"/>
      <point x="360" y="90" type="line"/>
      <point x="354" y="90" type="line"/>
      <point x="337" y="35"/>
      <point x="254" y="-12"/>
      <point x="201" y="-12" type="qcurve"/>
      <point x="113" y="-12"/>
      <point x="36" y="77"/>
      <point x="36" y="142" type="qcurve"/>
      <point x="36" y="227"/>
      <point x="158" y="303"/>
      <point x="260" y="303" type="qcurve"/>
      <point x="347" y="303" type="line"/>
      <point x="347" y="340" type="line"/>
      <point x="347" y="428"/>
      <point x="253" y="428" type="qcurve"/>
      <point x="208" y="428"/>
      <point x="154" y="391"/>
      <point x="136" y="363" type="qcurve"/>
      <point x="56" y="435" type="line"/>
      <point x="111" y="535"/>
      <point x="263" y="535" type="qcurve"/>
      <point x="482" y="535"/>
      <point x="482" y="347" type="qcurve"/>
      <point x="482" y="0" type="line"/>
      <point x="371" y="-67"/>
      <point x="371" y="-108" type="qcurve"/>
      <point x="371" y="-141"/>
      <point x="407" y="-141" type="qcurve"/>
      <point x="437" y="-141"/>
      <point x="461" y="-114" type="qcurve"/>
      <point x="512" y="-162" type="line"/>
      <point x="486" y="-211"/>
    </contour>
  </outline>
</glyph>
<glyph name="ccircumflex" format="2">
  <advance width="515"/>
  <unicode hex="0109"/>
  <outline>
    <contour>
      <point x="396" y="580" type="line"/>
      <point x="276" y="696" type="line"/>
      <point x="155" y="580" type="line"/>
      <point x="88" y="633" type="line"/>
      <point x="216" y="789" type="line"/>
      <point x="335" y="789" type="line"/>
      <point x="463" y="633" type="line"/>
    </contour>
    <contour>
      <point x="280" y="-12" type="qcurve" smooth="yes"/>
      <point x="166" y="-12"/>
      <point x="38" y="134"/>
      <point x="38" y="262" type="qcurve" smooth="yes"/>
      <point x="38" y="385"/>
      <point x="162" y="535"/>
      <point x="280" y="535" type="qcurve" smooth="yes"/>
      <point x="437" y="535"/>
      <point x="487" y="401" type="qcurve"/>
      <point x="377" y="353" type="line"/>
      <point x="360" y="427"/>
      <point x="280" y="427" type="qcurve" smooth="yes"/>
      <point x="224" y="427"/>
      <point x="179" y="358"/>
      <point x="179" y="309" type="qcurve" smooth="yes"/>
      <point x="179" y="213" type="line" smooth="yes"/>
      <point x="179" y="163"/>
      <point x="225" y="95"/>
      <point x="280" y="95" type="qcurve" smooth="yes"/>
      <point x="361" y="95"/>
      <point x="386" y="177" type="qcurve"/>
      <point x="491" y="129" type="line"/>
      <point x="437" y="-12"/>
    </contour>
  </outline>
</glyph>
<glyph name="Cdotaccent" format="2">
  <advance width="645"/>
  <unicode hex="010A"/>
  <outline>
    <contour>
      <point x="352" y="757" type="qcurve" smooth="yes"/>
      <point x="272" y="757"/>
      <point x="269" y="824" type="qcurve"/>
      <point x="269" y="850" type="line" smooth="yes"/>
      <point x="269" y="917"/>
      <point x="352" y="917" type="qcurve" smooth="yes"/>
      <point x="434" y="917"/>
      <point x="434" y="850" type="qcurve" smooth="yes"/>
      <point x="434" y="824" type="line" smooth="yes"/>
      <point x="434" y="757"/>
    </contour>
    <contour>
      <point x="355" y="-12" type="qcurve" smooth="yes"/>
      <point x="265" y="-12"/>
      <point x="128" y="66"/>
      <point x="52" y="225"/>
      <point x="52" y="346" type="qcurve" smooth="yes"/>
      <point x="52" y="470"/>
      <point x="130" y="631"/>
      <point x="267" y="710"/>
      <point x="355" y="710" type="qcurve" smooth="yes"/>
      <point x="450" y="710"/>
      <point x="575" y="629"/>
      <point x="612" y="548" type="qcurve"/>
      <point x="493" y="485" type="line"/>
      <point x="465" y="586"/>
      <point x="355" y="586" type="qcurve" smooth="yes"/>
      <point x="288" y="586"/>
      <point x="199" y="499"/>
      <point x="199" y="404" type="qcurve" smooth="yes"/>
      <point x="199" y="294" type="line" smooth="yes"/>
      <point x="199" y="197"/>
      <point x="289" y="112"/>
      <point x="355" y="112" type="qcurve" smooth="yes"/>
      <point x="466" y="112"/>
      <point x="502" y="220" type="qcurve"/>
      <point x="615" y="153" type="line"/>
      <point x="537" y="-12"/>
    </contour>
  </outline>
</glyph>
<glyph name="ccaron" format="2">
  <advance width="515"/>
  <unicode hex="010D"/>
  <outline>
    <contour>
      <point x="280" y="-12" type="qcurve"/>
      <point x="166" y="-12"/>
      <point x="38" y="134"/>
      <point x="38" y="262" type="qcurve"/>
      <point x="38" y="385"/>
      <point x="162" y="535"/>
      <point x="280" y="535" type="qcurve"/>
      <point x="437" y="535"/>
      <point x="487" y="401" type="qcurve"/>
      <point x="377" y="353" type="line"/>
      <point x="360" y="427"/>
      <point x="280" y="427" type="qcurve"/>
      <point x="224" y="427"/>
      <point x="179" y="358"/>
      <point x="179" y="309" type="qcurve"/>
      <point x="179" y="213" type="line"/>
      <point x="179" y="163"/>
      <point x="225" y="95"/>
      <point x="280" y="95" type="qcurve"/>
      <point x="361" y="95"/>
      <point x="386" y="177" type="qcurve"/>
      <point x="491" y="129" type="line"/>
      <point x="437" y="-12"/>
    </contour>
    <contour>
      <point x="335" y="589" type="line"/>
      <point x="216" y="589" type="line"/>
      <point x="88" y="745" type="line"/>
      <point x="155" y="798" type="line"/>
      <point x="276" y="683" type="line"/>
      <point x="396" y="798" type="line"/>
      <point x="463" y="745" type="line"/>
    </contour>
  </outline>
</glyph>
<glyph name="Eogonek" format="2">
  <advance width="602"/>
  <unicode hex="0118"/>
  <outline>
    <contour>
      <point x="461" y="-211" type="qcurve"/>
      <point x="342" y="-211"/>
      <point x="342" y="-128" type="qcurve"/>
      <point x="342" y="-88"/>
      <point x="402" y="-30"/>
      <point x="458" y="-4" type="qcurve"/>
      <point x="457" y="0" type="line"/>
      <point x="80" y="0" type="line"/>
      <point x="80" y="698" type="line"/>
      <point x="546" y="698" type="line"/>
      <point x="546" y="575" type="line"/>
      <point x="219" y="575" type="line"/>
      <point x="219" y="415" type="line"/>
      <point x="505" y="415" type="line"/>
      <point x="505" y="292" type="line"/>
      <point x="219" y="292" type="line"/>
      <point x="219" y="123" type="line"/>
      <point x="546" y="123" type="line"/>
      <point x="546" y="0" type="line"/>
      <point x="484" y="-41"/>
      <point x="436" y="-87"/>
      <point x="436" y="-108" type="qcurve"/>
      <point x="436" y="-141"/>
      <point x="472" y="-141" type="qcurve"/>
      <point x="502" y="-141"/>
      <point x="526" y="-114" type="qcurve"/>
      <point x="576" y="-162" type="line"/>
      <point x="552" y="-211"/>
    </contour>
  </outline>
</glyph>
<glyph name="eogonek" format="2">
  <advance width="560"/>
  <unicode hex="0119"/>
  <outline>
    <contour>
      <point x="340" y="-211" type="qcurve" smooth="yes"/>
      <point x="314" y="-211"/>
      <point x="260" y="-198"/>
      <point x="223" y="-162"/>
      <point x="223" y="-128" type="qcurve" smooth="yes"/>
      <point x="223" y="-85"/>
      <point x="286" y="-31"/>
      <point x="335" y="-10" type="qcurve"/>
      <point x="333" y="-6" type="line"/>
      <point x="309" y="-12"/>
      <point x="282" y="-12" type="qcurve" smooth="yes"/>
      <point x="200" y="-12"/>
      <point x="92" y="59"/>
      <point x="38" y="183"/>
      <point x="38" y="262" type="qcurve" smooth="yes"/>
      <point x="38" y="340"/>
      <point x="92" y="464"/>
      <point x="200" y="535"/>
      <point x="281" y="535" type="qcurve" smooth="yes"/>
      <point x="365" y="535"/>
      <point x="471" y="462"/>
      <point x="521" y="341"/>
      <point x="521" y="270" type="qcurve" smooth="yes"/>
      <point x="521" y="227" type="line"/>
      <point x="178" y="227" type="line"/>
      <point x="178" y="95"/>
      <point x="303" y="95" type="qcurve" smooth="yes"/>
      <point x="382" y="95"/>
      <point x="433" y="163" type="qcurve"/>
      <point x="504" y="81" type="line"/>
      <point x="485" y="56"/>
      <point x="413" y="2" type="qcurve" smooth="yes"/>
      <point x="366" y="-34"/>
      <point x="315" y="-85"/>
      <point x="315" y="-109" type="qcurve" smooth="yes"/>
      <point x="315" y="-141"/>
      <point x="352" y="-141" type="qcurve" smooth="yes"/>
      <point x="382" y="-141"/>
      <point x="405" y="-114" type="qcurve"/>
      <point x="454" y="-162" type="line"/>
      <point x="430" y="-211"/>
    </contour>
    <contour>
      <point x="381" y="309" type="line"/>
      <point x="381" y="364"/>
      <point x="339" y="434"/>
      <point x="284" y="434" type="qcurve" smooth="yes"/>
      <point x="229" y="434"/>
      <point x="178" y="363"/>
      <point x="178" y="317" type="qcurve" smooth="yes"/>
      <point x="178" y="309" type="line"/>
    </contour>
  </outline>
</glyph>
<glyph name="Gcircumflex" format="2">
  <advance width="668"/>
  <unicode hex="011C"/>
  <outline>
    <contour>
      <point x="19" y="349" type="qcurve"/>
      <point x="19" y="438"/>
      <point x="65" y="573"/>
      <point x="149" y="664"/>
      <point x="264" y="710"/>
      <point x="333" y="710" type="qcurve"/>
      <point x="392" y="710"/>
      <point x="479" y="681"/>
      <point x="542" y="635"/>
      <point x="585" y="577"/>
      <point x="601" y="548" type="qcurve"/>
      <point x="483" y="493" type="line"/>
      <point x="477" y="511"/>
      <point x="453" y="547"/>
      <point x="417" y="576"/>
      <point x="368" y="593"/>
      <point x="337" y="593" type="qcurve"/>
      <point x="299" y="593"/>
      <point x="238" y="566"/>
      <point x="196" y="518"/>
      <point x="174" y="450"/>
      <point x="174" y="410" type="qcurve"/>
      <point x="174" y="311" type="line"/>
      <point x="174" y="265"/>
      <point x="190" y="189"/>
      <point x="227" y="135"/>
      <point x="287" y="105"/>
      <point x="331" y="105" type="qcurve"/>
      <point x="360" y="105"/>
      <point x="413" y="121"/>
      <point x="453" y="154"/>
      <point x="476" y="205"/>
      <point x="476" y="239" type="qcurve"/>
      <point x="476" y="268" type="line"/>
      <point x="305" y="268" type="line"/>
      <point x="305" y="386" type="line"/>
      <point x="615" y="386" type="line"/>
      <point x="615" y="271" type="line"/>
      <point x="615" y="209"/>
      <point x="579" y="106"/>
      <point x="506" y="30"/>
      <point x="394" y="-12"/>
      <point x="318" y="-12" type="qcurve"/>
      <point x="253" y="-12"/>
      <point x="144" y="36"/>
      <point x="64" y="128"/>
      <point x="19" y="262"/>
    </contour>
    <contour>
      <point x="282" y="954" type="line"/>
      <point x="403" y="954" type="line"/>
      <point x="533" y="796" type="line"/>
      <point x="463" y="741" type="line"/>
      <point x="342" y="856" type="line"/>
      <point x="222" y="741" type="line"/>
      <point x="152" y="796" type="line"/>
    </contour>
  </outline>
</glyph>
<glyph name="Gbreve" format="2">
  <advance width="668"/>
  <unicode hex="011E"/>
  <outline>
    <contour>
      <point x="19" y="349" type="qcurve"/>
      <point x="19" y="438"/>
      <point x="65" y="573"/>
      <point x="149" y="664"/>
      <point x="264" y="710"/>
      <point x="333" y="710" type="qcurve"/>
      <point x="392" y="710"/>
      <point x="479" y="681"/>
      <point x="542" y="635"/>
      <point x="585" y="577"/>
      <point x="601" y="548" type="qcurve"/>
      <point x="483" y="493" type="line"/>
      <point x="477" y="511"/>
      <point x="453" y="547"/>
      <point x="417" y="576"/>
      <point x="368" y="593"/>
      <point x="337" y="593" type="qcurve"/>
      <point x="299" y="593"/>
      <point x="238" y="566"/>
      <point x="196" y="518"/>
      <point x="174" y="450"/>
      <point x="174" y="410" type="qcurve"/>
      <point x="174" y="311" type="line"/>
      <point x="174" y="265"/>
      <point x="190" y="189"/>
      <point x="227" y="135"/>
      <point x="287" y="105"/>
      <point x="331" y="105" type="qcurve"/>
      <point x="360" y="105"/>
      <point x="413" y="121"/>
      <point x="453" y="154"/>
      <point x="476" y="205"/>
      <point x="476" y="239" type="qcurve"/>
      <point x="476" y="268" type="line"/>
      <point x="305" y="268" type="line"/>
      <point x="305" y="386" type="line"/>
      <point x="615" y="386" type="line"/>
      <point x="615" y="271" type="line"/>
      <point x="615" y="209"/>
      <point x="579" y="106"/>
      <point x="506" y="30"/>
      <point x="394" y="-12"/>
      <point x="318" y="-12" type="qcurve"/>
      <point x="253" y="-12"/>
      <point x="144" y="36"/>
      <point x="64" y="128"/>
      <point x="19" y="262"/>
    </contour>
    <contour>
      <point x="342" y="743" type="qcurve"/>
      <point x="302" y="743"/>
      <point x="242" y="771"/>
      <point x="197" y="817"/>
      <point x="166" y="876"/>
      <point x="156" y="908" type="qcurve"/>
      <point x="234" y="948" type="line"/>
      <point x="253" y="916" type="line"/>
      <point x="274" y="882"/>
      <point x="311" y="842"/>
      <point x="342" y="842" type="qcurve"/>
      <point x="372" y="841"/>
      <point x="414" y="883"/>
      <point x="433" y="916" type="qcurve"/>
      <point x="452" y="948" type="line"/>
      <point x="529" y="908" type="line"/>
      <point x="519" y="879"/>
      <point x="488" y="820"/>
      <point x="443" y="773"/>
      <point x="382" y="743"/>
    </contour>
  </outline>
</glyph>
<glyph name="hcircumflex" format="2">
  <advance width="591"/>
  <unicode hex="0125"/>
  <outline>
    <contour>
      <point x="524" y="0" type="line"/>
      <point x="389" y="0" type="line"/>
      <point x="389" y="317" type="line"/>
      <point x="389" y="375"/>
      <point x="350" y="424"/>
      <point x="308" y="424" type="qcurve"/>
      <point x="268" y="424"/>
      <point x="207" y="385"/>
      <point x="207" y="343" type="qcurve"/>
      <point x="207" y="0" type="line"/>
      <point x="72" y="0" type="line"/>
      <point x="72" y="740" type="line"/>
      <point x="207" y="740" type="line"/>
      <point x="207" y="435" type="line"/>
      <point x="213" y="435" type="line"/>
      <point x="247" y="535"/>
      <point x="359" y="535" type="qcurve"/>
      <point x="446" y="535"/>
      <point x="524" y="419"/>
      <point x="524" y="329" type="qcurve"/>
    </contour>
    <contour>
      <point x="261" y="738" type="line"/>
      <point x="141" y="854" type="line"/>
      <point x="21" y="738" type="line"/>
      <point x="-47" y="791" type="line"/>
      <point x="81" y="947" type="line"/>
      <point x="201" y="947" type="line"/>
      <point x="329" y="791" type="line"/>
    </contour>
  </outline>
</glyph>
<glyph name="hbar" format="2">
  <advance width="591"/>
  <unicode hex="0127"/>
  <outline>
    <contour>
      <point x="524" y="0" type="line"/>
      <point x="389" y="0" type="line"/>
      <point x="389" y="317" type="line"/>
      <point x="389" y="424"/>
      <point x="311" y="424" type="qcurve"/>
      <point x="272" y="424"/>
      <point x="207" y="386"/>
      <point x="207" y="343" type="qcurve"/>
      <point x="207" y="0" type="line"/>
      <point x="72" y="0" type="line"/>
      <point x="72" y="593" type="line"/>
      <point x="10" y="593" type="line"/>
      <point x="10" y="686" type="line"/>
      <point x="72" y="686" type="line"/>
      <point x="72" y="740" type="line"/>
      <point x="207" y="740" type="line"/>
      <point x="207" y="686" type="line"/>
      <point x="349" y="686" type="line"/>
      <point x="349" y="593" type="line"/>
      <point x="207" y="593" type="line"/>
      <point x="207" y="435" type="line"/>
      <point x="213" y="435" type="line"/>
      <point x="247" y="535"/>
      <point x="359" y="535" type="qcurve"/>
      <point x="418" y="535"/>
      <point x="491" y="482"/>
      <point x="524" y="389"/>
      <point x="524" y="329" type="qcurve"/>
    </contour>
  </outline>
</glyph>
<glyph name="imacron" format="2">
  <advance width="279"/>
  <unicode hex="012B"/>
  <outline>
    <contour>
      <point x="207" y="0" type="line"/>
      <point x="72" y="0" type="line"/>
      <point x="72" y="523" type="line"/>
      <point x="207" y="523" type="line"/>
    </contour>
    <contour>
      <point x="291" y="626" type="line"/>
      <point x="-10" y="626" type="line"/>
      <point x="-10" y="723" type="line"/>
      <point x="291" y="723" type="line"/>
    </contour>
  </outline>
</glyph>
<glyph name="ibreve" format="2">
  <advance width="279"/>
  <unicode hex="012D"/>
  <outline>
    <contour>
      <point x="207" y="0" type="line"/>
      <point x="72" y="0" type="line"/>
      <point x="72" y="523" type="line"/>
      <point x="207" y="523" type="line"/>
    </contour>
    <contour>
      <point x="140" y="582" type="qcurve"/>
      <point x="65" y="582"/>
      <point x="-23" y="675"/>
      <point x="-42" y="744" type="qcurve"/>
      <point x="32" y="782" type="line"/>
      <point x="41" y="766"/>
      <point x="51" y="749"/>
      <point x="60" y="734"/>
      <point x="67" y="724" type="qcurve"/>
      <point x="99" y="678"/>
      <point x="140" y="678" type="qcurve"/>
      <point x="173" y="678"/>
      <point x="214" y="722"/>
      <point x="239" y="764" type="qcurve"/>
      <point x="250" y="782" type="line"/>
      <point x="323" y="744" type="line"/>
      <point x="301" y="671"/>
      <point x="208" y="582"/>
    </contour>
  </outline>
</glyph>
<glyph name="Iogonek" format="2">
  <advance width="299"/>
  <unicode hex="012E"/>
  <outline>
    <contour>
      <point x="133" y="-211" type="qcurve"/>
      <point x="86" y="-211"/>
      <point x="15" y="-175"/>
      <point x="15" y="-128" type="qcurve"/>
      <point x="15" y="-89"/>
      <point x="71" y="-31"/>
      <point x="130" y="-4" type="qcurve"/>
      <point x="129" y="0" type="line"/>
      <point x="80" y="0" type="line"/>
      <point x="80" y="698" type="line"/>
      <point x="219" y="698" type="line"/>
      <point x="219" y="0" type="line"/>
      <point x="151" y="-44"/>
      <point x="108" y="-88"/>
      <point x="108" y="-108" type="qcurve"/>
      <point x="108" y="-141"/>
      <point x="145" y="-141" type="qcurve"/>
      <point x="175" y="-141"/>
      <point x="198" y="-114" type="qcurve"/>
      <point x="249" y="-162" type="line"/>
      <point x="224" y="-211"/>
    </contour>
  </outline>
</glyph>
<glyph name="iogonek" format="2">
  <advance width="279"/>
  <unicode hex="012F"/>
  <outline>
    <contour>
      <point x="121" y="-211" type="qcurve"/>
      <point x="74" y="-211"/>
      <point x="3" y="-175"/>
      <point x="3" y="-128" type="qcurve"/>
      <point x="3" y="-87"/>
      <point x="63" y="-30"/>
      <point x="119" y="-4" type="qcurve"/>
      <point x="118" y="0" type="line"/>
      <point x="72" y="0" type="line"/>
      <point x="72" y="523" type="line"/>
      <point x="207" y="523" type="line"/>
      <point x="207" y="0" type="line"/>
      <point x="139" y="-44"/>
      <point x="96" y="-88"/>
      <point x="96" y="-108" type="qcurve"/>
      <point x="96" y="-141"/>
      <point x="133" y="-141" type="qcurve"/>
      <point x="163" y="-141"/>
      <point x="186" y="-114" type="qcurve"/>
      <point x="237" y="-162" type="line"/>
      <point x="212" y="-211"/>
    </contour>
    <contour>
      <point x="140" y="592" type="qcurve"/>
      <point x="61" y="592"/>
      <point x="61" y="659" type="qcurve"/>
      <point x="61" y="680" type="line"/>
      <point x="61" y="708"/>
      <point x="97" y="747"/>
      <point x="140" y="747" type="qcurve"/>
      <point x="218" y="747"/>
      <point x="218" y="680" type="qcurve"/>
      <point x="218" y="659" type="line"/>
      <point x="218" y="628"/>
      <point x="179" y="592"/>
    </contour>
  </outline>
</glyph>
<glyph name="dotlessi" format="2">
  <advance width="279"/>
  <unicode hex="0131"/>
  <outline>
    <contour>
      <point x="207" y="0" type="line"/>
      <point x="72" y="0" type="line"/>
      <point x="72" y="523" type="line"/>
      <point x="207" y="523" type="line"/>
    </contour>
  </outline>
</glyph>
<glyph name="ij" format="2">
  <advance width="553"/>
  <unicode hex="0133"/>
  <outline>
    <contour>
      <point x="140" y="592" type="qcurve"/>
      <point x="61" y="592"/>
      <point x="61" y="659" type="qcurve"/>
      <point x="61" y="680" type="line"/>
      <point x="61" y="708"/>
      <point x="97" y="747"/>
      <point x="140" y="747" type="qcurve"/>
      <point x="218" y="747"/>
      <point x="218" y="680" type="qcurve"/>
      <point x="218" y="659" type="line"/>
      <point x="218" y="628"/>
      <point x="179" y="592"/>
    </contour>
    <contour>
      <point x="207" y="0" type="line"/>
      <point x="72" y="0" type="line"/>
      <point x="72" y="523" type="line"/>
      <point x="207" y="523" type="line"/>
    </contour>
    <contour>
      <point x="340" y="-200" type="qcurve"/>
      <point x="267" y="-200" type="line"/>
      <point x="267" y="-94" type="line"/>
      <point x="346" y="-94" type="line"/>
      <point x="346" y="523" type="line"/>
      <point x="481" y="523" type="line"/>
      <point x="481" y="-61" type="line"/>
      <point x="481" y="-200"/>
    </contour>
    <contour>
      <point x="413" y="592" type="qcurve"/>
      <point x="334" y="592"/>
      <point x="334" y="657" type="qcurve"/>
      <point x="334" y="680" type="line"/>
      <point x="334" y="708"/>
      <point x="370" y="747"/>
      <point x="413" y="747" type="qcurve"/>
      <point x="456" y="747"/>
      <point x="492" y="708"/>
      <point x="492" y="680" type="qcurve"/>
      <point x="492" y="659" type="line"/>
      <point x="492" y="630"/>
      <point x="455" y="592"/>
    </contour>
  </outline>
</glyph>
<glyph name="Jcircumflex" format="2">
  <advance width="550"/>
  <unicode hex="0134"/>
  <outline>
    <contour>
      <point x="250" y="-11" type="qcurve"/>
      <point x="147" y="-11"/>
      <point x="38" y="94"/>
      <point x="26" y="178" type="qcurve"/>
      <point x="155" y="204" type="line"/>
      <point x="171" y="111"/>
      <point x="248" y="111" type="qcurve"/>
      <point x="296" y="111"/>
      <point x="335" y="174"/>
      <point x="335" y="239" type="qcurve"/>
      <point x="335" y="698" type="line"/>
      <point x="474" y="698" type="line"/>
      <point x="474" y="198" type="line"/>
      <point x="474" y="128"/>
      <point x="414" y="35"/>
      <point x="313" y="-11"/>
    </contour>
    <contour>
      <point x="416" y="743" type="line"/>
      <point x="296" y="859" type="line"/>
      <point x="175" y="743" type="line"/>
      <point x="108" y="796" type="line"/>
      <point x="236" y="952" type="line"/>
      <point x="355" y="952" type="line"/>
      <point x="483" y="796" type="line"/>
    </contour>
  </outline>
</glyph>
<glyph name="jcircumflex" format="2">
  <advance width="279"/>
  <unicode hex="0135"/>
  <outline>
    <contour>
      <point x="261" y="580" type="line"/>
      <point x="141" y="696" type="line"/>
      <point x="20" y="580" type="line"/>
      <point x="-47" y="633" type="line"/>
      <point x="81" y="789" type="line"/>
      <point x="200" y="789" type="line"/>
      <point x="328" y="633" type="line"/>
    </contour>
    <contour>
      <point x="66" y="-200" type="qcurve" smooth="yes"/>
      <point x="-7" y="-200" type="line"/>
      <point x="-7" y="-94" type="line"/>
      <point x="72" y="-94" type="line"/>
      <point x="72" y="523" type="line"/>
      <point x="207" y="523" type="line"/>
      <point x="207" y="-61" type="line" smooth="yes"/>
      <point x="207" y="-200"/>
    </contour>
  </outline>
</glyph>
<glyph name="kgreenlandic" format="2">
  <advance width="567"/>
  <unicode hex="0138"/>
  <outline>
    <contour>
      <point x="564" y="0" type="line"/>
      <point x="406" y="0" type="line"/>
      <point x="274" y="228" type="line"/>
      <point x="207" y="155" type="line"/>
      <point x="207" y="0" type="line"/>
      <point x="72" y="0" type="line"/>
      <point x="72" y="523" type="line"/>
      <point x="207" y="523" type="line"/>
      <point x="207" y="297" type="line"/>
      <point x="213" y="297" type="line"/>
      <point x="284" y="389" type="line"/>
      <point x="403" y="523" type="line"/>
      <point x="556" y="523" type="line"/>
      <point x="369" y="319" type="line"/>
    </contour>
  </outline>
</glyph>
<glyph name="Lcaron" format="2">
  <advance width="524"/>
  <unicode hex="013D"/>
  <outline>
    <contour>
      <point x="491" y="0" type="line"/>
      <point x="80" y="0" type="line"/>
      <point x="80" y="698" type="line"/>
      <point x="219" y="698" type="line"/>
      <point x="219" y="123" type="line"/>
      <point x="491" y="123" type="line"/>
    </contour>
    <contour>
      <point x="381" y="531" type="line"/>
      <point x="292" y="531" type="line"/>
      <point x="300" y="740" type="line"/>
      <point x="444" y="740" type="line"/>
    </contour>
  </outline>
</glyph>
<glyph name="Lslash" format="2">
  <advance width="534"/>
  <unicode hex="0141"/>
  <outline>
    <contour>
      <point x="496" y="0" type="line"/>
      <point x="85" y="0" type="line"/>
      <point x="85" y="248" type="line"/>
      <point x="-7" y="218" type="line"/>
      <point x="-7" y="323" type="line"/>
      <point x="85" y="353" type="line"/>
      <point x="85" y="698" type="line"/>
      <point x="224" y="698" type="line"/>
      <point x="224" y="397" type="line"/>
      <point x="386" y="450" type="line"/>
      <point x="386" y="345" type="line"/>
      <point x="224" y="292" type="line"/>
      <point x="224" y="123" type="line"/>
      <point x="496" y="123" type="line"/>
    </contour>
  </outline>
</glyph>
<glyph name="nacute" format="2">
  <advance width="591"/>
  <unicode hex="0144"/>
  <outline>
    <contour>
      <point x="524" y="0" type="line"/>
      <point x="389" y="0" type="line"/>
      <point x="389" y="317" type="line"/>
      <point x="389" y="424"/>
      <point x="311" y="424" type="qcurve"/>
      <point x="286" y="424"/>
      <point x="263" y="416" type="qcurve"/>
      <point x="207" y="397"/>
      <point x="207" y="343" type="qcurve"/>
      <point x="207" y="0" type="line"/>
      <point x="72" y="0" type="line"/>
      <point x="72" y="523" type="line"/>
      <point x="207" y="523" type="line"/>
      <point x="207" y="435" type="line"/>
      <point x="213" y="435" type="line"/>
      <point x="247" y="535"/>
      <point x="359" y="535" type="qcurve"/>
      <point x="418" y="535"/>
      <point x="491" y="482"/>
      <point x="524" y="389"/>
      <point x="524" y="329" type="qcurve"/>
    </contour>
    <contour>
      <point x="312" y="580" type="line"/>
      <point x="231" y="620" type="line"/>
      <point x="327" y="809" type="line"/>
      <point x="441" y="753" type="line"/>
    </contour>
  </outline>
</glyph>
<glyph name="ncedilla" format="2">
  <advance width="591"/>
  <unicode hex="0146"/>
  <outline>
    <contour>
      <point x="524" y="0" type="line"/>
      <point x="389" y="0" type="line"/>
      <point x="389" y="317" type="line"/>
      <point x="389" y="424"/>
      <point x="311" y="424" type="qcurve"/>
      <point x="286" y="424"/>
      <point x="263" y="416" type="qcurve"/>
      <point x="207" y="397"/>
      <point x="207" y="343" type="qcurve"/>
      <point x="207" y="0" type="line"/>
      <point x="72" y="0" type="line"/>
      <point x="72" y="523" type="line"/>
      <point x="207" y="523" type="line"/>
      <point x="207" y="435" type="line"/>
      <point x="213" y="435" type="line"/>
      <point x="247" y="535"/>
      <point x="359" y="535" type="qcurve"/>
      <point x="418" y="535"/>
      <point x="491" y="482"/>
      <point x="524" y="389"/>
      <point x="524" y="329" type="qcurve"/>
    </contour>
    <contour>
      <point x="299" y="-269" type="qcurve"/>
      <point x="219" y="-269" type="line"/>
      <point x="265" y="-232"/>
      <point x="279" y="-174" type="qcurve"/>
      <point x="250" y="-171"/>
      <point x="232" y="-133"/>
      <point x="232" y="-106" type="qcurve"/>
      <point x="235" y="-47"/>
      <point x="298" y="-47" type="qcurve"/>
      <point x="364" y="-47"/>
      <point x="364" y="-106" type="qcurve"/>
      <point x="364" y="-134"/>
      <point x="357" y="-177"/>
      <point x="347" y="-201" type="qcurve"/>
      <point x="329" y="-242"/>
    </contour>
  </outline>
</glyph>
<glyph name="napostrophe" format="2">
  <advance width="872"/>
  <unicode hex="0149"/>
  <outline>
    <contour>
      <point x="126" y="460" type="qcurve"/>
      <point x="38" y="460" type="line"/>
      <point x="102" y="516"/>
      <point x="127" y="588" type="qcurve"/>
      <point x="68" y="602"/>
      <point x="68" y="658" type="qcurve"/>
      <point x="68" y="680" type="line"/>
      <point x="68" y="710"/>
      <point x="106" y="750"/>
      <point x="150" y="750" type="qcurve"/>
      <point x="231" y="750"/>
      <point x="231" y="680" type="qcurve"/>
      <point x="231" y="642"/>
      <point x="220" y="584"/>
      <point x="201" y="550" type="qcurve"/>
      <point x="171" y="497"/>
    </contour>
    <contour>
      <point x="806" y="0" type="line"/>
      <point x="671" y="0" type="line"/>
      <point x="671" y="317" type="line"/>
      <point x="671" y="424"/>
      <point x="592" y="424" type="qcurve"/>
      <point x="567" y="424"/>
      <point x="544" y="416" type="qcurve"/>
      <point x="488" y="397"/>
      <point x="488" y="343" type="qcurve"/>
      <point x="488" y="0" type="line"/>
      <point x="353" y="0" type="line"/>
      <point x="353" y="523" type="line"/>
      <point x="488" y="523" type="line"/>
      <point x="488" y="435" type="line"/>
      <point x="494" y="435" type="line"/>
      <point x="528" y="535"/>
      <point x="640" y="535" type="qcurve"/>
      <point x="699" y="535"/>
      <point x="773" y="482"/>
      <point x="806" y="389"/>
      <point x="806" y="329" type="qcurve"/>
    </contour>
  </outline>
</glyph>
<glyph name="eng" format="2">
  <advance width="591"/>
  <unicode hex="014B"/>
  <outline>
    <contour>
      <point x="384" y="-200" type="qcurve"/>
      <point x="310" y="-200" type="line"/>
      <point x="310" y="-94" type="line"/>
      <point x="389" y="-94" type="line"/>
      <point x="389" y="317" type="line" smooth="yes"/>
      <point x="389" y="424"/>
      <point x="311" y="424" type="qcurve" smooth="yes"/>
      <point x="270" y="424"/>
      <point x="207" y="386"/>
      <point x="207" y="343" type="qcurve" smooth="yes"/>
      <point x="207" y="0" type="line"/>
      <point x="72" y="0" type="line"/>
      <point x="72" y="523" type="line"/>
      <point x="207" y="523" type="line"/>
      <point x="207" y="435" type="line"/>
      <point x="213" y="435" type="line"/>
      <point x="247" y="535"/>
      <point x="359" y="535" type="qcurve" smooth="yes"/>
      <point x="418" y="535"/>
      <point x="491" y="482"/>
      <point x="524" y="389"/>
      <point x="524" y="329" type="qcurve" smooth="yes"/>
      <point x="524" y="-61" type="line" smooth="yes"/>
      <point x="524" y="-199"/>
    </contour>
  </outline>
</glyph>
<glyph name="Obreve" format="2">
  <advance width="713"/>
  <unicode hex="014E"/>
  <outline>
    <contour>
      <point x="357" y="-12" type="qcurve"/>
      <point x="267" y="-12"/>
      <point x="130" y="68"/>
      <point x="52" y="229"/>
      <point x="52" y="349" type="qcurve"/>
      <point x="52" y="526"/>
      <point x="220" y="710"/>
      <point x="357" y="710" type="qcurve"/>
      <point x="460" y="710"/>
      <point x="595" y="618"/>
      <point x="662" y="455"/>
      <point x="662" y="349" type="qcurve"/>
      <point x="662" y="227"/>
      <point x="583" y="67"/>
      <point x="445" y="-12"/>
    </contour>
    <contour>
      <point x="357" y="112" type="qcurve"/>
      <point x="514" y="112"/>
      <point x="514" y="313" type="qcurve"/>
      <point x="514" y="402" type="line"/>
      <point x="514" y="498"/>
      <point x="424" y="586"/>
      <point x="357" y="586" type="qcurve"/>
      <point x="199" y="586"/>
      <point x="199" y="385" type="qcurve"/>
      <point x="199" y="296" type="line"/>
      <point x="199" y="201"/>
      <point x="289" y="112"/>
    </contour>
    <contour>
      <point x="356" y="745" type="qcurve"/>
      <point x="305" y="745"/>
      <point x="231" y="790"/>
      <point x="184" y="863"/>
      <point x="174" y="906" type="qcurve"/>
      <point x="248" y="945" type="line"/>
      <point x="281" y="887"/>
      <point x="298" y="867" type="qcurve"/>
      <point x="320" y="840"/>
      <point x="356" y="840" type="qcurve"/>
      <point x="385" y="840"/>
      <point x="426" y="875"/>
      <point x="446" y="912" type="qcurve"/>
      <point x="466" y="945" type="line"/>
      <point x="539" y="906" type="line"/>
      <point x="519" y="836"/>
      <point x="428" y="745"/>
    </contour>
  </outline>
</glyph>
<glyph name="obreve" format="2">
  <advance width="564"/>
  <unicode hex="014F"/>
  <outline>
    <contour>
      <point x="282" y="582" type="qcurve" smooth="yes"/>
      <point x="232" y="582"/>
      <point x="159" y="627"/>
      <point x="111" y="700"/>
      <point x="99" y="744" type="qcurve"/>
      <point x="173" y="782" type="line"/>
      <point x="180" y="770" type="line"/>
      <point x="203" y="728"/>
      <point x="246" y="678"/>
      <point x="282" y="678" type="qcurve" smooth="yes"/>
      <point x="317" y="678"/>
      <point x="358" y="726"/>
      <point x="385" y="771" type="qcurve"/>
      <point x="391" y="782" type="line"/>
      <point x="464" y="744" type="line"/>
      <point x="443" y="673"/>
      <point x="351" y="582"/>
    </contour>
    <contour>
      <point x="282" y="-12" type="qcurve" smooth="yes"/>
      <point x="201" y="-12"/>
      <point x="92" y="60"/>
      <point x="38" y="184"/>
      <point x="38" y="262" type="qcurve" smooth="yes"/>
      <point x="38" y="395"/>
      <point x="174" y="535"/>
      <point x="282" y="535" type="qcurve" smooth="yes"/>
      <point x="397" y="535"/>
      <point x="526" y="387"/>
      <point x="526" y="262" type="qcurve" smooth="yes"/>
      <point x="526" y="138"/>
      <point x="398" y="-12"/>
    </contour>
    <contour>
      <point x="282" y="96" type="qcurve" smooth="yes"/>
      <point x="342" y="96"/>
      <point x="385" y="172"/>
      <point x="385" y="235" type="qcurve" smooth="yes"/>
      <point x="385" y="312" type="line"/>
      <point x="380" y="427"/>
      <point x="282" y="427" type="qcurve" smooth="yes"/>
      <point x="221" y="427"/>
      <point x="179" y="350"/>
      <point x="179" y="288" type="qcurve" smooth="yes"/>
      <point x="179" y="211" type="line"/>
      <point x="182" y="96"/>
    </contour>
  </outline>
</glyph>
<glyph name="Odoubleacute" format="2">
  <advance width="713"/>
  <unicode hex="0150"/>
  <outline>
    <contour>
      <point x="357" y="-12" type="qcurve"/>
      <point x="267" y="-12"/>
      <point x="130" y="68"/>
      <point x="52" y="229"/>
      <point x="52" y="349" type="qcurve"/>
      <point x="52" y="526"/>
      <point x="220" y="710"/>
      <point x="357" y="710" type="qcurve"/>
      <point x="460" y="710"/>
      <point x="595" y="618"/>
      <point x="662" y="455"/>
      <point x="662" y="349" type="qcurve"/>
      <point x="662" y="227"/>
      <point x="583" y="67"/>
      <point x="445" y="-12"/>
    </contour>
    <contour>
      <point x="357" y="112" type="qcurve"/>
      <point x="514" y="112"/>
      <point x="514" y="313" type="qcurve"/>
      <point x="514" y="402" type="line"/>
      <point x="514" y="498"/>
      <point x="424" y="586"/>
      <point x="357" y="586" type="qcurve"/>
      <point x="199" y="586"/>
      <point x="199" y="385" type="qcurve"/>
      <point x="199" y="296" type="line"/>
      <point x="199" y="201"/>
      <point x="289" y="112"/>
    </contour>
    <contour>
      <point x="270" y="743" type="line"/>
      <point x="195" y="779" type="line"/>
      <point x="292" y="968" type="line"/>
      <point x="399" y="916" type="line"/>
    </contour>
    <contour>
      <point x="466" y="743" type="line"/>
      <point x="392" y="779" type="line"/>
      <point x="488" y="968" type="line"/>
      <point x="595" y="916" type="line"/>
    </contour>
  </outline>
</glyph>
<glyph name="OE" format="2">
  <advance width="995"/>
  <unicode hex="0152"/>
  <outline>
    <contour>
      <point x="359" y="-12" type="qcurve"/>
      <point x="217" y="-12"/>
      <point x="52" y="176"/>
      <point x="52" y="349" type="qcurve"/>
      <point x="52" y="456"/>
      <point x="121" y="619"/>
      <point x="257" y="710"/>
      <point x="359" y="710" type="qcurve"/>
      <point x="427" y="710"/>
      <point x="483" y="698" type="qcurve"/>
      <point x="939" y="698" type="line"/>
      <point x="939" y="575" type="line"/>
      <point x="611" y="575" type="line"/>
      <point x="611" y="415" type="line"/>
      <point x="898" y="415" type="line"/>
      <point x="898" y="292" type="line"/>
      <point x="611" y="292" type="line"/>
      <point x="611" y="123" type="line"/>
      <point x="939" y="123" type="line"/>
      <point x="939" y="0" type="line"/>
      <point x="516" y="0" type="line"/>
      <point x="463" y="-4"/>
      <point x="436" y="-4" type="qcurve"/>
      <point x="398" y="-9"/>
    </contour>
    <contour>
      <point x="361" y="112" type="qcurve"/>
      <point x="419" y="112"/>
      <point x="472" y="122" type="qcurve"/>
      <point x="472" y="575" type="line"/>
      <point x="419" y="586"/>
      <point x="361" y="586" type="qcurve"/>
      <point x="303" y="586"/>
      <point x="231" y="538"/>
      <point x="199" y="454"/>
      <point x="199" y="402" type="qcurve"/>
      <point x="199" y="296" type="line"/>
      <point x="199" y="216"/>
      <point x="276" y="112"/>
    </contour>
  </outline>
</glyph>
<glyph name="Racute" format="2">
  <advance width="668"/>
  <unicode hex="0154"/>
  <outline>
    <contour>
      <point x="621" y="0" type="line"/>
      <point x="466" y="0" type="line"/>
      <point x="338" y="265" type="line"/>
      <point x="219" y="265" type="line"/>
      <point x="219" y="0" type="line"/>
      <point x="80" y="0" type="line"/>
      <point x="80" y="698" type="line"/>
      <point x="401" y="698" type="line"/>
      <point x="500" y="698"/>
      <point x="609" y="574"/>
      <point x="609" y="479" type="qcurve"/>
      <point x="609" y="329"/>
      <point x="479" y="281" type="qcurve"/>
    </contour>
    <contour>
      <point x="386" y="382" type="line"/>
      <point x="465" y="382"/>
      <point x="465" y="457" type="qcurve"/>
      <point x="465" y="502" type="line"/>
      <point x="465" y="534"/>
      <point x="435" y="566"/>
      <point x="386" y="577"/>
      <point x="359" y="577" type="qcurve"/>
      <point x="219" y="577" type="line"/>
      <point x="219" y="382" type="line"/>
    </contour>
    <contour>
      <point x="335" y="743" type="line"/>
      <point x="254" y="782" type="line"/>
      <point x="350" y="972" type="line"/>
      <point x="464" y="916" type="line"/>
    </contour>
  </outline>
</glyph>
<glyph name="racute" format="2">
  <advance width="397"/>
  <unicode hex="0155"/>
  <outline>
    <contour>
      <point x="207" y="0" type="line"/>
      <point x="72" y="0" type="line"/>
      <point x="72" y="523" type="line"/>
      <point x="207" y="523" type="line"/>
      <point x="207" y="414" type="line"/>
      <point x="212" y="414" type="line"/>
      <point x="219" y="457"/>
      <point x="286" y="523"/>
      <point x="349" y="523" type="qcurve"/>
      <point x="376" y="523" type="line"/>
      <point x="376" y="396" type="line"/>
      <point x="337" y="396" type="line"/>
      <point x="271" y="396"/>
      <point x="207" y="360"/>
      <point x="207" y="315" type="qcurve"/>
    </contour>
    <contour>
      <point x="238" y="580" type="line"/>
      <point x="157" y="620" type="line"/>
      <point x="253" y="809" type="line"/>
      <point x="367" y="753" type="line"/>
    </contour>
  </outline>
</glyph>
<glyph name="uni0156" format="2">
  <advance width="668"/>
  <unicode hex="0156"/>
  <outline>
    <contour>
      <point x="621" y="0" type="line"/>
      <point x="466" y="0" type="line"/>
      <point x="338" y="265" type="line"/>
      <point x="219" y="265" type="line"/>
      <point x="219" y="0" type="line"/>
      <point x="80" y="0" type="line"/>
      <point x="80" y="698" type="line"/>
      <point x="401" y="698" type="line" smooth="yes"/>
      <point x="500" y="698"/>
      <point x="609" y="574"/>
      <point x="609" y="479" type="qcurve" smooth="yes"/>
      <point x="609" y="329"/>
      <point x="479" y="281" type="qcurve"/>
    </contour>
    <contour>
      <point x="386" y="382" type="line" smooth="yes"/>
      <point x="465" y="382"/>
      <point x="465" y="457" type="qcurve" smooth="yes"/>
      <point x="465" y="502" type="line" smooth="yes"/>
      <point x="465" y="534"/>
      <point x="435" y="566"/>
      <point x="386" y="577"/>
      <point x="359" y="577" type="qcurve" smooth="yes"/>
      <point x="219" y="577" type="line"/>
      <point x="219" y="382" type="line"/>
    </contour>
    <contour>
      <point x="348" y="-269" type="qcurve"/>
      <point x="268" y="-269" type="line"/>
      <point x="314" y="-231"/>
      <point x="328" y="-174" type="qcurve"/>
      <point x="301" y="-171"/>
      <point x="281" y="-135"/>
      <point x="281" y="-108" type="qcurve"/>
      <point x="285" y="-47"/>
      <point x="347" y="-47" type="qcurve" smooth="yes"/>
      <point x="414" y="-47"/>
      <point x="414" y="-106" type="qcurve" smooth="yes"/>
      <point x="414" y="-211"/>
    </contour>
  </outline>
</glyph>
<glyph name="rcaron" format="2">
  <advance width="397"/>
  <unicode hex="0159"/>
  <outline>
    <contour>
      <point x="207" y="0" type="line"/>
      <point x="72" y="0" type="line"/>
      <point x="72" y="523" type="line"/>
      <point x="207" y="523" type="line"/>
      <point x="207" y="414" type="line"/>
      <point x="212" y="414" type="line"/>
      <point x="219" y="457"/>
      <point x="286" y="523"/>
      <point x="349" y="523" type="qcurve"/>
      <point x="376" y="523" type="line"/>
      <point x="376" y="396" type="line"/>
      <point x="337" y="396" type="line"/>
      <point x="271" y="396"/>
      <point x="207" y="360"/>
      <point x="207" y="315" type="qcurve"/>
    </contour>
    <contour>
      <point x="284" y="589" type="line"/>
      <point x="164" y="589" type="line"/>
      <point x="36" y="745" type="line"/>
      <point x="104" y="798" type="line"/>
      <point x="224" y="683" type="line"/>
      <point x="344" y="798" type="line"/>
      <point x="412" y="745" type="line"/>
    </contour>
  </outline>
</glyph>
<glyph name="scircumflex" format="2">
  <advance width="501"/>
  <unicode hex="015D"/>
  <outline>
    <contour>
      <point x="246" y="-12" type="qcurve"/>
      <point x="108" y="-12"/>
      <point x="28" y="83" type="qcurve"/>
      <point x="109" y="163" type="line"/>
      <point x="166" y="94"/>
      <point x="251" y="94" type="qcurve"/>
      <point x="335" y="94"/>
      <point x="335" y="147" type="qcurve"/>
      <point x="335" y="151" type="line"/>
      <point x="335" y="194"/>
      <point x="275" y="202" type="qcurve"/>
      <point x="221" y="208" type="line"/>
      <point x="46" y="230"/>
      <point x="46" y="368" type="qcurve"/>
      <point x="46" y="439"/>
      <point x="145" y="535"/>
      <point x="246" y="535" type="qcurve"/>
      <point x="317" y="535"/>
      <point x="415" y="496"/>
      <point x="453" y="453" type="qcurve"/>
      <point x="374" y="374" type="line"/>
      <point x="320" y="429"/>
      <point x="251" y="429" type="qcurve"/>
      <point x="175" y="429"/>
      <point x="175" y="378" type="qcurve"/>
      <point x="175" y="330"/>
      <point x="238" y="323" type="qcurve"/>
      <point x="294" y="316" type="line"/>
      <point x="464" y="292"/>
      <point x="464" y="160" type="qcurve"/>
      <point x="464" y="77"/>
      <point x="338" y="-12"/>
    </contour>
    <contour>
      <point x="369" y="580" type="line"/>
      <point x="249" y="696" type="line"/>
      <point x="128" y="580" type="line"/>
      <point x="61" y="633" type="line"/>
      <point x="189" y="789" type="line"/>
      <point x="308" y="789" type="line"/>
      <point x="436" y="633" type="line"/>
    </contour>
  </outline>
</glyph>
<glyph name="Scedilla" format="2">
  <advance width="615"/>
  <unicode hex="015E"/>
  <outline>
    <contour>
      <point x="315" y="-211" type="qcurve" smooth="yes"/>
      <point x="229" y="-211"/>
      <point x="196" y="-168" type="qcurve"/>
      <point x="240" y="-114" type="line"/>
      <point x="263" y="-143"/>
      <point x="305" y="-143" type="qcurve" smooth="yes"/>
      <point x="349" y="-143"/>
      <point x="349" y="-117" type="qcurve" smooth="yes"/>
      <point x="349" y="-82"/>
      <point x="253" y="-75" type="qcurve"/>
      <point x="266" y="-11" type="line"/>
      <point x="122" y="3"/>
      <point x="39" y="103" type="qcurve"/>
      <point x="131" y="194" type="line"/>
      <point x="203" y="111"/>
      <point x="309" y="111" type="qcurve" smooth="yes"/>
      <point x="371" y="111"/>
      <point x="427" y="163"/>
      <point x="427" y="204" type="qcurve" smooth="yes"/>
      <point x="427" y="275"/>
      <point x="337" y="287" type="qcurve"/>
      <point x="270" y="297" type="line" smooth="yes"/>
      <point x="60" y="326"/>
      <point x="60" y="502" type="qcurve" smooth="yes"/>
      <point x="60" y="561"/>
      <point x="117" y="655"/>
      <point x="231" y="710"/>
      <point x="316" y="710" type="qcurve" smooth="yes"/>
      <point x="472" y="710"/>
      <point x="556" y="609" type="qcurve"/>
      <point x="462" y="518" type="line"/>
      <point x="406" y="587"/>
      <point x="308" y="587" type="qcurve" smooth="yes"/>
      <point x="198" y="587"/>
      <point x="198" y="511" type="qcurve" smooth="yes"/>
      <point x="198" y="437"/>
      <point x="291" y="428" type="qcurve"/>
      <point x="334" y="420" type="line" smooth="yes"/>
      <point x="364" y="415"/>
      <point x="415" y="403"/>
      <point x="450" y="389" type="qcurve" smooth="yes"/>
      <point x="566" y="342"/>
      <point x="566" y="212" type="qcurve" smooth="yes"/>
      <point x="566" y="122"/>
      <point x="450" y="1"/>
      <point x="330" y="-11" type="qcurve"/>
      <point x="321" y="-56" type="line"/>
      <point x="325" y="-60" type="line"/>
      <point x="346" y="-53"/>
      <point x="371" y="-53" type="qcurve" smooth="yes"/>
      <point x="443" y="-53"/>
      <point x="443" y="-122" type="qcurve" smooth="yes"/>
      <point x="443" y="-171"/>
      <point x="366" y="-211"/>
    </contour>
  </outline>
</glyph>
<glyph name="Tbar" format="2">
  <advance width="592"/>
  <unicode hex="0166"/>
  <outline>
    <contour>
      <point x="366" y="0" type="line"/>
      <point x="227" y="0" type="line"/>
      <point x="227" y="293" type="line"/>
      <point x="83" y="293" type="line"/>
      <point x="83" y="397" type="line"/>
      <point x="227" y="397" type="line"/>
      <point x="227" y="575" type="line"/>
      <point x="31" y="575" type="line"/>
      <point x="31" y="698" type="line"/>
      <point x="561" y="698" type="line"/>
      <point x="561" y="575" type="line"/>
      <point x="366" y="575" type="line"/>
      <point x="366" y="397" type="line"/>
      <point x="510" y="397" type="line"/>
      <point x="510" y="293" type="line"/>
      <point x="366" y="293" type="line"/>
    </contour>
  </outline>
</glyph>
<glyph name="tbar" format="2">
  <advance width="385"/>
  <unicode hex="0167"/>
  <outline>
    <contour>
      <point x="337" y="0" type="line"/>
      <point x="246" y="0" type="line" smooth="yes"/>
      <point x="104" y="0"/>
      <point x="104" y="140" type="qcurve" smooth="yes"/>
      <point x="104" y="226" type="line"/>
      <point x="40" y="226" type="line"/>
      <point x="40" y="319" type="line"/>
      <point x="104" y="319" type="line"/>
      <point x="104" y="417" type="line"/>
      <point x="28" y="417" type="line"/>
      <point x="28" y="523" type="line"/>
      <point x="69" y="523" type="line" smooth="yes"/>
      <point x="118" y="523"/>
      <point x="118" y="572" type="qcurve" smooth="yes"/>
      <point x="118" y="665" type="line"/>
      <point x="239" y="665" type="line"/>
      <point x="239" y="523" type="line"/>
      <point x="345" y="523" type="line"/>
      <point x="345" y="417" type="line"/>
      <point x="239" y="417" type="line"/>
      <point x="239" y="319" type="line"/>
      <point x="325" y="319" type="line"/>
      <point x="325" y="226" type="line"/>
      <point x="239" y="226" type="line"/>
      <point x="239" y="106" type="line"/>
      <point x="337" y="106" type="line"/>
    </contour>
  </outline>
</glyph>
<glyph name="Utilde" format="2">
  <advance width="691"/>
  <unicode hex="0168"/>
  <outline>
    <contour>
      <point x="421" y="766" type="qcurve" smooth="yes"/>
      <point x="400" y="766"/>
      <point x="370" y="775"/>
      <point x="354" y="782" type="qcurve" smooth="yes"/>
      <point x="301" y="804" type="line"/>
      <point x="285" y="809"/>
      <point x="267" y="809" type="qcurve" smooth="yes"/>
      <point x="232" y="809"/>
      <point x="208" y="784" type="qcurve"/>
      <point x="160" y="847" type="line"/>
      <point x="199" y="909"/>
      <point x="270" y="909" type="qcurve" smooth="yes"/>
      <point x="301" y="909"/>
      <point x="325" y="897" type="qcurve" smooth="yes"/>
      <point x="387" y="865"/>
      <point x="424" y="865" type="qcurve" smooth="yes"/>
      <point x="457" y="865"/>
      <point x="483" y="890" type="qcurve"/>
      <point x="531" y="828" type="line"/>
      <point x="493" y="766"/>
    </contour>
    <contour>
      <point x="346" y="-12" type="qcurve" smooth="yes"/>
      <point x="198" y="-12"/>
      <point x="76" y="131"/>
      <point x="76" y="286" type="qcurve" smooth="yes"/>
      <point x="76" y="698" type="line"/>
      <point x="212" y="698" type="line"/>
      <point x="212" y="269" type="line" smooth="yes"/>
      <point x="212" y="185"/>
      <point x="277" y="112"/>
      <point x="346" y="112" type="qcurve" smooth="yes"/>
      <point x="417" y="112"/>
      <point x="480" y="189"/>
      <point x="480" y="269" type="qcurve" smooth="yes"/>
      <point x="480" y="698" type="line"/>
      <point x="615" y="698" type="line"/>
      <point x="615" y="286" type="line" smooth="yes"/>
      <point x="615" y="122"/>
      <point x="485" y="-12"/>
    </contour>
  </outline>
</glyph>
<glyph name="umacron" format="2">
  <advance width="591"/>
  <unicode hex="016B"/>
  <outline>
    <contour>
      <point x="232" y="-12" type="qcurve"/>
      <point x="172" y="-12"/>
      <point x="99" y="40"/>
      <point x="66" y="133"/>
      <point x="66" y="193" type="qcurve"/>
      <point x="66" y="523" type="line"/>
      <point x="201" y="523" type="line"/>
      <point x="201" y="206" type="line"/>
      <point x="201" y="99"/>
      <point x="285" y="99" type="qcurve"/>
      <point x="321" y="99"/>
      <point x="384" y="138"/>
      <point x="384" y="180" type="qcurve"/>
      <point x="384" y="523" type="line"/>
      <point x="519" y="523" type="line"/>
      <point x="519" y="0" type="line"/>
      <point x="384" y="0" type="line"/>
      <point x="384" y="87" type="line"/>
      <point x="379" y="87" type="line"/>
      <point x="349" y="-12"/>
    </contour>
    <contour>
      <point x="444" y="626" type="line"/>
      <point x="143" y="626" type="line"/>
      <point x="143" y="723" type="line"/>
      <point x="444" y="723" type="line"/>
    </contour>
  </outline>
</glyph>
<glyph name="Ubreve" format="2">
  <advance width="691"/>
  <unicode hex="016C"/>
  <outline>
    <contour>
      <point x="346" y="-12" type="qcurve"/>
      <point x="198" y="-12"/>
      <point x="76" y="131"/>
      <point x="76" y="286" type="qcurve"/>
      <point x="76" y="698" type="line"/>
      <point x="212" y="698" type="line"/>
      <point x="212" y="269" type="line"/>
      <point x="212" y="185"/>
      <point x="277" y="112"/>
      <point x="346" y="112" type="qcurve"/>
      <point x="417" y="112"/>
      <point x="480" y="189"/>
      <point x="480" y="269" type="qcurve"/>
      <point x="480" y="698" type="line"/>
      <point x="615" y="698" type="line"/>
      <point x="615" y="286" type="line"/>
      <point x="615" y="122"/>
      <point x="485" y="-12"/>
    </contour>
    <contour>
      <point x="345" y="745" type="qcurve"/>
      <point x="294" y="745"/>
      <point x="220" y="790"/>
      <point x="173" y="863"/>
      <point x="163" y="906" type="qcurve"/>
      <point x="237" y="945" type="line"/>
      <point x="270" y="887"/>
      <point x="287" y="867" type="qcurve"/>
      <point x="309" y="840"/>
      <point x="345" y="840" type="qcurve"/>
      <point x="374" y="840"/>
      <point x="415" y="875"/>
      <point x="435" y="912" type="qcurve"/>
      <point x="455" y="945" type="line"/>
      <point x="528" y="906" type="line"/>
      <point x="508" y="836"/>
      <point x="417" y="745"/>
    </contour>
  </outline>
</glyph>
<glyph name="Uring" format="2">
  <advance width="691"/>
  <unicode hex="016E"/>
  <outline>
    <contour>
      <point x="346" y="-12" type="qcurve"/>
      <point x="198" y="-12"/>
      <point x="76" y="131"/>
      <point x="76" y="286" type="qcurve"/>
      <point x="76" y="698" type="line"/>
      <point x="212" y="698" type="line"/>
      <point x="212" y="269" type="line"/>
      <point x="212" y="185"/>
      <point x="277" y="112"/>
      <point x="346" y="112" type="qcurve"/>
      <point x="417" y="112"/>
      <point x="480" y="189"/>
      <point x="480" y="269" type="qcurve"/>
      <point x="480" y="698" type="line"/>
      <point x="615" y="698" type="line"/>
      <point x="615" y="286" type="line"/>
      <point x="615" y="122"/>
      <point x="485" y="-12"/>
    </contour>
    <contour>
      <point x="346" y="724" type="qcurve"/>
      <point x="289" y="724"/>
      <point x="204" y="799"/>
      <point x="204" y="862" type="qcurve"/>
      <point x="204" y="925"/>
      <point x="290" y="999"/>
      <point x="346" y="999" type="qcurve"/>
      <point x="402" y="999"/>
      <point x="488" y="925"/>
      <point x="488" y="862" type="qcurve"/>
      <point x="488" y="799"/>
      <point x="401" y="724"/>
    </contour>
    <contour>
      <point x="346" y="794" type="qcurve"/>
      <point x="398" y="796"/>
      <point x="398" y="846" type="qcurve"/>
      <point x="398" y="878" type="line"/>
      <point x="396" y="929"/>
      <point x="346" y="929" type="qcurve"/>
      <point x="318" y="929"/>
      <point x="293" y="899"/>
      <point x="293" y="878" type="qcurve"/>
      <point x="293" y="846" type="line"/>
      <point x="295" y="794"/>
    </contour>
  </outline>
</glyph>
<glyph name="Uhungarumlaut" format="2">
  <advance width="691"/>
  <unicode hex="0170"/>
  <outline>
    <contour>
      <point x="259" y="743" type="line"/>
      <point x="184" y="779" type="line"/>
      <point x="281" y="968" type="line"/>
      <point x="388" y="916" type="line"/>
    </contour>
    <contour>
      <point x="455" y="743" type="line"/>
      <point x="381" y="779" type="line"/>
      <point x="477" y="968" type="line"/>
      <point x="584" y="916" type="line"/>
    </contour>
    <contour>
      <point x="346" y="-12" type="qcurve" smooth="yes"/>
      <point x="198" y="-12"/>
      <point x="76" y="131"/>
      <point x="76" y="286" type="qcurve" smooth="yes"/>
      <point x="76" y="698" type="line"/>
      <point x="212" y="698" type="line"/>
      <point x="212" y="269" type="line" smooth="yes"/>
      <point x="212" y="185"/>
      <point x="277" y="112"/>
      <point x="346" y="112" type="qcurve" smooth="yes"/>
      <point x="417" y="112"/>
      <point x="480" y="189"/>
      <point x="480" y="269" type="qcurve" smooth="yes"/>
      <point x="480" y="698" type="line"/>
      <point x="615" y="698" type="line"/>
      <point x="615" y="286" type="line" smooth="yes"/>
      <point x="615" y="122"/>
      <point x="485" y="-12"/>
    </contour>
  </outline>
</glyph>
<glyph name="uhungarumlaut" format="2">
  <advance width="591"/>
  <unicode hex="0171"/>
  <outline>
    <contour>
      <point x="207" y="580" type="line"/>
      <point x="132" y="616" type="line"/>
      <point x="229" y="806" type="line"/>
      <point x="336" y="753" type="line"/>
    </contour>
    <contour>
      <point x="403" y="580" type="line"/>
      <point x="329" y="616" type="line"/>
      <point x="425" y="806" type="line"/>
      <point x="532" y="753" type="line"/>
    </contour>
    <contour>
      <point x="232" y="-12" type="qcurve" smooth="yes"/>
      <point x="172" y="-12"/>
      <point x="99" y="40"/>
      <point x="66" y="133"/>
      <point x="66" y="193" type="qcurve" smooth="yes"/>
      <point x="66" y="523" type="line"/>
      <point x="201" y="523" type="line"/>
      <point x="201" y="206" type="line" smooth="yes"/>
      <point x="201" y="99"/>
      <point x="285" y="99" type="qcurve" smooth="yes"/>
      <point x="321" y="99"/>
      <point x="384" y="138"/>
      <point x="384" y="180" type="qcurve" smooth="yes"/>
      <point x="384" y="523" type="line"/>
      <point x="519" y="523" type="line"/>
      <point x="519" y="0" type="line"/>
      <point x="384" y="0" type="line"/>
      <point x="384" y="87" type="line"/>
      <point x="379" y="87" type="line"/>
      <point x="349" y="-12"/>
    </contour>
  </outline>
</glyph>
<glyph name="Uogonek" format="2">
  <advance width="691"/>
  <unicode hex="0172"/>
  <outline>
    <contour>
      <point x="421" y="-211" type="qcurve"/>
      <point x="375" y="-211"/>
      <point x="303" y="-175"/>
      <point x="303" y="-129" type="qcurve"/>
      <point x="303" y="-86"/>
      <point x="369" y="-35"/>
      <point x="422" y="-11" type="qcurve"/>
      <point x="419" y="-6" type="line"/>
      <point x="386" y="-12"/>
      <point x="345" y="-12" type="qcurve"/>
      <point x="205" y="-12"/>
      <point x="76" y="124"/>
      <point x="76" y="286" type="qcurve"/>
      <point x="76" y="698" type="line"/>
      <point x="212" y="698" type="line"/>
      <point x="212" y="269" type="line"/>
      <point x="212" y="185"/>
      <point x="277" y="112"/>
      <point x="346" y="112" type="qcurve"/>
      <point x="415" y="112"/>
      <point x="480" y="185"/>
      <point x="480" y="269" type="qcurve"/>
      <point x="480" y="698" type="line"/>
      <point x="615" y="698" type="line"/>
      <point x="615" y="286" type="line"/>
      <point x="615" y="184"/>
      <point x="567" y="53"/>
      <point x="511" y="6" type="qcurve"/>
      <point x="481" y="-20"/>
      <point x="456" y="-37" type="qcurve"/>
      <point x="424" y="-60"/>
      <point x="396" y="-92"/>
      <point x="396" y="-109" type="qcurve"/>
      <point x="396" y="-141"/>
      <point x="432" y="-141" type="qcurve"/>
      <point x="461" y="-141"/>
      <point x="485" y="-114" type="qcurve"/>
      <point x="536" y="-162" type="line"/>
      <point x="511" y="-211"/>
    </contour>
  </outline>
</glyph>
<glyph name="uogonek" format="2">
  <advance width="591"/>
  <unicode hex="0173"/>
  <outline>
    <contour>
      <point x="433" y="-211" type="qcurve" smooth="yes"/>
      <point x="386" y="-211"/>
      <point x="315" y="-175"/>
      <point x="315" y="-128" type="qcurve" smooth="yes"/>
      <point x="315" y="-88"/>
      <point x="374" y="-30"/>
      <point x="430" y="-4" type="qcurve"/>
      <point x="429" y="0" type="line"/>
      <point x="384" y="0" type="line"/>
      <point x="384" y="87" type="line"/>
      <point x="379" y="87" type="line"/>
      <point x="349" y="-12"/>
      <point x="232" y="-12" type="qcurve" smooth="yes"/>
      <point x="143" y="-12"/>
      <point x="66" y="101"/>
      <point x="66" y="193" type="qcurve" smooth="yes"/>
      <point x="66" y="523" type="line"/>
      <point x="201" y="523" type="line"/>
      <point x="201" y="206" type="line" smooth="yes"/>
      <point x="201" y="99"/>
      <point x="285" y="99" type="qcurve" smooth="yes"/>
      <point x="321" y="99"/>
      <point x="384" y="138"/>
      <point x="384" y="180" type="qcurve" smooth="yes"/>
      <point x="384" y="523" type="line"/>
      <point x="518" y="523" type="line"/>
      <point x="518" y="0" type="line"/>
      <point x="450" y="-44"/>
      <point x="408" y="-87"/>
      <point x="408" y="-108" type="qcurve" smooth="yes"/>
      <point x="408" y="-141"/>
      <point x="444" y="-141" type="qcurve" smooth="yes"/>
      <point x="474" y="-141"/>
      <point x="498" y="-114" type="qcurve"/>
      <point x="549" y="-162" type="line"/>
      <point x="524" y="-211"/>
    </contour>
  </outline>
</glyph>
<glyph name="Ycircumflex" format="2">
  <advance width="638"/>
  <unicode hex="0176"/>
  <outline>
    <contour>
      <point x="440" y="743" type="line"/>
      <point x="320" y="859" type="line"/>
      <point x="199" y="743" type="line"/>
      <point x="132" y="796" type="line"/>
      <point x="260" y="952" type="line"/>
      <point x="379" y="952" type="line"/>
      <point x="507" y="796" type="line"/>
    </contour>
    <contour>
      <point x="389" y="0" type="line"/>
      <point x="249" y="0" type="line"/>
      <point x="249" y="274" type="line"/>
      <point x="10" y="698" type="line"/>
      <point x="166" y="698" type="line"/>
      <point x="323" y="409" type="line"/>
      <point x="325" y="409" type="line"/>
      <point x="477" y="698" type="line"/>
      <point x="629" y="698" type="line"/>
      <point x="389" y="275" type="line"/>
    </contour>
  </outline>
</glyph>
<glyph name="Zacute" format="2">
  <advance width="602"/>
  <unicode hex="0179"/>
  <outline>
    <contour>
      <point x="316" y="743" type="line"/>
      <point x="235" y="782" type="line"/>
      <point x="331" y="972" type="line"/>
      <point x="445" y="916" type="line"/>
    </contour>
    <contour>
      <point x="563" y="0" type="line"/>
      <point x="38" y="0" type="line"/>
      <point x="38" y="124" type="line"/>
      <point x="395" y="575" type="line"/>
      <point x="56" y="575" type="line"/>
      <point x="56" y="698" type="line"/>
      <point x="554" y="698" type="line"/>
      <point x="554" y="574" type="line"/>
      <point x="197" y="123" type="line"/>
      <point x="563" y="123" type="line"/>
    </contour>
  </outline>
</glyph>
<glyph name="zacute" format="2">
  <advance width="508"/>
  <unicode hex="017A"/>
  <outline>
    <contour>
      <point x="470" y="0" type="line"/>
      <point x="38" y="0" type="line"/>
      <point x="38" y="107" type="line"/>
      <point x="305" y="417" type="line"/>
      <point x="47" y="417" type="line"/>
      <point x="47" y="523" type="line"/>
      <point x="463" y="523" type="line"/>
      <point x="463" y="418" type="line"/>
      <point x="194" y="106" type="line"/>
      <point x="470" y="106" type="line"/>
    </contour>
    <contour>
      <point x="269" y="580" type="line"/>
      <point x="188" y="620" type="line"/>
      <point x="284" y="809" type="line"/>
      <point x="398" y="753" type="line"/>
    </contour>
  </outline>
</glyph>
<glyph name="Zdotaccent" format="2">
  <advance width="602"/>
  <unicode hex="017B"/>
  <outline>
    <contour>
      <point x="302" y="757" type="qcurve" smooth="yes"/>
      <point x="222" y="757"/>
      <point x="219" y="824" type="qcurve"/>
      <point x="219" y="850" type="line" smooth="yes"/>
      <point x="219" y="917"/>
      <point x="302" y="917" type="qcurve" smooth="yes"/>
      <point x="385" y="917"/>
      <point x="385" y="850" type="qcurve" smooth="yes"/>
      <point x="385" y="824" type="line" smooth="yes"/>
      <point x="385" y="757"/>
    </contour>
    <contour>
      <point x="563" y="0" type="line"/>
      <point x="38" y="0" type="line"/>
      <point x="38" y="124" type="line"/>
      <point x="395" y="575" type="line"/>
      <point x="56" y="575" type="line"/>
      <point x="56" y="698" type="line"/>
      <point x="554" y="698" type="line"/>
      <point x="554" y="574" type="line"/>
      <point x="197" y="123" type="line"/>
      <point x="563" y="123" type="line"/>
    </contour>
  </outline>
</glyph>
<glyph name="zdotaccent" format="2">
  <advance width="508"/>
  <unicode hex="017C"/>
  <outline>
    <contour>
      <point x="255" y="596" type="qcurve" smooth="yes"/>
      <point x="173" y="596"/>
      <point x="173" y="661" type="qcurve" smooth="yes"/>
      <point x="173" y="687" type="line" smooth="yes"/>
      <point x="173" y="752"/>
      <point x="253" y="752" type="qcurve" smooth="yes"/>
      <point x="337" y="752"/>
      <point x="337" y="687" type="qcurve" smooth="yes"/>
      <point x="337" y="661" type="line" smooth="yes"/>
      <point x="337" y="596"/>
    </contour>
    <contour>
      <point x="470" y="0" type="line"/>
      <point x="38" y="0" type="line"/>
      <point x="38" y="107" type="line"/>
      <point x="305" y="417" type="line"/>
      <point x="47" y="417" type="line"/>
      <point x="47" y="523" type="line"/>
      <point x="463" y="523" type="line"/>
      <point x="463" y="418" type="line"/>
      <point x="194" y="106" type="line"/>
      <point x="470" y="106" type="line"/>
    </contour>
  </outline>
</glyph>
<glyph name="fhook" format="2">
  <advance width="484"/>
  <unicode hex="0192"/>
  <outline>
    <contour>
      <point x="110" y="-134" type="qcurve"/>
      <point x="3" y="-134" type="line"/>
      <point x="14" y="-28" type="line"/>
      <point x="135" y="-28" type="line"/>
      <point x="165" y="261" type="line"/>
      <point x="52" y="261" type="line"/>
      <point x="63" y="372" type="line"/>
      <point x="176" y="372" type="line"/>
      <point x="194" y="552" type="line"/>
      <point x="199" y="615"/>
      <point x="277" y="698"/>
      <point x="358" y="698" type="qcurve"/>
      <point x="470" y="698" type="line"/>
      <point x="458" y="592" type="line"/>
      <point x="333" y="592" type="line"/>
      <point x="310" y="372" type="line"/>
      <point x="444" y="372" type="line"/>
      <point x="434" y="261" type="line"/>
      <point x="299" y="261" type="line"/>
      <point x="274" y="11" type="line"/>
      <point x="269" y="-52"/>
      <point x="191" y="-134"/>
    </contour>
  </outline>
</glyph>
<glyph name="uhorn" format="2">
  <advance width="591"/>
  <unicode hex="01B0"/>
  <outline>
    <contour>
      <point x="232" y="-12" type="qcurve"/>
      <point x="66" y="-12"/>
      <point x="66" y="193" type="qcurve"/>
      <point x="66" y="523" type="line"/>
      <point x="201" y="523" type="line"/>
      <point x="201" y="206" type="line"/>
      <point x="201" y="99"/>
      <point x="285" y="99" type="qcurve"/>
      <point x="320" y="99"/>
      <point x="384" y="139"/>
      <point x="384" y="180" type="qcurve"/>
      <point x="384" y="523" type="line"/>
      <point x="472" y="523" type="line"/>
      <point x="472" y="630" type="line"/>
      <point x="586" y="630" type="line"/>
      <point x="586" y="535" type="line"/>
      <point x="586" y="450"/>
      <point x="518" y="443" type="qcurve"/>
      <point x="518" y="0" type="line"/>
      <point x="384" y="0" type="line"/>
      <point x="384" y="87" type="line"/>
      <point x="379" y="87" type="line"/>
      <point x="349" y="-12"/>
    </contour>
  </outline>
</glyph>
<glyph name="Aringacute" format="2">
  <advance width="677"/>
  <unicode hex="01FA"/>
  <outline>
    <contour>
      <point x="333" y="898" type="line"/>
      <point x="281" y="948" type="line"/>
      <point x="399" y="1064" type="line"/>
      <point x="473" y="994" type="line"/>
    </contour>
    <contour>
      <point x="336" y="727" type="qcurve" smooth="yes"/>
      <point x="279" y="727"/>
      <point x="191" y="786"/>
      <point x="191" y="846" type="qcurve" smooth="yes"/>
      <point x="191" y="905"/>
      <point x="280" y="965"/>
      <point x="336" y="965" type="qcurve" smooth="yes"/>
      <point x="374" y="965"/>
      <point x="440" y="940"/>
      <point x="481" y="887"/>
      <point x="481" y="846" type="qcurve" smooth="yes"/>
      <point x="481" y="806"/>
      <point x="438" y="753"/>
      <point x="371" y="727"/>
    </contour>
    <contour>
      <point x="336" y="793" type="qcurve" smooth="yes"/>
      <point x="369" y="793"/>
      <point x="392" y="820"/>
      <point x="392" y="849" type="qcurve" smooth="yes"/>
      <point x="392" y="899"/>
      <point x="336" y="899" type="qcurve" smooth="yes"/>
      <point x="280" y="899"/>
      <point x="280" y="852" type="qcurve" smooth="yes"/>
      <point x="280" y="840" type="line" smooth="yes"/>
      <point x="280" y="793"/>
    </contour>
    <contour>
      <point x="657" y="0" type="line"/>
      <point x="512" y="0" type="line"/>
      <point x="458" y="174" type="line"/>
      <point x="215" y="174" type="line"/>
      <point x="162" y="0" type="line"/>
      <point x="21" y="0" type="line"/>
      <point x="253" y="698" type="line"/>
      <point x="426" y="698" type="line"/>
    </contour>
    <contour>
      <point x="424" y="292" type="line"/>
      <point x="338" y="571" type="line"/>
      <point x="333" y="571" type="line"/>
      <point x="248" y="292" type="line"/>
    </contour>
  </outline>
</glyph>
<glyph name="aringacute" format="2">
  <advance width="548"/>
  <unicode hex="01FB"/>
  <outline>
    <contour>
      <point x="262" y="815" type="line"/>
      <point x="212" y="866" type="line"/>
      <point x="330" y="983" type="line"/>
      <point x="402" y="910" type="line"/>
    </contour>
    <contour>
      <point x="266" y="564" type="qcurve" smooth="yes"/>
      <point x="231" y="564"/>
      <point x="164" y="589"/>
      <point x="121" y="642"/>
      <point x="121" y="683" type="qcurve" smooth="yes"/>
      <point x="121" y="742"/>
      <point x="210" y="802"/>
      <point x="266" y="802" type="qcurve" smooth="yes"/>
      <point x="304" y="802"/>
      <point x="370" y="777"/>
      <point x="411" y="724"/>
      <point x="411" y="683" type="qcurve" smooth="yes"/>
      <point x="411" y="643"/>
      <point x="368" y="590"/>
      <point x="301" y="564"/>
    </contour>
    <contour>
      <point x="266" y="630" type="qcurve" smooth="yes"/>
      <point x="322" y="630"/>
      <point x="322" y="677" type="qcurve" smooth="yes"/>
      <point x="322" y="691" type="line" smooth="yes"/>
      <point x="322" y="736"/>
      <point x="266" y="736" type="qcurve" smooth="yes"/>
      <point x="210" y="736"/>
      <point x="210" y="690" type="qcurve" smooth="yes"/>
      <point x="210" y="680" type="line" smooth="yes"/>
      <point x="210" y="630"/>
    </contour>
    <contour>
      <point x="201" y="-12" type="qcurve" smooth="yes"/>
      <point x="117" y="-12"/>
      <point x="36" y="75"/>
      <point x="36" y="142" type="qcurve" smooth="yes"/>
      <point x="36" y="227"/>
      <point x="158" y="303"/>
      <point x="260" y="303" type="qcurve" smooth="yes"/>
      <point x="347" y="303" type="line"/>
      <point x="347" y="340" type="line" smooth="yes"/>
      <point x="347" y="428"/>
      <point x="253" y="428" type="qcurve" smooth="yes"/>
      <point x="209" y="428"/>
      <point x="155" y="392"/>
      <point x="136" y="363" type="qcurve"/>
      <point x="56" y="435" type="line"/>
      <point x="117" y="535"/>
      <point x="263" y="535" type="qcurve" smooth="yes"/>
      <point x="482" y="535"/>
      <point x="482" y="347" type="qcurve" smooth="yes"/>
      <point x="482" y="0" type="line"/>
      <point x="360" y="0" type="line"/>
      <point x="360" y="90" type="line"/>
      <point x="354" y="90" type="line"/>
      <point x="337" y="35"/>
      <point x="255" y="-12"/>
    </contour>
    <contour>
      <point x="248" y="84" type="qcurve" smooth="yes"/>
      <point x="285" y="84"/>
      <point x="347" y="115"/>
      <point x="347" y="157" type="qcurve" smooth="yes"/>
      <point x="347" y="224" type="line"/>
      <point x="277" y="224" type="line" smooth="yes"/>
      <point x="172" y="224"/>
      <point x="172" y="164" type="qcurve" smooth="yes"/>
      <point x="172" y="145" type="line" smooth="yes"/>
      <point x="172" y="84"/>
    </contour>
  </outline>
</glyph>
<glyph name="uni0218" format="2">
  <advance width="615"/>
  <unicode hex="0218"/>
  <outline>
    <contour>
      <point x="300" y="-12" type="qcurve" smooth="yes"/>
      <point x="135" y="-12"/>
      <point x="39" y="103" type="qcurve"/>
      <point x="131" y="194" type="line"/>
      <point x="205" y="111"/>
      <point x="309" y="111" type="qcurve" smooth="yes"/>
      <point x="427" y="111"/>
      <point x="427" y="204" type="qcurve" smooth="yes"/>
      <point x="427" y="273"/>
      <point x="337" y="287" type="qcurve" smooth="yes"/>
      <point x="270" y="297" type="line" smooth="yes"/>
      <point x="165" y="313"/>
      <point x="60" y="412"/>
      <point x="60" y="502" type="qcurve" smooth="yes"/>
      <point x="60" y="559"/>
      <point x="116" y="654"/>
      <point x="229" y="710"/>
      <point x="316" y="710" type="qcurve" smooth="yes"/>
      <point x="472" y="710"/>
      <point x="556" y="609" type="qcurve"/>
      <point x="462" y="518" type="line"/>
      <point x="406" y="587"/>
      <point x="308" y="587" type="qcurve" smooth="yes"/>
      <point x="250" y="587"/>
      <point x="198" y="545"/>
      <point x="198" y="511" type="qcurve" smooth="yes"/>
      <point x="198" y="437"/>
      <point x="291" y="428" type="qcurve"/>
      <point x="357" y="416" type="line"/>
      <point x="462" y="399"/>
      <point x="566" y="301"/>
      <point x="566" y="212" type="qcurve" smooth="yes"/>
      <point x="566" y="148"/>
      <point x="506" y="47"/>
      <point x="387" y="-12"/>
    </contour>
    <contour>
      <point x="305" y="-269" type="qcurve"/>
      <point x="225" y="-269" type="line"/>
      <point x="271" y="-232"/>
      <point x="285" y="-174" type="qcurve"/>
      <point x="256" y="-171"/>
      <point x="238" y="-133"/>
      <point x="238" y="-106" type="qcurve"/>
      <point x="241" y="-47"/>
      <point x="304" y="-47" type="qcurve" smooth="yes"/>
      <point x="370" y="-47"/>
      <point x="370" y="-106" type="qcurve" smooth="yes"/>
      <point x="370" y="-134"/>
      <point x="363" y="-177"/>
      <point x="353" y="-201" type="qcurve" smooth="yes"/>
      <point x="335" y="-242"/>
    </contour>
  </outline>
</glyph>
<glyph name="jdotless" format="2">
  <advance width="279"/>
  <unicode hex="0237"/>
  <outline>
    <contour>
      <point x="66" y="-200" type="qcurve"/>
      <point x="-7" y="-200" type="line"/>
      <point x="-7" y="-94" type="line"/>
      <point x="72" y="-94" type="line"/>
      <point x="72" y="523" type="line"/>
      <point x="207" y="523" type="line"/>
      <point x="207" y="-61" type="line"/>
      <point x="207" y="-200"/>
    </contour>
  </outline>
</glyph>
<glyph name="schwa" format="2">
  <advance width="560"/>
  <unicode hex="0259"/>
  <outline>
    <contour>
      <point x="278" y="-12" type="qcurve"/>
      <point x="196" y="-12"/>
      <point x="90" y="58"/>
      <point x="38" y="178"/>
      <point x="38" y="253" type="qcurve"/>
      <point x="38" y="296" type="line"/>
      <point x="382" y="296" type="line"/>
      <point x="382" y="355"/>
      <point x="331" y="428"/>
      <point x="263" y="428" type="qcurve"/>
      <point x="214" y="428"/>
      <point x="156" y="387"/>
      <point x="134" y="360" type="qcurve"/>
      <point x="63" y="442" type="line"/>
      <point x="135" y="535"/>
      <point x="278" y="535" type="qcurve"/>
      <point x="398" y="535"/>
      <point x="522" y="383"/>
      <point x="522" y="261" type="qcurve"/>
      <point x="522" y="139"/>
      <point x="397" y="-12"/>
    </contour>
    <contour>
      <point x="276" y="89" type="qcurve"/>
      <point x="331" y="89"/>
      <point x="382" y="162"/>
      <point x="382" y="214" type="qcurve"/>
      <point x="178" y="214" type="line"/>
      <point x="178" y="89"/>
    </contour>
  </outline>
</glyph>
<glyph name="circumflexmod" format="2">
  <advance width="600"/>
  <unicode hex="02C6"/>
  <outline>
    <contour>
      <point x="420" y="580" type="line"/>
      <point x="300" y="696" type="line"/>
      <point x="180" y="580" type="line"/>
      <point x="112" y="633" type="line"/>
      <point x="240" y="789" type="line"/>
      <point x="360" y="789" type="line"/>
      <point x="488" y="633" type="line"/>
    </contour>
  </outline>
</glyph>
<glyph name="breve" format="2">
  <advance width="600"/>
  <unicode hex="02D8"/>
  <outline>
    <contour>
      <point x="300" y="582" type="qcurve" smooth="yes"/>
      <point x="248" y="582"/>
      <point x="175" y="628"/>
      <point x="129" y="701"/>
      <point x="117" y="744" type="qcurve"/>
      <point x="191" y="782" type="line"/>
      <point x="212" y="749" type="line"/>
      <point x="249" y="678"/>
      <point x="300" y="678" type="qcurve" smooth="yes"/>
      <point x="335" y="678"/>
      <point x="376" y="726"/>
      <point x="403" y="771" type="qcurve"/>
      <point x="409" y="782" type="line"/>
      <point x="483" y="744" type="line"/>
      <point x="461" y="671"/>
      <point x="368" y="582"/>
    </contour>
  </outline>
</glyph>
<glyph name="dotaccentmod" format="2">
  <advance width="600"/>
  <unicode hex="02D9"/>
  <outline>
    <contour>
      <point x="300" y="596" type="qcurve"/>
      <point x="218" y="596"/>
      <point x="218" y="661" type="qcurve"/>
      <point x="218" y="687" type="line"/>
      <point x="218" y="752"/>
      <point x="298" y="752" type="qcurve"/>
      <point x="382" y="752"/>
      <point x="382" y="687" type="qcurve"/>
      <point x="382" y="661" type="line"/>
      <point x="382" y="596"/>
    </contour>
  </outline>
</glyph>
<glyph name="ring" format="2">
  <advance width="600"/>
  <unicode hex="02DA"/>
  <outline>
    <contour>
      <point x="300" y="561" type="qcurve" smooth="yes"/>
      <point x="237" y="561"/>
      <point x="158" y="642"/>
      <point x="158" y="699" type="qcurve" smooth="yes"/>
      <point x="158" y="761"/>
      <point x="244" y="837"/>
      <point x="300" y="837" type="qcurve" smooth="yes"/>
      <point x="356" y="837"/>
      <point x="442" y="761"/>
      <point x="442" y="699" type="qcurve" smooth="yes"/>
      <point x="442" y="636"/>
      <point x="355" y="561"/>
    </contour>
    <contour>
      <point x="300" y="631" type="qcurve"/>
      <point x="352" y="634"/>
      <point x="352" y="683" type="qcurve" smooth="yes"/>
      <point x="352" y="716" type="line" smooth="yes"/>
      <point x="352" y="767"/>
      <point x="300" y="767" type="qcurve"/>
      <point x="248" y="764"/>
      <point x="248" y="715" type="qcurve" smooth="yes"/>
      <point x="248" y="683" type="line" smooth="yes"/>
      <point x="248" y="631"/>
    </contour>
  </outline>
</glyph>
<glyph name="ogonek" format="2">
  <advance width="600"/>
  <unicode hex="02DB"/>
  <outline>
    <contour>
      <point x="220" y="-211" type="qcurve" smooth="yes"/>
      <point x="168" y="-211"/>
      <point x="101" y="-171"/>
      <point x="101" y="-128" type="qcurve" smooth="yes"/>
      <point x="101" y="-85"/>
      <point x="163" y="-27"/>
      <point x="218" y="-2" type="qcurve"/>
      <point x="210" y="22" type="line"/>
      <point x="296" y="22" type="line"/>
      <point x="305" y="0" type="line"/>
      <point x="213" y="-59"/>
      <point x="203" y="-82" type="qcurve"/>
      <point x="197" y="-93"/>
      <point x="195" y="-111" type="qcurve"/>
      <point x="197" y="-126"/>
      <point x="212" y="-141"/>
      <point x="231" y="-141" type="qcurve" smooth="yes"/>
      <point x="261" y="-141"/>
      <point x="285" y="-114" type="qcurve"/>
      <point x="335" y="-162" type="line"/>
      <point x="312" y="-211"/>
    </contour>
  </outline>
</glyph>
<glyph name="tilde" format="2">
  <advance width="600"/>
  <unicode hex="02DC"/>
  <outline>
    <contour>
      <point x="375" y="603" type="qcurve" smooth="yes"/>
      <point x="345" y="603"/>
      <point x="299" y="626"/>
      <point x="273" y="634" type="qcurve"/>
      <point x="244" y="647"/>
      <point x="221" y="647" type="qcurve" smooth="yes"/>
      <point x="203" y="647"/>
      <point x="177" y="633"/>
      <point x="163" y="621" type="qcurve"/>
      <point x="114" y="684" type="line"/>
      <point x="153" y="746"/>
      <point x="225" y="746" type="qcurve" smooth="yes"/>
      <point x="255" y="746"/>
      <point x="302" y="723"/>
      <point x="327" y="715" type="qcurve"/>
      <point x="356" y="702"/>
      <point x="379" y="702" type="qcurve" smooth="yes"/>
      <point x="412" y="702"/>
      <point x="437" y="728" type="qcurve"/>
      <point x="486" y="665" type="line"/>
      <point x="448" y="603"/>
    </contour>
  </outline>
</glyph>
<glyph name="tildecomb" format="2">
  <advance width="0"/>
  <unicode hex="0303"/>
  <outline>
    <contour>
      <point x="76" y="603" type="qcurve"/>
      <point x="46" y="603"/>
      <point x="0" y="626"/>
      <point x="-26" y="634" type="qcurve"/>
      <point x="-55" y="647"/>
      <point x="-78" y="647" type="qcurve"/>
      <point x="-111" y="647"/>
      <point x="-136" y="621" type="qcurve"/>
      <point x="-185" y="684" type="line"/>
      <point x="-146" y="746"/>
      <point x="-74" y="746" type="qcurve"/>
      <point x="-43" y="746"/>
      <point x="3" y="723"/>
      <point x="28" y="715" type="qcurve"/>
      <point x="57" y="702"/>
      <point x="80" y="702" type="qcurve"/>
      <point x="113" y="702"/>
      <point x="138" y="728" type="qcurve"/>
      <point x="187" y="665" type="line"/>
      <point x="149" y="603"/>
    </contour>
  </outline>
</glyph>
<glyph name="uni0304" format="2">
  <unicode hex="0304"/>
  <outline>
    <contour>
      <point x="152" y="626" type="line"/>
      <point x="-150" y="626" type="line"/>
      <point x="-150" y="723" type="line"/>
      <point x="152" y="723" type="line"/>
    </contour>
  </outline>
</glyph>
<glyph name="dotaccentcomb" format="2">
  <advance width="0"/>
  <unicode hex="0307"/>
  <outline>
    <contour>
      <point x="1" y="596" type="qcurve"/>
      <point x="-81" y="596"/>
      <point x="-81" y="661" type="qcurve"/>
      <point x="-81" y="687" type="line"/>
      <point x="-81" y="752"/>
      <point x="-1" y="752" type="qcurve"/>
      <point x="83" y="752"/>
      <point x="83" y="687" type="qcurve"/>
      <point x="83" y="661" type="line"/>
      <point x="83" y="596"/>
    </contour>
  </outline>
</glyph>
<glyph name="dieresiscomb" format="2">
  <advance width="0"/>
  <unicode hex="0308"/>
  <outline>
    <contour>
      <point x="-106" y="603" type="qcurve"/>
      <point x="-180" y="603"/>
      <point x="-180" y="663" type="qcurve"/>
      <point x="-180" y="686" type="line"/>
      <point x="-180" y="745"/>
      <point x="-108" y="745" type="qcurve"/>
      <point x="-32" y="745"/>
      <point x="-32" y="686" type="qcurve"/>
      <point x="-32" y="663" type="line"/>
      <point x="-32" y="603"/>
    </contour>
    <contour>
      <point x="108" y="603" type="qcurve"/>
      <point x="34" y="603"/>
      <point x="34" y="663" type="qcurve"/>
      <point x="34" y="686" type="line"/>
      <point x="34" y="745"/>
      <point x="108" y="745" type="qcurve"/>
      <point x="182" y="745"/>
      <point x="182" y="686" type="qcurve"/>
      <point x="182" y="663" type="line"/>
      <point x="182" y="603"/>
    </contour>
  </outline>
</glyph>
<glyph name="uni030A" format="2">
  <unicode hex="030A"/>
  <outline>
    <contour>
      <point x="1" y="561" type="qcurve" smooth="yes"/>
      <point x="-58" y="561"/>
      <point x="-141" y="640"/>
      <point x="-141" y="699" type="qcurve" smooth="yes"/>
      <point x="-141" y="760"/>
      <point x="-54" y="837"/>
      <point x="1" y="837" type="qcurve" smooth="yes"/>
      <point x="57" y="837"/>
      <point x="143" y="761"/>
      <point x="143" y="699" type="qcurve" smooth="yes"/>
      <point x="143" y="636"/>
      <point x="56" y="561"/>
    </contour>
    <contour>
      <point x="1" y="631" type="qcurve"/>
      <point x="53" y="634"/>
      <point x="53" y="683" type="qcurve" smooth="yes"/>
      <point x="53" y="716" type="line" smooth="yes"/>
      <point x="53" y="767"/>
      <point x="1" y="767" type="qcurve"/>
      <point x="-51" y="764"/>
      <point x="-51" y="715" type="qcurve" smooth="yes"/>
      <point x="-51" y="683" type="line" smooth="yes"/>
      <point x="-51" y="631"/>
    </contour>
  </outline>
</glyph>
<glyph name="doubleacutecomb" format="2">
  <advance width="0"/>
  <unicode hex="030B"/>
  <outline>
    <contour>
      <point x="-86" y="580" type="line"/>
      <point x="-160" y="616" type="line"/>
      <point x="-64" y="806" type="line"/>
      <point x="43" y="753" type="line"/>
    </contour>
    <contour>
      <point x="111" y="580" type="line"/>
      <point x="36" y="616" type="line"/>
      <point x="132" y="806" type="line"/>
      <point x="239" y="753" type="line"/>
    </contour>
  </outline>
</glyph>
<glyph name="commaaboverightcomb" format="2">
  <advance width="0"/>
  <unicode hex="0315"/>
  <outline>
    <contour>
      <point x="90" y="531" type="line"/>
      <point x="1" y="531" type="line"/>
      <point x="8" y="740" type="line"/>
      <point x="153" y="740" type="line"/>
    </contour>
  </outline>
</glyph>
<glyph name="uni031B" format="2">
  <unicode hex="031B"/>
  <outline>
    <contour>
      <point x="23" y="441" type="qcurve" smooth="yes"/>
      <point x="-116" y="441" type="line"/>
      <point x="-116" y="523" type="line"/>
      <point x="2" y="523" type="line"/>
      <point x="2" y="630" type="line"/>
      <point x="116" y="630" type="line"/>
      <point x="116" y="535" type="line" smooth="yes"/>
      <point x="116" y="485"/>
      <point x="75" y="441"/>
    </contour>
  </outline>
</glyph>
<glyph name="uni0327" format="2">
  <unicode hex="0327"/>
  <outline>
    <contour>
      <point x="15" y="-211" type="qcurve" smooth="yes"/>
      <point x="-70" y="-211"/>
      <point x="-105" y="-168" type="qcurve"/>
      <point x="-60" y="-114" type="line"/>
      <point x="-37" y="-143"/>
      <point x="5" y="-143" type="qcurve" smooth="yes"/>
      <point x="49" y="-143"/>
      <point x="49" y="-117" type="qcurve" smooth="yes"/>
      <point x="49" y="-82"/>
      <point x="-47" y="-75" type="qcurve"/>
      <point x="-26" y="28" type="line"/>
      <point x="38" y="28" type="line"/>
      <point x="20" y="-56" type="line"/>
      <point x="24" y="-60" type="line"/>
      <point x="46" y="-53"/>
      <point x="71" y="-53" type="qcurve" smooth="yes"/>
      <point x="99" y="-53"/>
      <point x="143" y="-83"/>
      <point x="143" y="-122" type="qcurve" smooth="yes"/>
      <point x="143" y="-170"/>
      <point x="68" y="-211"/>
    </contour>
  </outline>
</glyph>
<glyph name="tonos" format="2">
  <advance width="600"/>
  <unicode hex="0384"/>
  <outline>
    <contour>
      <point x="348" y="580" type="line"/>
      <point x="262" y="593" type="line"/>
      <point x="296" y="807" type="line"/>
      <point x="416" y="789" type="line"/>
    </contour>
  </outline>
</glyph>
<glyph name="greekdialytikatonosmod" format="2">
  <advance width="589"/>
  <unicode hex="0385"/>
  <outline>
    <contour>
      <point x="303" y="580" type="line"/>
      <point x="243" y="599" type="line"/>
      <point x="270" y="807" type="line"/>
      <point x="362" y="782" type="line"/>
    </contour>
    <contour>
      <point x="163" y="608" type="qcurve"/>
      <point x="139" y="608"/>
      <point x="109" y="631"/>
      <point x="105" y="651" type="qcurve"/>
      <point x="102" y="665"/>
      <point x="102" y="696"/>
      <point x="114" y="723"/>
      <point x="137" y="740"/>
      <point x="158" y="740" type="qcurve"/>
      <point x="183" y="740"/>
      <point x="213" y="716"/>
      <point x="217" y="697" type="qcurve"/>
      <point x="219" y="686"/>
      <point x="219" y="656"/>
      <point x="209" y="628"/>
      <point x="185" y="608"/>
    </contour>
    <contour>
      <point x="431" y="608" type="qcurve"/>
      <point x="406" y="608"/>
      <point x="377" y="631"/>
      <point x="373" y="651" type="qcurve"/>
      <point x="370" y="665"/>
      <point x="370" y="696"/>
      <point x="382" y="723"/>
      <point x="405" y="740"/>
      <point x="426" y="740" type="qcurve"/>
      <point x="451" y="740"/>
      <point x="481" y="716"/>
      <point x="485" y="697" type="qcurve"/>
      <point x="487" y="686"/>
      <point x="487" y="656"/>
      <point x="477" y="628"/>
      <point x="453" y="608"/>
    </contour>
  </outline>
</glyph>
<glyph name="Epsilontonos-grek" format="2">
  <advance width="679"/>
  <unicode hex="0388"/>
  <outline>
    <contour>
      <point x="159" y="0" type="line"/>
      <point x="159" y="698" type="line"/>
      <point x="622" y="698" type="line"/>
      <point x="622" y="578" type="line"/>
      <point x="294" y="578" type="line"/>
      <point x="294" y="412" type="line"/>
      <point x="582" y="412" type="line"/>
      <point x="582" y="293" type="line"/>
      <point x="294" y="293" type="line"/>
      <point x="294" y="120" type="line"/>
      <point x="622" y="120" type="line"/>
      <point x="622" y="0" type="line"/>
    </contour>
    <contour>
      <point x="68" y="580" type="line"/>
      <point x="-18" y="593" type="line"/>
      <point x="16" y="807" type="line"/>
      <point x="136" y="789" type="line"/>
    </contour>
  </outline>
</glyph>
<glyph name="Omegatonos-grek" format="2">
  <advance width="754"/>
  <unicode hex="038F"/>
  <outline>
    <contour>
      <point x="84" y="119" type="line"/>
      <point x="243" y="119" type="line"/>
      <point x="243" y="129" type="line"/>
      <point x="171" y="161"/>
      <point x="89" y="299"/>
      <point x="89" y="394" type="qcurve"/>
      <point x="89" y="455"/>
      <point x="127" y="569"/>
      <point x="203" y="657"/>
      <point x="317" y="710"/>
      <point x="393" y="710" type="qcurve"/>
      <point x="465" y="710"/>
      <point x="578" y="661"/>
      <point x="656" y="575"/>
      <point x="697" y="460"/>
      <point x="697" y="394" type="qcurve"/>
      <point x="697" y="295"/>
      <point x="615" y="161"/>
      <point x="543" y="129" type="qcurve"/>
      <point x="543" y="119" type="line"/>
      <point x="702" y="119" type="line"/>
      <point x="702" y="0" type="line"/>
      <point x="443" y="0" type="line"/>
      <point x="443" y="181" type="line"/>
      <point x="466" y="189"/>
      <point x="507" y="222"/>
      <point x="537" y="267"/>
      <point x="555" y="320"/>
      <point x="555" y="348" type="qcurve"/>
      <point x="555" y="431" type="line"/>
      <point x="555" y="462"/>
      <point x="532" y="519"/>
      <point x="490" y="563"/>
      <point x="430" y="590"/>
      <point x="393" y="590" type="qcurve"/>
      <point x="354" y="590"/>
      <point x="294" y="562"/>
      <point x="253" y="517"/>
      <point x="231" y="460"/>
      <point x="231" y="431" type="qcurve"/>
      <point x="231" y="348" type="line"/>
      <point x="231" y="320"/>
      <point x="249" y="267"/>
      <point x="279" y="222"/>
      <point x="320" y="189"/>
      <point x="343" y="181" type="qcurve"/>
      <point x="343" y="0" type="line"/>
      <point x="84" y="0" type="line"/>
    </contour>
    <contour>
      <point x="68" y="580" type="line"/>
      <point x="-18" y="593" type="line"/>
      <point x="16" y="807" type="line"/>
      <point x="136" y="789" type="line"/>
    </contour>
  </outline>
</glyph>
<glyph name="Beta-grek" format="2">
  <advance width="664"/>
  <unicode hex="0392"/>
  <outline>
    <contour>
      <point x="80" y="698" type="line"/>
      <point x="374" y="698" type="line"/>
      <point x="481" y="698"/>
      <point x="590" y="610"/>
      <point x="590" y="519" type="qcurve"/>
      <point x="590" y="481"/>
      <point x="570" y="425"/>
      <point x="536" y="388"/>
      <point x="490" y="370"/>
      <point x="465" y="369" type="qcurve"/>
      <point x="465" y="363" type="line"/>
      <point x="490" y="363"/>
      <point x="544" y="343"/>
      <point x="589" y="303"/>
      <point x="617" y="242"/>
      <point x="617" y="200" type="qcurve"/>
      <point x="617" y="151"/>
      <point x="586" y="76"/>
      <point x="531" y="26"/>
      <point x="453" y="0"/>
      <point x="406" y="0" type="qcurve"/>
      <point x="80" y="0" type="line"/>
    </contour>
    <contour>
      <point x="215" y="114" type="line"/>
      <point x="379" y="114" type="line"/>
      <point x="400" y="114"/>
      <point x="435" y="120"/>
      <point x="461" y="137"/>
      <point x="476" y="166"/>
      <point x="476" y="189" type="qcurve"/>
      <point x="476" y="223" type="line"/>
      <point x="476" y="258"/>
      <point x="433" y="297"/>
      <point x="398" y="297" type="qcurve"/>
      <point x="215" y="297" type="line"/>
    </contour>
    <contour>
      <point x="215" y="408" type="line"/>
      <point x="358" y="408" type="line"/>
      <point x="378" y="408"/>
      <point x="412" y="414"/>
      <point x="437" y="430"/>
      <point x="451" y="458"/>
      <point x="451" y="480" type="qcurve"/>
      <point x="451" y="511" type="line"/>
      <point x="451" y="546"/>
      <point x="411" y="583"/>
      <point x="376" y="583" type="qcurve"/>
      <point x="215" y="583" type="line"/>
    </contour>
  </outline>
</glyph>
<glyph name="Gamma" format="2">
  <advance width="511"/>
  <unicode hex="0393"/>
  <outline>
    <contour>
      <point x="80" y="698" type="line"/>
      <point x="482" y="698" type="line"/>
      <point x="482" y="578" type="line"/>
      <point x="215" y="578" type="line"/>
      <point x="215" y="0" type="line"/>
      <point x="80" y="0" type="line"/>
    </contour>
  </outline>
</glyph>
<glyph name="Zeta" format="2">
  <advance width="602"/>
  <unicode hex="0396"/>
  <outline>
    <contour>
      <point x="562" y="0" type="line"/>
      <point x="38" y="0" type="line"/>
      <point x="38" y="120" type="line"/>
      <point x="397" y="578" type="line"/>
      <point x="56" y="578" type="line"/>
      <point x="56" y="698" type="line"/>
      <point x="552" y="698" type="line"/>
      <point x="552" y="578" type="line"/>
      <point x="193" y="120" type="line"/>
      <point x="562" y="120" type="line"/>
    </contour>
  </outline>
</glyph>
<glyph name="Eta" format="2">
  <advance width="721"/>
  <unicode hex="0397"/>
  <outline>
    <contour>
      <point x="503" y="293" type="line"/>
      <point x="215" y="293" type="line"/>
      <point x="215" y="0" type="line"/>
      <point x="80" y="0" type="line"/>
      <point x="80" y="698" type="line"/>
      <point x="215" y="698" type="line"/>
      <point x="215" y="412" type="line"/>
      <point x="503" y="412" type="line"/>
      <point x="503" y="698" type="line"/>
      <point x="638" y="698" type="line"/>
      <point x="638" y="0" type="line"/>
      <point x="503" y="0" type="line"/>
    </contour>
  </outline>
</glyph>
<glyph name="Theta-grek" format="2">
  <advance width="720"/>
  <unicode hex="0398"/>
  <outline>
    <contour>
      <point x="360" y="-12" type="qcurve"/>
      <point x="290" y="-12"/>
      <point x="177" y="34"/>
      <point x="96" y="124"/>
      <point x="52" y="259"/>
      <point x="52" y="349" type="qcurve"/>
      <point x="52" y="434"/>
      <point x="93" y="569"/>
      <point x="172" y="661"/>
      <point x="286" y="710"/>
      <point x="360" y="710" type="qcurve"/>
      <point x="429" y="710"/>
      <point x="542" y="664"/>
      <point x="623" y="574"/>
      <point x="668" y="439"/>
      <point x="668" y="349" type="qcurve"/>
      <point x="668" y="263"/>
      <point x="626" y="128"/>
      <point x="547" y="36"/>
      <point x="432" y="-12"/>
    </contour>
    <contour>
      <point x="360" y="108" type="qcurve"/>
      <point x="434" y="108"/>
      <point x="525" y="202"/>
      <point x="525" y="295" type="qcurve"/>
      <point x="525" y="390" type="line"/>
      <point x="525" y="432"/>
      <point x="508" y="505"/>
      <point x="470" y="559"/>
      <point x="406" y="590"/>
      <point x="360" y="590" type="qcurve"/>
      <point x="285" y="590"/>
      <point x="195" y="494"/>
      <point x="195" y="402" type="qcurve"/>
      <point x="195" y="308" type="line"/>
      <point x="195" y="266"/>
      <point x="212" y="193"/>
      <point x="251" y="139"/>
      <point x="314" y="108"/>
    </contour>
    <contour>
      <point x="250" y="293" type="line"/>
      <point x="250" y="412" type="line"/>
      <point x="470" y="412" type="line"/>
      <point x="470" y="293" type="line"/>
    </contour>
  </outline>
</glyph>
<glyph name="Kappa-grek" format="2">
  <advance width="684"/>
  <unicode hex="039A"/>
  <outline>
    <contour>
      <point x="308" y="314" type="line"/>
      <point x="215" y="204" type="line"/>
      <point x="215" y="0" type="line"/>
      <point x="80" y="0" type="line"/>
      <point x="80" y="698" type="line"/>
      <point x="215" y="698" type="line"/>
      <point x="215" y="356" type="line"/>
      <point x="220" y="356" type="line"/>
      <point x="319" y="488" type="line"/>
      <point x="490" y="698" type="line"/>
      <point x="645" y="698" type="line"/>
      <point x="403" y="408" type="line"/>
      <point x="665" y="0" type="line"/>
      <point x="505" y="0" type="line"/>
    </contour>
  </outline>
</glyph>
<glyph name="Lambda" format="2">
  <advance width="660"/>
  <unicode hex="039B"/>
  <outline>
    <contour>
      <point x="411" y="698" type="line"/>
      <point x="640" y="0" type="line"/>
      <point x="499" y="0" type="line"/>
      <point x="392" y="339" type="line"/>
      <point x="329" y="570" type="line"/>
      <point x="326" y="570" type="line"/>
      <point x="264" y="339" type="line"/>
      <point x="157" y="0" type="line"/>
      <point x="21" y="0" type="line"/>
      <point x="250" y="698" type="line"/>
    </contour>
  </outline>
</glyph>
